<svg width="503" height="320" viewBox="0 0 503 320" fill="none" xmlns="http://www.w3.org/2000/svg"><mask id="a" maskUnits="userSpaceOnUse" x="0" y="0" width="503" height="320"><rect width="503" height="320" rx="10" fill="#DAE8F1"/></mask><g mask="url(#a)"><path opacity=".8" d="M478.501 103.5c-30.4-136.8 48.667-158.333 92-152l84.999-28L89-87.5l-212.001 50c-17.666 87.333-47.4 254.8-25 226 28-36 96-46 264.5 69.5s400.002 16.5 362.002-154.5z" fill="#F2FAFF"/></g><g clip-path="url(#clip0)"><path d="M236.997 268.86h-6.5s-16.66-22.58-4.32-24c18.47-2.06 10.82 24 10.82 24z" fill="url(#paint0_linear)"/><path d="M237 268.86s2.73-14.75 8.5-14.89c5.77-.14 1.74 9.73-6.2 14.89H237z" fill="url(#paint1_linear)"/><path style="mix-blend-mode:multiply" d="M233.458 268.86a33.77 33.77 0 00-5.36-20.4" stroke="url(#paint2_linear)" stroke-miterlimit="10"/><path style="mix-blend-mode:multiply" d="M237.918 268.86s5.54-12.67 8.49-13.23" stroke="url(#paint3_linear)" stroke-miterlimit="10"/><path d="M46.219 264.8h6.5s16.66-22.59 4.33-24c-18.46-2.07-10.83 24-10.83 24z" fill="url(#paint4_linear)"/><path d="M46.218 264.8s-2.73-14.8-8.5-14.9c-5.77-.1-1.72 9.74 6.2 14.9h2.3z" fill="url(#paint5_linear)"/><path style="mix-blend-mode:multiply" d="M49.767 264.8a33.823 33.823 0 015.37-20.4" stroke="url(#paint6_linear)" stroke-miterlimit="10"/><path style="mix-blend-mode:multiply" d="M45.308 264.8s-5.54-12.67-8.48-13.23" stroke="url(#paint7_linear)" stroke-miterlimit="10"/><path d="M182.324 98.553l-53.304 22.375 17.749 42.286 53.304-22.375-17.749-42.286z" fill="url(#paint8_linear)"/><path style="mix-blend-mode:multiply" opacity=".3" d="M182.324 98.553l-53.304 22.375 17.749 42.286 53.304-22.375-17.749-42.286z" fill="url(#paint9_linear)"/><path style="mix-blend-mode:multiply" d="M151.879 152.602l-5.047 2.136 2.136 5.047 5.047-2.136-2.136-5.047z" fill="url(#paint10_linear)"/><path style="mix-blend-mode:multiply" d="M156.931 150.462l-3.509 1.485 2.136 5.047 3.508-1.485-2.135-5.047z" fill="url(#paint11_linear)"/><path style="mix-blend-mode:multiply" d="M190.183 129.132l-7.386 3.126 3.126 7.386 7.386-3.126-3.126-7.386z" fill="url(#paint12_linear)"/><path d="M179.45 149.48l-.87-.94.07 1.28-.87-.95.06 1.29-.87-.95.07 1.29-.87-.95.07 1.28-.87-.95.07 1.29-.87-.95.07 1.28-.87-.94.07 1.28-.87-.95.07 1.29-.87-.95.07 1.28-.87-.95.07 1.29-.87-.95.07 1.28-.87-.95.07 1.29-.87-.95.07 1.28-.86-.94.06 1.28-.86-.95.06 1.28-17.78-42.26 12.04-5.06 17.75 42.28z" fill="#95BAB9"/><path d="M154.768 196.944l-87.6-.245-.194 69.49 87.6.245.194-69.49z" fill="url(#paint13_linear)"/><path d="M100.89 247.28l.66.51.67-.5.66.5.66-.5.65.5.67-.5.65.51.66-.5.66.5.66-.5.66.51.65-.5.66.5.65-.5.66.5.66-.5.66.51.66-.5.65.5.66-.5.66.5.65-.5.66.51.66-.5.65.5.66-.5.66.51.65-.5.66.5.66-.5.01 19-19.8-.06.05-19z" fill="#95BAB9"/><path d="M67.188 196.7l8.78-6.56h67.339l11.47 6.81-87.59-.25z" fill="url(#paint14_linear)"/><path style="mix-blend-mode:multiply" d="M80.35 254.43h-8.31v8.31h8.31v-8.31z" fill="url(#paint15_linear)"/><path style="mix-blend-mode:multiply" d="M88.657 254.43h-5.77v8.31h5.77v-8.31z" fill="url(#paint16_linear)"/><path style="mix-blend-mode:multiply" d="M143.83 254.43h-8.31v8.31h8.31v-8.31z" fill="url(#paint17_linear)"/><path d="M104.19 198.88l-3.1-2.08 3.7-6.66h13.33l2.77 6.71-16.7 2.03z" fill="#95BAB9"/><path d="M120.818 221.49l-.66-.65-.67.65-.66-.65-.66.65-.66-.66-.66.65-.65-.65-.67.65-.65-.65-.66.64-.66-.65-.65.65-.66-.65-.66.65-.65-.66-.66.65-.66-.65-.66.65-.65-.65-.66.65-.66-.66-.66.65-.65-.65-.66.65-.66-.65-.65.64-.66-.65-.65.65-.66-.65-.66.65.01-24.64 19.8.05-.07 24.64z" fill="#95BAB9"/><path d="M85.719 91.3l29.78 5.77 63.7 148.42 77.33-33.93" stroke="#245E63" stroke-width="5" stroke-miterlimit="10"/><path d="M225.034 143.153l-74.815 31.664 28.62 67.623 74.815-31.665-28.62-67.622z" fill="url(#paint18_linear)"/><path d="M224.688 223.05l-1.32-1.54.19 2.02-1.32-1.54.2 2.02-1.32-1.55.19 2.03-1.32-1.55.19 2.02-1.31-1.55.19 2.03-1.32-1.55.2 2.02-1.32-1.55.2 2.03-1.32-1.55.19 2.02-1.31-1.55.19 2.03-1.32-1.55.2 2.02-1.32-1.55.19 2.03-1.31-1.55.19 2.02-1.32-1.54.2 2.02-1.32-1.55.2 2.02-1.32-1.55.2 2.03-28.67-67.61 16.91-7.15 28.61 67.62z" fill="#95BAB9"/><path style="mix-blend-mode:multiply" opacity=".26" d="M225.038 143.158l-74.815 31.664 2.634 6.226 74.815-31.665-2.634-6.225z" fill="url(#paint19_linear)"/><path style="mix-blend-mode:multiply" d="M240.43 190.194l-16.66 7.048 8.54 20.188 16.66-7.048-8.54-20.188z" fill="url(#paint20_linear)"/><path style="mix-blend-mode:multiply" d="M186.107 223.237l-9.615 4.068 4.929 11.65 9.615-4.067-4.929-11.651z" fill="url(#paint21_linear)"/><path d="M224.373 130.412l-81.685 34.572 6.696 15.822 81.685-34.573-6.696-15.821z" fill="url(#paint22_linear)"/><path d="M189.098 269.877c13.461-5.471 19.938-20.819 14.466-34.28-5.471-13.461-20.819-19.938-34.28-14.467-13.461 5.472-19.938 20.82-14.467 34.281 5.472 13.461 20.819 19.938 34.281 14.466z" fill="#245E63"/><path d="M192.138 247.615c1.165-7.141-3.68-13.873-10.821-15.037-7.141-1.165-13.873 3.68-15.037 10.821-1.164 7.14 3.681 13.873 10.821 15.037 7.141 1.164 13.873-3.681 15.037-10.821z" fill="#95BAB9"/><path d="M242.617 197c13.757 0 24.91-11.153 24.91-24.91 0-13.758-11.153-24.91-24.91-24.91s-24.91 11.152-24.91 24.91c0 13.757 11.153 24.91 24.91 24.91z" fill="#245E63"/><path d="M230.449 172.08l8.12 8.12 16.22-16.22" stroke="#fff" stroke-width="3" stroke-miterlimit="10"/><path d="M231.907 63.47h-28.4a3.03 3.03 0 00-3.03 3.03v25.35a3.03 3.03 0 003.03 3.03h28.4a3.03 3.03 0 003.03-3.03V66.5a3.03 3.03 0 00-3.03-3.03z" fill="#245E63"/><path d="M217.707 81a11.928 11.928 0 01-11.91-11.88V57.81a11.912 11.912 0 0111.91-11.91 11.911 11.911 0 0111.91 11.91v11.31A11.927 11.927 0 01217.707 81zm0-31.41a8.201 8.201 0 00-8.2 8.19v11.34a8.2 8.2 0 0016.4 0V57.81a8.203 8.203 0 00-8.2-8.19v-.03z" fill="#245E63"/><path d="M222.58 76a4.872 4.872 0 10-9.692.663 4.868 4.868 0 003.222 3.917v6.65a1.612 1.612 0 001.605 1.483 1.608 1.608 0 001.605-1.483v-6.62a4.868 4.868 0 003.26-4.61z" fill="#fff"/><path d="M368.72 53.84h-85.17c-8.262 0-14.96 6.698-14.96 14.96v188.04c0 8.262 6.698 14.96 14.96 14.96h85.17c8.262 0 14.96-6.698 14.96-14.96V68.8c0-8.262-6.698-14.96-14.96-14.96z" fill="#245E63"/><path d="M367.949 59.8h-83.64c-5.495 0-9.95 4.455-9.95 9.95v186.14c0 5.495 4.455 9.95 9.95 9.95h83.64c5.496 0 9.95-4.455 9.95-9.95V69.75c0-5.495-4.454-9.95-9.95-9.95z" fill="#DAE8F1"/><path d="M285.018 70.39h98.62l17.61 45.9h-128.83l12.6-45.9z" fill="#A2D9DD"/><path d="M251.008 116.29h21.41l12.6-45.9h-16.4l-17.61 45.9z" fill="url(#paint23_linear)"/><path d="M293.816 116.29h21.61l2-45.9h-16l-7.61 45.9z" fill="url(#paint24_linear)"/><path d="M250.996 116.29v17.14a10.583 10.583 0 0010.5 10.66 10.582 10.582 0 0010.66-10.5l.25-17.3h-21.41z" fill="url(#paint25_linear)"/><path d="M272.418 133.43a10.579 10.579 0 0010.5 10.66 10.582 10.582 0 0010.66-10.5l.25-17.3h-21.41v17.14zm43.012 0a10.574 10.574 0 003.099 7.471A10.574 10.574 0 00326 144a10.577 10.577 0 0010.58-10.42l.25-17.3h-21.4v17.15zm43.008-17.14v17.14a10.574 10.574 0 003.042 7.505 10.58 10.58 0 0018.118-7.345l.25-17.3h-21.41z" fill="#A2D9DD"/><path d="M401.248 116.29h-21.41l-12.6-45.9h16.4l17.61 45.9z" fill="url(#paint26_linear)"/><path d="M379.84 116.29l.25 17.3a10.58 10.58 0 1021.16-.16v-17.14h-21.41z" fill="url(#paint27_linear)"/><path d="M293.816 116.29v17.14a10.583 10.583 0 0010.58 10.57h.45a10.58 10.58 0 0010.58-10.58v-17.13h-21.61z" fill="url(#paint28_linear)"/><path d="M358.44 116.29h-21.6l-2-45.9h16l7.6 45.9z" fill="url(#paint29_linear)"/><path d="M358.44 116.29v17.14a10.565 10.565 0 01-3.1 7.478 10.567 10.567 0 01-7.48 3.092h-.44a10.558 10.558 0 01-7.484-3.096 10.558 10.558 0 01-3.096-7.484v-17.13h21.6z" fill="url(#paint30_linear)"/><path d="M390.37 228H261.55a2.55 2.55 0 00-2.55 2.55v26.08a2.55 2.55 0 002.55 2.55h128.82a2.55 2.55 0 002.55-2.55v-26.08a2.55 2.55 0 00-2.55-2.55z" fill="url(#paint31_linear)"/><path d="M301.195 249.217c-1.326 0-2.387-.438-3.181-1.314l1.083-1.042c.298.28.6.492.907.636.316.144.668.217 1.056.217.533 0 .943-.127 1.232-.379.298-.262.447-.628.447-1.097 0-.461-.149-.817-.447-1.07-.298-.253-.735-.379-1.313-.379h-.975l.244-1.462h.758c.469 0 .835-.109 1.097-.325.261-.226.392-.537.392-.934 0-.353-.108-.637-.325-.854-.207-.216-.532-.324-.975-.324-.668 0-1.322.261-1.963.785l-.948-1.043c.885-.812 1.937-1.218 3.155-1.218.641 0 1.196.108 1.666.325.469.207.826.496 1.069.866.253.37.379.79.379 1.259 0 .551-.176 1.011-.528 1.381-.343.371-.844.628-1.503.772.713.082 1.278.316 1.693.704.415.389.623.926.623 1.612a2.62 2.62 0 01-.461 1.53c-.307.433-.735.767-1.286 1.002-.551.234-1.182.352-1.896.352zm10.496-2.207c0 .279.04.487.122.622.081.127.216.222.406.285l-.406 1.273c-.425-.037-.772-.136-1.043-.298-.262-.163-.465-.416-.609-.759-.47.723-1.187 1.084-2.153 1.084-.713 0-1.282-.203-1.706-.61-.415-.415-.623-.952-.623-1.611 0-.785.284-1.386.853-1.801.569-.415 1.386-.623 2.451-.623h.826v-.352c0-.442-.1-.749-.298-.92-.199-.172-.528-.258-.989-.258-.505 0-1.137.127-1.895.38l-.434-1.287c.894-.352 1.779-.528 2.654-.528.975 0 1.693.212 2.153.637.461.415.691 1.038.691 1.868v2.898zm-3.155.826c.542 0 .966-.267 1.273-.799v-1.368h-.637c-1.038 0-1.557.388-1.557 1.165 0 .316.077.564.23.744.163.172.393.258.691.258zm11.264-6.012l-1.977 3.331 2.166 3.845h-2.072l-1.665-3.141h-.718V249h-1.922v-7.176h1.922v2.816h.759l1.611-2.816h1.896zm6.422 5.186c0 .279.041.487.122.622.082.127.217.222.406.285l-.406 1.273c-.424-.037-.771-.136-1.042-.298-.262-.163-.465-.416-.61-.759-.469.723-1.187 1.084-2.152 1.084-.714 0-1.282-.203-1.706-.61-.416-.415-.623-.952-.623-1.611 0-.785.284-1.386.853-1.801.568-.415 1.385-.623 2.45-.623h.826v-.352c0-.442-.099-.749-.298-.92-.198-.172-.528-.258-.988-.258-.505 0-1.137.127-1.896.38l-.433-1.287c.894-.352 1.778-.528 2.654-.528.975 0 1.693.212 2.153.637.46.415.69 1.038.69 1.868v2.898zm-3.154.826c.541 0 .965-.267 1.272-.799v-1.368h-.636c-1.038 0-1.557.388-1.557 1.165 0 .316.077.564.23.744.163.172.393.258.691.258zm7.242-6.229c.776 0 1.426.181 1.95.542.532.352.798.83.798 1.435 0 .406-.126.74-.379 1.002-.252.262-.641.456-1.164.582.641.099 1.119.289 1.435.569.316.271.474.663.474 1.178 0 .749-.302 1.322-.907 1.719-.596.389-1.381.583-2.356.583-1.147 0-2.108-.294-2.884-.88l.921-1.084c.325.208.627.357.907.447.289.081.618.122.988.122.885 0 1.327-.329 1.327-.988 0-.316-.122-.542-.365-.677-.235-.145-.578-.217-1.03-.217h-1.083l.122-1.286h.813c.388 0 .69-.073.907-.217.216-.153.325-.379.325-.677 0-.271-.1-.469-.298-.596-.19-.135-.447-.203-.772-.203s-.614.045-.867.136a3.529 3.529 0 00-.771.379l-.894-1.043a4.39 4.39 0 011.273-.623 5.332 5.332 0 011.53-.203zm9.928 5.403c0 .279.041.487.122.622.082.127.217.222.407.285l-.407 1.273c-.424-.037-.771-.136-1.042-.298-.262-.163-.465-.416-.61-.759-.469.723-1.187 1.084-2.152 1.084-.714 0-1.282-.203-1.706-.61-.416-.415-.623-.952-.623-1.611 0-.785.284-1.386.853-1.801.568-.415 1.385-.623 2.45-.623h.826v-.352c0-.442-.099-.749-.297-.92-.199-.172-.529-.258-.989-.258-.505 0-1.137.127-1.896.38l-.433-1.287c.894-.352 1.778-.528 2.654-.528.975 0 1.693.212 2.153.637.46.415.69 1.038.69 1.868v2.898zm-3.154.826c.541 0 .965-.267 1.272-.799v-1.368h-.636c-1.038 0-1.557.388-1.557 1.165 0 .316.077.564.23.744.163.172.393.258.691.258zm10.254-6.012l-.244 1.449h-2.031V249h-1.922v-5.727h-2.153v-1.449h6.35zm3.409 2.247c1.138 0 1.968.213 2.492.637.532.415.799 1.024.799 1.828 0 .803-.28 1.417-.84 1.841-.55.415-1.268.623-2.153.623h-2.83v-7.176h1.923v2.247h.609zm.109 3.629c.803 0 1.205-.397 1.205-1.191 0-.398-.1-.691-.298-.88-.199-.19-.542-.285-1.029-.285h-.596v2.356h.718z" fill="#245E63"/><path opacity=".41" d="M289.358 226.96c7.334 0 13.28-5.945 13.28-13.28 0-7.334-5.946-13.28-13.28-13.28s-13.28 5.946-13.28 13.28c0 7.335 5.946 13.28 13.28 13.28zm76.241-21.439h-59.97v2.819h59.97v-2.819zm8.39 6.75h-68.36v2.819h68.36v-2.819zm-28.11 6.75h-40.25v2.819h40.25v-2.819z" fill="#51BCC3"/><path opacity=".4" d="M353.657 63.65h-55.05a1.33 1.33 0 00-1.33 1.33v.11c0 .735.596 1.33 1.33 1.33h55.05a1.33 1.33 0 001.33-1.33v-.11a1.33 1.33 0 00-1.33-1.33zm0 197.7h-55.05a1.33 1.33 0 00-1.33 1.33v.11c0 .734.596 1.33 1.33 1.33h55.05a1.33 1.33 0 001.33-1.33v-.11a1.33 1.33 0 00-1.33-1.33z" fill="#51BCC3"/><path opacity=".19" d="M369.938 145.77h-87.62a3.58 3.58 0 00-3.58 3.58v43.74a3.58 3.58 0 003.58 3.58h87.62a3.58 3.58 0 003.58-3.58v-43.74a3.58 3.58 0 00-3.58-3.58z" fill="#51BCC3"/><path d="M338.493 172.518c4.991-4.991 4.991-13.082 0-18.073s-13.082-4.991-18.073 0-4.991 13.082 0 18.073 13.082 4.991 18.073 0z" fill="url(#paint32_linear)"/><path d="M302.938 157h6.639l7.2 26.96h25.881l4.54-19.23-35.32-.08m12.962 24.68a3 3 0 11-6.002-.001 3 3 0 016.002.001v0zm13.789 0a3 3 0 11-6.002-.001 3 3 0 016.002.001z" stroke="#245E63" stroke-width="2" stroke-linecap="round" stroke-linejoin="round"/><path d="M322.738 164.72l2.1 19.24m9.961-18.36l-.85 17.86m-20.492-12.58h31.98m-30.187 6.59h28.96" stroke="#245E63" stroke-width="2" stroke-miterlimit="10"/><path d="M333.922 166.381v1.999h-9.376v-1.581l5.051-4.797c.57-.545.951-1.017 1.145-1.417.206-.412.309-.818.309-1.217 0-.594-.2-1.048-.6-1.363-.399-.315-.987-.473-1.762-.473-1.296 0-2.29.443-2.98 1.327l-1.653-1.272c.496-.666 1.162-1.181 1.998-1.545.848-.375 1.793-.563 2.835-.563 1.381 0 2.483.327 3.307.981.823.654 1.235 1.545 1.235 2.671 0 .691-.145 1.339-.436 1.945-.291.605-.848 1.296-1.671 2.071l-3.398 3.234h5.996z" fill="#363664"/><path d="M333.922 166.381h1v-1h-1v1zm0 1.999v1h1v-1h-1zm-9.376 0h-1v1h1v-1zm0-1.581l-.689-.725-.311.296v.429h1zm5.051-4.797l.689.725.003-.002-.692-.723zm1.145-1.417l-.894-.447-.006.011.9.436zm-.291-2.58l.619-.786-.619.786zm-4.742.854l-.61.792.787.606.611-.783-.788-.615zm-1.653-1.272l-.802-.598-.589.79.781.601.61-.793zm1.998-1.545l.399.918.006-.003-.405-.915zm6.142.418l-.622.783.622-.783zm.799 4.616l-.901-.433.901.433zm-1.671 2.071l-.686-.728-.004.004.69.724zm-3.398 3.234l-.69-.724-1.811 1.724h2.501v-1zm4.996 0v1.999h2v-1.999h-2zm1 .999h-9.376v2h9.376v-2zm-8.376 1v-1.581h-2v1.581h2zm-.311-.856l5.051-4.797-1.377-1.45-5.052 4.797 1.378 1.45zm5.054-4.799c.599-.574 1.082-1.145 1.353-1.704l-1.8-.872c-.116.24-.397.615-.936 1.131l1.383 1.445zm1.348-1.693a3.71 3.71 0 00.414-1.664h-2c0 .222-.056.476-.203.77l1.789.894zm.414-1.664c0-.843-.299-1.611-.981-2.149l-1.238 1.571c.118.093.219.233.219.578h2zm-.981-2.149c-.647-.51-1.493-.687-2.381-.687v2c.662 0 .991.138 1.143.258l1.238-1.571zm-2.381-.687c-1.55 0-2.857.545-3.768 1.711l1.576 1.231c.47-.602 1.15-.942 2.192-.942v-2zm-2.37 1.534l-1.654-1.272-1.219 1.586 1.653 1.271 1.22-1.585zm-1.462.119c.383-.514.904-.925 1.596-1.225l-.798-1.835c-.979.426-1.79 1.045-2.401 1.864l1.603 1.196zm1.602-1.228c.706-.313 1.51-.478 2.43-.478v-2c-1.164 0-2.249.211-3.24.649l.81 1.829zm2.43-.478c1.226 0 2.087.289 2.685.764l1.244-1.566c-1.05-.833-2.394-1.198-3.929-1.198v2zm2.685.764c.566.45.857 1.042.857 1.888h2c0-1.406-.532-2.595-1.613-3.454l-1.244 1.566zm.857 1.888c0 .545-.113 1.045-.337 1.512l1.803.865a5.438 5.438 0 00.534-2.377h-2zm-.337 1.512c-.214.444-.669 1.035-1.456 1.776l1.371 1.456c.86-.81 1.519-1.6 1.888-2.367l-1.803-.865zm-1.46 1.78l-3.398 3.234 1.379 1.449 3.398-3.235-1.379-1.448zm-2.708 4.958h5.996v-2h-5.996v2z" fill="#245E63"/><path d="M264.15 28a17.132 17.132 0 0017.13 17.13 17.132 17.132 0 00-17.13 17.13A17.132 17.132 0 00247 45.13a17.135 17.135 0 0012.126-5.01A17.14 17.14 0 00264.15 28z" fill="url(#paint33_linear)"/><path d="M251.098 61a9 9 0 009 8.95 9.002 9.002 0 00-9 9 9 9 0 00-8.95-9 8.94 8.94 0 008.95-8.95z" fill="url(#paint34_linear)"/></g><defs><linearGradient id="paint0_linear" x1="221.637" y1="256.81" x2="238.577" y2="256.81" gradientUnits="userSpaceOnUse"><stop stop-color="#FFC000"/><stop offset="1" stop-color="#FF9C00"/></linearGradient><linearGradient id="paint1_linear" x1="2504.08" y1="3729.79" x2="2630.11" y2="3729.79" gradientUnits="userSpaceOnUse"><stop stop-color="#FFC000"/><stop offset="1" stop-color="#FF9C00"/></linearGradient><linearGradient id="paint2_linear" x1="227.678" y1="258.56" x2="234.048" y2="258.56" gradientUnits="userSpaceOnUse"><stop stop-color="#FBD842"/><stop offset="1" stop-color="#E39E03"/></linearGradient><linearGradient id="paint3_linear" x1="1956.8" y1="3352.77" x2="2033.55" y2="3352.77" gradientUnits="userSpaceOnUse"><stop stop-color="#FBD842"/><stop offset="1" stop-color="#E39E03"/></linearGradient><linearGradient id="paint4_linear" x1="-12987.2" y1="5660.99" x2="-13274.2" y2="5660.99" gradientUnits="userSpaceOnUse"><stop stop-color="#FFC000"/><stop offset="1" stop-color="#FF9C00"/></linearGradient><linearGradient id="paint5_linear" x1="-8470.43" y1="3667.39" x2="-8596.41" y2="3667.39" gradientUnits="userSpaceOnUse"><stop stop-color="#FFC000"/><stop offset="1" stop-color="#FF9C00"/></linearGradient><linearGradient id="paint6_linear" x1="-3610.42" y1="4864.8" x2="-3645.02" y2="4864.8" gradientUnits="userSpaceOnUse"><stop stop-color="#FBD842"/><stop offset="1" stop-color="#E39E03"/></linearGradient><linearGradient id="paint7_linear" x1="-6193.77" y1="3295" x2="-6270.43" y2="3295" gradientUnits="userSpaceOnUse"><stop stop-color="#FBD842"/><stop offset="1" stop-color="#E39E03"/></linearGradient><linearGradient id="paint8_linear" x1="-5856.14" y1="-6465.56" x2="-2618.79" y2="-4660.33" gradientUnits="userSpaceOnUse"><stop stop-color="#FFC000"/><stop offset="1" stop-color="#FF9C00"/></linearGradient><linearGradient id="paint9_linear" x1="-5856.14" y1="-6465.56" x2="-2618.79" y2="-4660.33" gradientUnits="userSpaceOnUse"><stop stop-color="#FFC000"/><stop offset="1" stop-color="#FF9C00"/></linearGradient><linearGradient id="paint10_linear" x1="-10.4" y1="-171.87" x2="28.839" y2="-172.233" gradientUnits="userSpaceOnUse"><stop stop-color="#FBD842"/><stop offset="1" stop-color="#E39E03"/></linearGradient><linearGradient id="paint11_linear" x1="64.6" y1="-204.512" x2="86.677" y2="-207.201" gradientUnits="userSpaceOnUse"><stop stop-color="#FBD842"/><stop offset="1" stop-color="#E39E03"/></linearGradient><linearGradient id="paint12_linear" x1="126.969" y1="-608.663" x2="210.936" y2="-609.453" gradientUnits="userSpaceOnUse"><stop stop-color="#FBD842"/><stop offset="1" stop-color="#E39E03"/></linearGradient><linearGradient id="paint13_linear" x1="1128" y1="9114.71" x2="6359.12" y2="15829" gradientUnits="userSpaceOnUse"><stop stop-color="#FFC000"/><stop offset="1" stop-color="#FF9C00"/></linearGradient><linearGradient id="paint14_linear" x1="6740.67" y1="1284.3" x2="6740.58" y2="1331.52" gradientUnits="userSpaceOnUse"><stop stop-color="#FFC000"/><stop offset="1" stop-color="#FF9C00"/></linearGradient><linearGradient id="paint15_linear" x1="372.695" y1="2153.35" x2="456.044" y2="2187.75" gradientUnits="userSpaceOnUse"><stop stop-color="#FBD842"/><stop offset="1" stop-color="#E39E03"/></linearGradient><linearGradient id="paint16_linear" x1="353.211" y1="2157.09" x2="402.252" y2="2171.13" gradientUnits="userSpaceOnUse"><stop stop-color="#FBD842"/><stop offset="1" stop-color="#E39E03"/></linearGradient><linearGradient id="paint17_linear" x1="963.695" y1="2153.35" x2="1047.04" y2="2187.75" gradientUnits="userSpaceOnUse"><stop stop-color="#FBD842"/><stop offset="1" stop-color="#E39E03"/></linearGradient><linearGradient id="paint18_linear" x1="-1629.73" y1="-3081.25" x2="5680.68" y2="851.378" gradientUnits="userSpaceOnUse"><stop stop-color="#FFC000"/><stop offset="1" stop-color="#FF9C00"/></linearGradient><linearGradient id="paint19_linear" x1="200.498" y1="1286.68" x2="234.997" y2="1366.73" gradientUnits="userSpaceOnUse"><stop stop-color="#FBD842"/><stop offset="1" stop-color="#E39E03"/></linearGradient><linearGradient id="paint20_linear" x1="3695.37" y1="3837.03" x2="4110.5" y2="4174.84" gradientUnits="userSpaceOnUse"><stop stop-color="#FBD842"/><stop offset="1" stop-color="#E39E03"/></linearGradient><linearGradient id="paint21_linear" x1="1673.46" y1="2724.02" x2="1811.72" y2="2836.59" gradientUnits="userSpaceOnUse"><stop stop-color="#FBD842"/><stop offset="1" stop-color="#E39E03"/></linearGradient><linearGradient id="paint22_linear" x1="9741.63" y1="2374.93" x2="14319.1" y2="1257.38" gradientUnits="userSpaceOnUse"><stop stop-color="#FFC000"/><stop offset="1" stop-color="#FF9C00"/></linearGradient><linearGradient id="paint23_linear" x1="8416.81" y1="1981.67" x2="7647.17" y2="3969.84" gradientUnits="userSpaceOnUse"><stop stop-color="#FFC000"/><stop offset="1" stop-color="#FF9C00"/></linearGradient><linearGradient id="paint24_linear" x1="6683.39" y1="1988.55" x2="6683.39" y2="4029.26" gradientUnits="userSpaceOnUse"><stop stop-color="#FFC000"/><stop offset="1" stop-color="#FF9C00"/></linearGradient><linearGradient id="paint25_linear" x1="5105.14" y1="2557.16" x2="5105.14" y2="3224.64" gradientUnits="userSpaceOnUse"><stop stop-color="#FFC000"/><stop offset="1" stop-color="#FF9C00"/></linearGradient><linearGradient id="paint26_linear" x1="12051" y1="2157.92" x2="12753" y2="4011.79" gradientUnits="userSpaceOnUse"><stop stop-color="#FFC000"/><stop offset="1" stop-color="#FF9C00"/></linearGradient><linearGradient id="paint27_linear" x1="7992.27" y1="2579.4" x2="7992.27" y2="3202.68" gradientUnits="userSpaceOnUse"><stop stop-color="#FFC000"/><stop offset="1" stop-color="#FF9C00"/></linearGradient><linearGradient id="paint28_linear" x1="6120.52" y1="2571.4" x2="6120.52" y2="3076.27" gradientUnits="userSpaceOnUse"><stop stop-color="#FFC000"/><stop offset="1" stop-color="#FF9C00"/></linearGradient><linearGradient id="paint29_linear" x1="7632.2" y1="1988.09" x2="7922.42" y2="4010.26" gradientUnits="userSpaceOnUse"><stop stop-color="#FFC000"/><stop offset="1" stop-color="#FF9C00"/></linearGradient><linearGradient id="paint30_linear" x1="7089.87" y1="2574.17" x2="7089.87" y2="3298.51" gradientUnits="userSpaceOnUse"><stop stop-color="#FFC000"/><stop offset="1" stop-color="#FF9C00"/></linearGradient><linearGradient id="paint31_linear" x1="30468.7" y1="6161.87" x2="35183.6" y2="13867.7" gradientUnits="userSpaceOnUse"><stop stop-color="#FFC000"/><stop offset="1" stop-color="#FF9C00"/></linearGradient><linearGradient id="paint32_linear" x1="7516.16" y1="3613.57" x2="8169.47" y2="3613.57" gradientUnits="userSpaceOnUse"><stop stop-color="#FFC000"/><stop offset="1" stop-color="#FF9C00"/></linearGradient><linearGradient id="paint33_linear" x1="-28878.7" y1="614.874" x2="-30053.4" y2="614.874" gradientUnits="userSpaceOnUse"><stop stop-color="#FFC000"/><stop offset="1" stop-color="#FF9C00"/></linearGradient><linearGradient id="paint34_linear" x1="-15050.6" y1="813.823" x2="-15371.9" y2="813.823" gradientUnits="userSpaceOnUse"><stop stop-color="#FFC000"/><stop offset="1" stop-color="#FF9C00"/></linearGradient><clipPath id="clip0"><path fill="#fff" transform="translate(35 28)" d="M0 0h366.25v243.8H0z"/></clipPath></defs></svg>