<svg width="110" height="113" viewBox="0 0 110 113" fill="none" xmlns="http://www.w3.org/2000/svg"><g opacity=".4" clip-path="url(#clip0)" fill="#51BCC3"><path d="M79.611 23.193L20.152 40.892c-3.201.947-4.928 4.548-3.878 8.032L25.28 78.49c1.062 3.495 4.518 5.542 7.72 4.594l59.459-17.699c3.201-.947 4.928-4.548 3.878-8.031l-9.017-29.58c-1.05-3.483-4.517-5.542-7.708-4.582z"/><path d="M90.245 37.416l-2.728-8.967-71.061 21.147 2.729 8.967 71.06-21.147zM74.824 66.462l15.673-4.649-2.643-8.713-15.673 4.649 2.643 8.713z"/></g><g clip-path="url(#clip1)"><path d="M76.611 29.193L17.152 46.892c-3.201.947-4.928 4.548-3.878 8.032L22.28 84.49c1.062 3.495 4.518 5.542 7.72 4.594l59.459-17.699c3.201-.947 4.928-4.548 3.878-8.031l-9.017-29.58c-1.05-3.483-4.517-5.542-7.708-4.582z" fill="#DAE8F1"/><path d="M87.245 43.416l-2.728-8.967-71.061 21.147 2.729 8.967 71.06-21.147z" fill="#245E63"/><path d="M71.824 72.462l15.673-4.648-2.643-8.714-15.673 4.649 2.643 8.713z" fill="#EFBC59"/></g><defs><clipPath id="clip0"><path fill="#fff" transform="rotate(136.007 44.752 46.99)" d="M0 0h81.44v69.1H0z"/></clipPath><clipPath id="clip1"><path fill="#fff" transform="rotate(136.007 42.04 49.384)" d="M0 0h81.44v69.1H0z"/></clipPath></defs></svg>