<svg width="166" height="113" viewBox="0 0 166 113" fill="none" xmlns="http://www.w3.org/2000/svg"><mask id="a" maskUnits="userSpaceOnUse" x="0" y="0" width="166" height="113"><rect width="166" height="113" rx="10" fill="#A2D9DD"/></mask><g mask="url(#a)"><path d="M114.706 112.926c-32.475-17.26-67.75-27.879-103.962-31.31 1.348-15.788 2.682-31.575 4.03-47.363 41.87 3.962 82.654 16.244 120.2 36.2-6.756 14.153-13.512 28.306-20.268 42.473z" fill="#7CB4B8"/><path d="M13.939 72.957c.908-9.853 1.832-19.69 2.74-29.543 3.81.398 7.21-2.077 7.636-5.611 34.908 4.403 68.922 14.653 100.782 30.353-1.422 3.24.249 7.23 3.678 9.013-4.147 8.88-8.294 17.746-12.442 26.627-3.151-1.649-6.888-.28-8.309 2.945-27.977-13.784-57.858-22.783-88.502-26.656.41-3.535-2.08-6.76-5.583-7.128z" fill="#D6EFF1"/><path d="M88.87 74.576c-2.931 8.469-11.96 12.784-20.327 10.206-8.368-2.606-13.746-11.384-11.856-20.19 1.876-8.778 11.168-14.036 20.576-11.12 9.423 2.93 14.538 12.65 11.607 21.104z" fill="#50BFA5"/><path d="M68.47 81.807c.234-.942.469-1.885.703-2.842-1.26-.413-2.462-.987-3.414-1.606-.792-.515-1.085-1.546-.66-2.37.015-.03.03-.074.059-.104.469-.913 1.641-1.208 2.52-.618.895.589 1.95 1.119 3.122 1.458 1.715.486 3.048.176 3.356-1.016.293-1.135-.484-2.136-2.55-3.506-2.99-1.988-4.895-4.064-4.235-6.966.6-2.636 3.019-4.212 6.55-3.902.235-.943.47-1.9.69-2.843 1.04.295 2.08.59 3.106.884-.22.869-.44 1.752-.66 2.621 1.13.383 2.038.81 2.77 1.237.895.53 1.217 1.635.719 2.475-.513.868-1.671 1.104-2.565.544a9.897 9.897 0 00-2.638-1.163c-2.022-.574-2.887.088-3.092.913-.235.987.703 1.915 3.063 3.623 3.341 2.312 4.338 4.418 3.605 7.084-.733 2.636-3.224 4.3-6.77 3.903a307.828 307.828 0 00-.777 3.034c-.968-.31-1.935-.575-2.902-.84z" fill="#3C8F7C"/><path d="M51.72 64.267a295.104 295.104 0 00-25.046-4.683c.19-1.517.396-3.034.586-4.55 8.53 1.222 17 2.797 25.397 4.756-.308 1.488-.615 2.99-.938 4.477zm64.54 23.034a305.125 305.125 0 00-23.492-10.338c.498-1.444 1.011-2.872 1.51-4.316a307.42 307.42 0 0123.814 10.472 368.77 368.77 0 01-1.832 4.182z" fill="#50BFA5"/><path d="M129.875 58.73c-33.502 7.025-65.406 21.119-94.027 41.546a94854.987 94854.987 0 00-23.213-40.235C45.74 36.433 82.627 20.13 121.36 12c2.843 15.581 5.671 31.148 8.515 46.73z" fill="#7CB4B8"/><path d="M33.415 91.351c-4.762-8.409-9.525-16.833-14.303-25.242 3.034-2.121 4.177-6.26 2.535-9.337 28.197-18.807 58.972-32.4 91.154-40.28.748 3.476 4.177 5.597 7.694 4.816 1.847 9.705 3.679 19.41 5.525 29.116-3.238.707-5.246 4.183-4.499 7.658-28.27 6.922-55.278 18.851-80.045 35.375-1.656-3.078-5.276-4.064-8.06-2.106z" fill="#D6EFF1"/><path d="M89.632 44.754c2.52 8.601-1.759 17.806-9.365 21.105-7.62 3.27-16.443-.265-19.901-8.469-3.473-8.173.483-18.291 9.042-21.987 8.558-3.712 17.703.75 20.224 9.351z" fill="#7CB4B8"/><path d="M78.553 63.516c-.352-.898-.704-1.796-1.055-2.71-1.158.472-2.36.781-3.4.899-.865.103-1.656-.53-1.803-1.473 0-.044-.015-.074-.015-.118-.146-1.03.543-2.003 1.525-2.106a9.696 9.696 0 003.106-.84c1.524-.706 2.345-1.81 1.92-2.96-.41-1.09-1.539-1.384-3.825-1.163-3.312.339-5.862-.088-6.976-2.827-1.01-2.475-.102-5.288 2.682-7.29l-1.055-2.695c.923-.428 1.861-.87 2.785-1.282.322.84.644 1.68.952 2.518 1.04-.427 1.95-.662 2.726-.78.953-.147 1.802.53 1.89 1.502.103 1.016-.615 1.944-1.597 2.077a9.461 9.461 0 00-2.594.75c-1.817.84-2.08 1.915-1.773 2.71.366.943 1.568 1.076 4.264.914 3.737-.295 5.643.736 6.566 3.328.923 2.563 0 5.479-2.843 7.438l1.099 2.916c-.85.397-1.715.795-2.58 1.192z" fill="#D6EFF1"/><path d="M56.512 60.292a280.471 280.471 0 00-21.074 12.282c-.69-1.325-1.393-2.665-2.081-3.99a278.38 278.38 0 0121.367-12.46 507.497 507.497 0 001.788 4.168z" fill="#50BFA5"/><path d="M116.876 37.36a263.303 263.303 0 00-23.053 6.805c-.425-1.458-.85-2.93-1.275-4.389a270.627 270.627 0 0123.375-6.892c.322 1.487.63 2.975.953 4.477z" fill="#7CB4B8"/><path d="M135.224 88.155c-34.85-2.12-69.744 3.02-102.85 15.155-4.557-15.037-9.115-30.088-13.672-45.125 38.279-14.02 78.624-19.97 118.91-17.51-.791 15.817-1.597 31.648-2.388 47.48z" fill="#7CB4B8"/><path d="M32.038 94.016c-2.77-9.41-5.555-18.822-8.324-28.232 3.488-1.252 5.598-4.949 4.675-8.366 32.314-10.677 65.976-15.64 99.698-14.683-.074 3.564 2.843 6.525 6.506 6.716l-1.275 29.646c-3.37-.177-6.169 2.651-6.228 6.2-29.618-.84-59.177 3.52-87.549 12.901-.923-3.416-4.294-5.33-7.503-4.182z" fill="#D6EFF1"/><path d="M98.557 63.9c.498 8.997-5.877 16.759-14.172 17.922-8.31 1.134-16.238-4.639-17.776-13.505-1.539-8.836 4.719-17.584 14.069-18.865 9.35-1.296 17.38 5.463 17.879 14.447z" fill="#7CB4B8"/><path d="M83.242 79.127c-.132-.972-.278-1.929-.41-2.901-1.26.147-2.52.133-3.59-.03-.895-.132-1.525-.957-1.437-1.9 0-.043 0-.073.015-.117.088-1.031 1.011-1.797 1.993-1.635 1.011.162 2.125.206 3.283.015 1.685-.28 2.74-1.134 2.579-2.356-.147-1.164-1.202-1.753-3.532-2.136-3.356-.56-5.789-1.65-6.272-4.595-.44-2.666 1.128-5.14 4.338-6.347-.147-.972-.279-1.93-.425-2.902a221.07 221.07 0 013.063-.5c.117.898.249 1.796.366 2.68a12.72 12.72 0 012.887-.03c.982.104 1.656.987 1.539 1.96a1.857 1.857 0 01-2.067 1.59 9.097 9.097 0 00-2.74.044c-1.993.324-2.506 1.296-2.389 2.15.147 1.002 1.304 1.458 4.016 2.018 3.78.721 5.422 2.224 5.744 4.978.323 2.724-1.275 5.302-4.543 6.436.132 1.03.279 2.076.41 3.107-.952.147-1.89.31-2.828.471z" fill="#D6EFF1"/><path d="M62.124 70.114a278.919 278.919 0 00-23.74 6.274L37.24 71.97a277.44 277.44 0 0124.078-6.363c.264 1.503.543 3.005.806 4.507zm65.157-6.097a270.355 270.355 0 00-24.43.441c-.074-1.531-.162-3.063-.235-4.594a277.735 277.735 0 0124.767-.442c-.029 1.531-.073 3.063-.102 4.595z" fill="#50BFA5"/><path d="M153 59.304H9v63.695h144V59.304z" fill="#EFBC59"/><path d="M145.394 62.441H14.305v4.949h131.089v-4.95zM77.102 75.564H15.976v1.634h61.126v-1.634z" fill="#F4A528"/></g></svg>