<svg width="320" height="37" viewBox="0 0 320 37" fill="none" xmlns="http://www.w3.org/2000/svg"><rect width="320" height="37" rx="5" fill="#EFBC59"/><mask id="a" maskUnits="userSpaceOnUse" x="254" y="0" width="66" height="37"><rect x="254" width="66" height="37" rx="5" fill="#EFBC59"/></mask><g mask="url(#a)"><circle cx="298" cy="14" r="38" fill="#EEB340"/></g><mask id="b" maskUnits="userSpaceOnUse" x="0" y="0" width="62" height="37"><rect width="62" height="37" rx="5" fill="#EFBC59"/></mask><g mask="url(#b)"><circle cx="20.5" cy="-8.5" r="39.5" fill="#EEB340"/></g><g filter="url(#filter0_d)"><path d="M109.397 24a486.006 486.006 0 011.508-2.691l1.3-2.308v.449l-1.144-1.911-.806-1.333c-.269-.45-.562-.942-.878-1.475h2.074l.637 1.118c.208.364.405.713.591 1.046l.728 1.274h.143l.702-1.287.572-1.046c.199-.364.399-.732.598-1.105h2.009c-.282.507-.555.99-.819 1.45l-.722 1.26-1.241 2.178v-.5l1.274 2.027A6097.217 6097.217 0 00117.717 24h-2.145a2060.303 2060.303 0 01-1.183-2.002l-.891-1.515h-.149l-.832 1.521-.533.962c-.174.321-.362.666-.566 1.034h-2.021zm12.085.163c-.572 0-1.07-.091-1.495-.273a2.986 2.986 0 01-1.059-.761 3.191 3.191 0 01-.631-1.099 4.043 4.043 0 01-.208-1.293c0-.646.13-1.222.39-1.729a2.92 2.92 0 011.138-1.209c.503-.295 1.114-.442 1.833-.442.555 0 1.04.087 1.456.26.42.169.771.407 1.053.715.286.308.5.667.643 1.079.143.407.215.85.215 1.326 0 .65-.132 1.233-.397 1.748-.26.516-.639.926-1.137 1.229-.498.299-1.099.449-1.801.449zm-.006-1.366c.373 0 .68-.097.923-.292.247-.2.431-.455.552-.767.122-.312.182-.646.182-1.001 0-.416-.069-.773-.208-1.072a1.536 1.536 0 00-.578-.696 1.565 1.565 0 00-.878-.247c-.368 0-.68.091-.936.273a1.667 1.667 0 00-.572.721 2.656 2.656 0 00-.188 1.021c0 .355.063.689.188 1.001.126.312.315.568.566.767.256.195.572.293.949.293zM129.96 24v-2.418a4.28 4.28 0 01-.494.188 4.78 4.78 0 01-.559.13 4.19 4.19 0 01-.637.046c-.476 0-.892-.074-1.248-.221a1.753 1.753 0 01-.819-.676c-.19-.303-.286-.687-.286-1.15v-2.373l1.632-.052v2.119c0 .416.097.706.292.871.195.165.51.247.943.247.126 0 .256-.009.39-.026.139-.022.275-.054.409-.098.139-.047.265-.106.377-.175v-2.886h1.632V24h-1.632zm4.036 2.548c.177-.438.355-.882.533-1.332l.533-1.326v.331c-.156-.446-.317-.895-.481-1.346-.161-.454-.319-.899-.475-1.332l-.416-1.17c-.165-.464-.336-.938-.513-1.424l-.507-1.423 1.781-.052c.143.498.281.986.416 1.462.138.477.279.967.422 1.47l.527 1.859h.149l.579-1.86.448-1.436c.147-.477.297-.958.449-1.443h1.761l-.39 1.008-.416 1.072-.546 1.397-.708 1.82-.819 2.1c-.221.58-.425 1.105-.611 1.573l-1.716.052zm12.993-2.808v-5.954l.695 1.04h-3.36l.741-1.04c-.013.273-.028.542-.046.806a270.696 270.696 0 00-.078 1.723c-.017.36-.056.7-.117 1.02-.056.32-.136.617-.24.89-.1.273-.223.516-.371.728l-1.573-.194c.113-.1.228-.252.345-.456.121-.207.227-.494.318-.858.096-.364.159-.827.189-1.39.03-.494.056-.94.078-1.34.026-.398.05-.795.071-1.189h4.973v6.214h-1.625zm-4.953 2.022V22.7h7.553v3.062h-1.424l-.065-1.963.28.201h-5.142l.293-.201-.072 1.963h-1.423zM150.629 24v-6.474l1.592-.046v4.265h.104l1.073-1.84c.238-.399.472-.797.702-1.196.234-.403.463-.797.689-1.183h1.696V24h-1.579v-4.225h-.117l-1.053 1.814c-.234.407-.468.812-.702 1.215-.234.403-.468.802-.702 1.196h-1.703zm10.609.137c-.724 0-1.339-.146-1.846-.436a2.951 2.951 0 01-1.151-1.203c-.26-.507-.39-1.083-.39-1.729 0-.65.124-1.23.371-1.741a2.827 2.827 0 011.092-1.216c.485-.299 1.085-.449 1.8-.449.256 0 .509.02.761.059.251.039.487.095.708.169.225.07.425.152.598.247l-.13 1.443a4.446 4.446 0 00-.682-.319 2.989 2.989 0 00-1.034-.188c-.546 0-.984.175-1.313.526-.325.351-.487.826-.487 1.424 0 .394.078.745.234 1.053.156.303.385.544.689.721.307.174.689.26 1.144.26a2.868 2.868 0 001.007-.181c.165-.066.323-.148.475-.248l.097 1.444a3.459 3.459 0 01-.513.188 4.746 4.746 0 01-.644.123 5.47 5.47 0 01-.786.053zm3.279-.137v-6.474l1.651-.052V24h-1.651zm4.193 0a42.573 42.573 0 00-.676-.826c-.226-.277-.453-.55-.683-.819l-.858-1.04h-.474v-1.117h.52l.741-.943c.229-.286.457-.574.682-.864l.683-.865h1.943l-.988 1.157-.981 1.15-.975 1.138-.072-.747 1.177 1.436c.338.39.674.782 1.007 1.177L170.764 24h-2.054zm5.813.163c-.572 0-1.07-.091-1.495-.273a2.986 2.986 0 01-1.059-.761 3.191 3.191 0 01-.631-1.099 4.043 4.043 0 01-.208-1.293c0-.646.13-1.222.39-1.729a2.92 2.92 0 011.138-1.209c.503-.295 1.114-.442 1.833-.442.555 0 1.04.087 1.456.26.42.169.771.407 1.053.715.286.308.5.667.643 1.079.143.407.215.85.215 1.326 0 .65-.132 1.233-.397 1.748-.26.516-.639.926-1.137 1.229-.498.299-1.099.449-1.801.449zm-.006-1.366c.373 0 .68-.097.923-.292.247-.2.431-.455.552-.767.122-.312.182-.646.182-1.001 0-.416-.069-.773-.208-1.072a1.536 1.536 0 00-.578-.696 1.565 1.565 0 00-.878-.247c-.368 0-.68.091-.936.273a1.667 1.667 0 00-.572.721 2.656 2.656 0 00-.188 1.021c0 .355.063.689.188 1.001.126.312.315.568.566.767.256.195.572.293.949.293zM179.218 24v-6.474l1.632-.052V24h-1.632zm.988-2.607V20.1h3.861v1.293h-3.861zM183.385 24v-6.474h1.631V24h-1.631zm4.754 0v-6.214l.526 1.046h-2.554v-1.306h5.7v1.306h-2.548l.527-1.046V24h-1.651zm4.765 0v-6.474l1.631-.052V24h-1.631zm.988-2.607V20.1h3.861v1.293h-3.861zM197.07 24v-6.474h1.632V24h-1.632zm4.033 2.548c.178-.438.355-.882.533-1.332l.533-1.326v.331a97.314 97.314 0 00-.481-1.346c-.16-.454-.319-.899-.475-1.332l-.416-1.17a130.49 130.49 0 00-.513-1.424c-.173-.49-.342-.964-.507-1.423l1.781-.052c.143.498.282.986.416 1.462.139.477.279.967.422 1.47l.527 1.859h.149l.579-1.86.448-1.436c.148-.477.297-.958.449-1.443h1.761a1042.69 1042.69 0 01-1.352 3.477l-.708 1.82-.819 2.1c-.221.58-.425 1.105-.611 1.573l-1.716.052zm12.442-2.385c-.559 0-1.046-.091-1.462-.273a2.88 2.88 0 01-1.034-.761 3.291 3.291 0 01-.617-1.099 4.124 4.124 0 01-.202-1.293c0-.646.126-1.222.377-1.729a2.894 2.894 0 011.118-1.209c.49-.295 1.086-.442 1.788-.442.55 0 1.033.087 1.449.26.42.169.771.407 1.053.715.282.308.494.667.637 1.079.143.407.215.85.215 1.326 0 .65-.133 1.233-.397 1.748-.26.516-.639.926-1.137 1.229-.494.299-1.09.449-1.788.449zM207.377 24v-6.474l1.631-.052V24h-1.631zm.988-2.607V20.1h2.645v1.293h-2.645zm5.174 1.404c.368 0 .673-.097.916-.292.243-.2.425-.455.546-.767.121-.312.182-.646.182-1.001 0-.416-.069-.773-.208-1.072a1.594 1.594 0 00-.578-.696 1.524 1.524 0 00-.865-.247c-.368 0-.676.091-.923.273a1.608 1.608 0 00-.546.721 2.733 2.733 0 00-.182 1.021c0 .355.059.689.176 1.001.121.312.303.568.546.767.247.195.559.293.936.293zM220.707 24v-6.474l1.651-.052V24h-1.651zm4.192 0a39.173 39.173 0 00-.676-.826c-.225-.277-.453-.55-.682-.819l-.858-1.04h-.475v-1.117h.52l.741-.943c.23-.286.457-.574.683-.864l.682-.865h1.944a1014.644 1014.644 0 00-1.97 2.308l-.975 1.137-.071-.747 1.176 1.436c.338.39.674.782 1.008 1.177L226.953 24h-2.054zm4.675.15c-.364 0-.689-.076-.975-.228a1.715 1.715 0 01-.683-.657c-.164-.29-.247-.639-.247-1.046 0-.36.063-.663.189-.91.126-.251.29-.455.494-.611.208-.16.435-.284.682-.37.252-.087.505-.15.761-.189l1.852-.273c.013-.303-.039-.537-.156-.702a.848.848 0 00-.487-.338 2.512 2.512 0 00-.735-.098c-.147 0-.307.013-.481.04a4.7 4.7 0 00-.539.104 6.42 6.42 0 00-.585.181 6.11 6.11 0 00-.624.254l-.078-1.436a7.492 7.492 0 011.202-.345c.239-.052.486-.091.741-.117.26-.03.527-.046.8-.046.529 0 .979.079 1.352.235.377.151.665.396.864.734.2.334.299.77.299 1.306V24h-1.462l-.098-.845h-.136a2.86 2.86 0 01-.455.468 2.621 2.621 0 01-.65.377c-.247.1-.529.15-.845.15zm.598-1.294c.182 0 .362-.043.539-.13a1.76 1.76 0 00.494-.364c.156-.156.289-.342.397-.559v-1.02a.998.998 0 01-.228.11c-.091.03-.227.065-.409.104-.182.039-.438.089-.767.15a1.343 1.343 0 00-.475.175.86.86 0 00-.292.319.942.942 0 00-.104.448c0 .282.084.481.253.598.174.113.371.169.592.169zm4.563 3.692v-9.022l1.475-.084.046.87h.143c.13-.19.288-.357.474-.5a2.12 2.12 0 01.65-.338c.243-.078.51-.117.8-.117.576 0 1.064.15 1.462.448.399.295.7.7.904 1.216.204.511.305 1.088.305 1.729 0 .602-.095 1.163-.286 1.683-.19.52-.483.939-.877 1.255-.394.316-.891.475-1.489.475a2.39 2.39 0 01-.747-.111 2.04 2.04 0 01-.605-.305 2.52 2.52 0 01-.494-.488h-.11v3.237l-1.651.052zm3.009-3.809c.36 0 .655-.093.884-.28.234-.19.406-.435.514-.734a2.81 2.81 0 00.162-.962c0-.36-.058-.687-.175-.982a1.57 1.57 0 00-.52-.714c-.23-.183-.522-.273-.878-.273-.177 0-.348.028-.513.084-.165.052-.319.13-.462.234-.143.1-.266.223-.37.37v2.425c.1.169.214.316.344.442.13.126.28.223.449.293.169.064.357.097.565.097zm6 1.261v-6.214l.527 1.046h-2.555v-1.306h5.701v1.306h-2.548l.526-1.046V24h-1.651zm5.487 2.548c.178-.438.355-.882.533-1.332l.533-1.326v.331a97.314 97.314 0 00-.481-1.346c-.16-.454-.319-.899-.475-1.332l-.416-1.17a130.49 130.49 0 00-.513-1.424c-.173-.49-.342-.964-.507-1.423l1.781-.052c.143.498.282.986.416 1.462.139.477.279.967.422 1.47l.527 1.859h.149l.579-1.86.448-1.436c.148-.477.297-.958.449-1.443h1.761a1042.69 1042.69 0 01-1.352 3.477l-.708 1.82-.819 2.1c-.221.58-.425 1.105-.611 1.573l-1.716.052zm6.436-5.915a171.53 171.53 0 00-.117-3.094 326.263 326.263 0 00-.143-3.062l1.853-.052c-.048 1.019-.096 2.046-.143 3.081a225.284 225.284 0 00-.111 3.107l-1.339.02zm.65 3.53a1.13 1.13 0 01-.578-.143.923.923 0 01-.377-.378 1.164 1.164 0 01-.13-.552c0-.308.097-.559.292-.754.199-.195.466-.292.8-.292.229 0 .424.045.585.136.164.087.29.21.377.37a1.1 1.1 0 01.13.54c0 .308-.098.563-.293.767-.191.204-.459.306-.806.306z" fill="#fff"/></g><g filter="url(#filter1_d)"><rect x="61" y="7" width="40" height="24" rx="4" fill="#fff"/></g><g clip-path="url(#clip0)" fill="#EFBC59"><path d="M80.909 14.382a4.186 4.186 0 00-4.181-4.182 4.186 4.186 0 00-4.181 4.182 4.185 4.185 0 004.18 4.18 4.185 4.185 0 004.182-4.18zm-6.285 0c0-1.161.944-2.105 2.104-2.105 1.16 0 2.104.944 2.104 2.105 0 1.16-.944 2.103-2.104 2.103a2.106 2.106 0 01-2.104-2.103zm11.448 5.856a4.185 4.185 0 00-4.181 4.18 4.186 4.186 0 004.18 4.182 4.186 4.186 0 004.181-4.181 4.185 4.185 0 00-4.18-4.18zm0 6.285a2.106 2.106 0 01-2.105-2.104c0-1.16.944-2.104 2.105-2.104 1.16 0 2.103.944 2.103 2.104 0 1.16-.944 2.104-2.103 2.104zm.132-15.787a1.127 1.127 0 00-1.53.436l-8.535 15.326a1.126 1.126 0 001.966 1.095l8.535-15.325a1.126 1.126 0 00-.436-1.532z"/></g><g opacity=".3" clip-path="url(#clip1)" fill="#F6F9FF"><path d="M275.68 8.727A2.73 2.73 0 00272.953 6a2.73 2.73 0 00-2.726 2.727 2.73 2.73 0 002.726 2.726 2.73 2.73 0 002.727-2.726zm-4.099 0c0-.757.616-1.373 1.372-1.373.757 0 1.373.616 1.373 1.373 0 .756-.616 1.372-1.373 1.372a1.374 1.374 0 01-1.372-1.372zm7.466 3.82a2.73 2.73 0 00-2.727 2.726A2.73 2.73 0 00279.047 18a2.73 2.73 0 002.727-2.727 2.73 2.73 0 00-2.727-2.726zm0 4.099a1.373 1.373 0 111.372-1.373c0 .757-.615 1.373-1.372 1.373zm.087-10.296a.735.735 0 00-.998.285l-5.567 9.994a.734.734 0 001.283.715l5.566-9.995a.734.734 0 00-.284-.999z"/></g><g opacity=".3" clip-path="url(#clip2)" fill="#F6F9FF"><path d="M14.52 19.09A4.095 4.095 0 0010.43 15a4.095 4.095 0 00-4.09 4.09 4.094 4.094 0 004.09 4.09 4.095 4.095 0 004.09-4.09zm-6.148 0a2.06 2.06 0 012.058-2.058 2.06 2.06 0 012.058 2.059 2.06 2.06 0 01-2.058 2.057 2.06 2.06 0 01-2.058-2.057zm11.198 5.73a4.094 4.094 0 00-4.09 4.09A4.095 4.095 0 0019.57 33a4.095 4.095 0 004.09-4.09 4.094 4.094 0 00-4.09-4.09zm0 6.148a2.06 2.06 0 01-2.058-2.058 2.06 2.06 0 012.058-2.058 2.06 2.06 0 012.059 2.058 2.06 2.06 0 01-2.059 2.058zm.131-15.443a1.103 1.103 0 00-1.498.427L9.854 30.944a1.101 1.101 0 001.924 1.071l8.35-14.992a1.102 1.102 0 00-.427-1.498z"/></g><g opacity=".3" clip-path="url(#clip3)" fill="#F6F9FF"><path d="M37.095 9.15a2.503 2.503 0 00-3.495.535 2.502 2.502 0 00.536 3.494 2.502 2.502 0 003.494-.536 2.502 2.502 0 00-.535-3.494zm-2.224 3.028a1.26 1.26 0 01-.27-1.759 1.26 1.26 0 011.759-.269 1.258 1.258 0 01-1.489 2.028zm6.874-3.446a2.502 2.502 0 00.535 3.494 2.502 2.502 0 003.494-.535 2.503 2.503 0 00-.535-3.494 2.502 2.502 0 00-3.494.535zm3.028 2.224c-.41.56-1.199.68-1.758.27a1.26 1.26 0 01-.27-1.759 1.26 1.26 0 011.759-.27c.559.411.68 1.2.27 1.76zm-7.562-5.647a.674.674 0 00-.331.892l4.365 9.535a.673.673 0 001.224-.56L38.103 5.64a.673.673 0 00-.892-.332z"/></g><g opacity=".3" clip-path="url(#clip4)" fill="#F6F9FF"><path d="M300.514 21.272a3.767 3.767 0 00-5.272-.72 3.767 3.767 0 00-.72 5.271 3.766 3.766 0 005.271.72 3.766 3.766 0 00.721-5.271zm-4.504 3.421a1.896 1.896 0 01.363-2.653 1.895 1.895 0 012.653.362 1.897 1.897 0 01-.363 2.653 1.896 1.896 0 01-2.653-.362zm11.392-2.035a3.766 3.766 0 00-.72 5.271 3.767 3.767 0 005.272.72 3.767 3.767 0 00.719-5.271 3.766 3.766 0 00-5.271-.72zm3.421 4.503a1.895 1.895 0 01-2.653-.363 1.895 1.895 0 01.363-2.652 1.895 1.895 0 012.652.362 1.896 1.896 0 01-.362 2.653zm-8.501-11.383c-.553.08-.939.592-.86 1.146l2.226 15.628a1.014 1.014 0 002.006-.286l-2.226-15.628a1.014 1.014 0 00-1.146-.86z"/></g><defs><clipPath id="clip0"><path fill="#fff" transform="translate(72.2 10.2)" d="M0 0h18.4v18.4H0z"/></clipPath><clipPath id="clip1"><path fill="#fff" transform="translate(270 6)" d="M0 0h12v12H0z"/></clipPath><clipPath id="clip2"><path fill="#fff" transform="translate(6 15)" d="M0 0h18v18H0z"/></clipPath><clipPath id="clip3"><path fill="#fff" transform="rotate(-53.712 27.717 -25.665)" d="M0 0h11v11H0z"/></clipPath><clipPath id="clip4"><path fill="#fff" transform="rotate(-37.221 180.174 -422.063)" d="M0 0h16.558v16.558H0z"/></clipPath><filter id="filter0_d" x="107.379" y="12.426" width="154.039" height="18.122" filterUnits="userSpaceOnUse" color-interpolation-filters="sRGB"><feFlood flood-opacity="0" result="BackgroundImageFix"/><feColorMatrix in="SourceAlpha" values="0 0 0 0 0 0 0 0 0 0 0 0 0 0 0 0 0 0 127 0"/><feOffset dx="1" dy="1"/><feGaussianBlur stdDeviation="1.5"/><feColorMatrix values="0 0 0 0 0.8375 0 0 0 0 0.55275 0 0 0 0 0 0 0 0 1 0"/><feBlend in2="BackgroundImageFix" result="effect1_dropShadow"/><feBlend in="SourceGraphic" in2="effect1_dropShadow" result="shape"/></filter><filter id="filter1_d" x="59" y="5" width="46" height="30" filterUnits="userSpaceOnUse" color-interpolation-filters="sRGB"><feFlood flood-opacity="0" result="BackgroundImageFix"/><feColorMatrix in="SourceAlpha" values="0 0 0 0 0 0 0 0 0 0 0 0 0 0 0 0 0 0 127 0"/><feOffset dx="1" dy="1"/><feGaussianBlur stdDeviation="1.5"/><feColorMatrix values="0 0 0 0 0.8375 0 0 0 0 0.55275 0 0 0 0 0 0 0 0 1 0"/><feBlend in2="BackgroundImageFix" result="effect1_dropShadow"/><feBlend in="SourceGraphic" in2="effect1_dropShadow" result="shape"/></filter></defs></svg>