<svg width="320" height="38" viewBox="0 0 320 38" fill="none" xmlns="http://www.w3.org/2000/svg"><rect width="320" height="37" rx="5" fill="#EDBCBC"/><mask id="a" maskUnits="userSpaceOnUse" x="254" y="0" width="66" height="37"><rect x="254" width="66" height="37" rx="5" fill="#EFBC59"/></mask><g mask="url(#a)"><circle cx="298" cy="14" r="38" fill="#EBB1B1"/></g><mask id="b" maskUnits="userSpaceOnUse" x="0" y="0" width="62" height="37"><rect width="62" height="37" rx="5" fill="#EFBC59"/></mask><g mask="url(#b)"><circle cx="20.5" cy="-8.5" r="39.5" fill="#EBB1B1"/></g><g filter="url(#filter0_d)"><path d="M42.008 24v-9.269h3.567c.737 0 1.35.093 1.84.28.49.186.858.487 1.105.903.246.412.37.962.37 1.651 0 .594-.108 1.12-.325 1.58-.217.454-.568.812-1.053 1.072-.485.256-1.137.384-1.956.384h-1.989v-1.437h1.592c.433 0 .789-.054 1.066-.163.277-.108.481-.277.611-.507.134-.233.201-.537.201-.91 0-.303-.047-.546-.142-.727a1.028 1.028 0 00-.377-.423 1.504 1.504 0 00-.514-.195 3.013 3.013 0 00-.553-.052h-2.528l.877-1.177V24h-1.794zm9.777.15c-.364 0-.69-.076-.975-.228a1.714 1.714 0 01-.683-.657c-.164-.29-.247-.639-.247-1.046 0-.36.063-.663.189-.91a1.73 1.73 0 01.494-.611 2.43 2.43 0 01.682-.37 4.33 4.33 0 01.76-.189l1.853-.273c.013-.303-.039-.537-.156-.702a.85.85 0 00-.487-.338 2.513 2.513 0 00-.735-.098 3.26 3.26 0 00-.48.04 4.695 4.695 0 00-.54.104 6.363 6.363 0 00-.585.181 6.11 6.11 0 00-.624.254l-.078-1.436a7.44 7.44 0 011.203-.345c.238-.052.485-.091.74-.117.26-.03.527-.046.8-.046.529 0 .98.079 1.352.235.377.151.665.396.864.734.2.334.3.77.3 1.306V24h-1.463l-.098-.845h-.136c-.121.16-.273.316-.455.468a2.614 2.614 0 01-.65.377c-.247.1-.529.15-.845.15zm.598-1.294c.182 0 .362-.043.54-.13.177-.087.342-.208.493-.364.156-.156.289-.342.397-.559v-1.02a1.012 1.012 0 01-.228.11c-.09.03-.227.065-.41.104a29.03 29.03 0 01-.766.15 1.338 1.338 0 00-.475.175.86.86 0 00-.292.319.939.939 0 00-.104.448c0 .282.084.481.253.598.174.113.37.169.592.169zm7.63 1.28c-.723 0-1.338-.145-1.845-.435a2.955 2.955 0 01-1.15-1.203c-.26-.507-.39-1.083-.39-1.729 0-.65.123-1.23.37-1.741.247-.516.61-.921 1.092-1.216.485-.299 1.085-.449 1.8-.449.256 0 .51.02.76.059.252.039.488.095.71.169.225.07.424.152.597.247l-.13 1.443a4.45 4.45 0 00-.682-.319 2.97 2.97 0 00-1.034-.188c-.546 0-.983.175-1.313.526-.325.351-.487.826-.487 1.424 0 .394.078.745.234 1.053.156.303.386.544.689.721.308.174.689.26 1.144.26a2.868 2.868 0 001.007-.181c.165-.066.323-.148.475-.248l.097 1.444a3.459 3.459 0 01-.513.188c-.19.052-.405.093-.644.123a5.48 5.48 0 01-.786.053zm3.28-.136v-6.474h5.812V24h-1.651v-6.214l.682 1.046H64.27l.676-1.046V24h-1.651zm7.49 2.548v-9.022l1.476-.084.046.87h.143a2.166 2.166 0 011.124-.838c.243-.078.51-.117.8-.117.576 0 1.064.15 1.462.448.399.295.7.7.904 1.216.204.511.305 1.088.305 1.729 0 .602-.095 1.163-.286 1.683-.19.52-.483.939-.877 1.255-.394.316-.89.475-1.489.475a2.38 2.38 0 01-.747-.111 2.037 2.037 0 01-.605-.305 2.5 2.5 0 01-.494-.488h-.11v3.237l-1.651.052zm3.01-3.809c.36 0 .655-.093.884-.28.234-.19.405-.435.514-.734.108-.299.162-.62.162-.962 0-.36-.058-.687-.175-.982a1.569 1.569 0 00-.52-.714c-.23-.183-.522-.273-.878-.273a1.58 1.58 0 00-.513.084c-.165.052-.319.13-.462.234-.143.1-.266.223-.37.37v2.425c.1.169.214.316.344.442.13.126.28.223.449.293.169.064.357.097.565.097zm7.695 1.424c-.572 0-1.07-.091-1.495-.273a2.979 2.979 0 01-1.06-.761 3.19 3.19 0 01-.63-1.099 4.024 4.024 0 01-.208-1.293c0-.646.13-1.222.39-1.729a2.92 2.92 0 011.138-1.209c.502-.295 1.113-.442 1.833-.442.554 0 1.04.087 1.456.26.42.169.771.407 1.053.715.286.308.5.667.643 1.079.143.407.215.85.215 1.326 0 .65-.132 1.233-.397 1.748-.26.516-.639.926-1.137 1.229-.499.299-1.099.449-1.8.449zm-.006-1.366c.372 0 .68-.097.923-.292.247-.2.43-.455.552-.767.122-.312.182-.646.182-1.001 0-.416-.07-.773-.208-1.072a1.537 1.537 0 00-.578-.696 1.564 1.564 0 00-.878-.247c-.368 0-.68.091-.936.273a1.665 1.665 0 00-.572.721 2.643 2.643 0 00-.188 1.021c0 .355.063.689.188 1.001.126.312.314.568.566.767.255.195.572.293.949.293zm8.87.943v-5.954l.695 1.04h-3.36l.74-1.04c-.013.273-.028.542-.045.806a270.696 270.696 0 00-.078 1.723c-.018.36-.057.7-.117 1.02-.057.32-.137.617-.24.89a3.19 3.19 0 01-.371.728l-1.573-.194c.112-.1.227-.252.344-.456.122-.207.228-.494.319-.858.095-.364.158-.827.188-1.39.03-.494.057-.94.078-1.34.026-.398.05-.795.072-1.189h4.972v6.214h-1.625zm-4.954 2.022V22.7h7.553v3.062h-1.423l-.065-1.963.28.201H86.6l.292-.201-.071 1.963h-1.424zm10.198-1.613c-.364 0-.689-.075-.975-.227a1.714 1.714 0 01-.682-.657c-.165-.29-.247-.639-.247-1.046 0-.36.063-.663.188-.91a1.73 1.73 0 01.494-.611 2.43 2.43 0 01.683-.37c.251-.087.505-.15.76-.189l1.853-.273c.013-.303-.04-.537-.156-.702a.85.85 0 00-.488-.338 2.513 2.513 0 00-.734-.098 3.26 3.26 0 00-.481.04 4.695 4.695 0 00-.54.104 6.363 6.363 0 00-.585.181c-.203.07-.411.154-.624.254l-.078-1.436a7.44 7.44 0 011.203-.345c.238-.052.485-.091.74-.117.26-.03.527-.046.8-.046.529 0 .98.079 1.352.235.377.151.666.396.865.734.2.334.299.77.299 1.306V24H97.78l-.097-.845h-.137c-.121.16-.273.316-.455.468a2.614 2.614 0 01-.65.377c-.247.1-.528.15-.845.15zm.598-1.293c.182 0 .362-.043.54-.13a1.78 1.78 0 00.494-.364c.156-.156.288-.342.396-.559v-1.02a1.012 1.012 0 01-.227.11 4.26 4.26 0 01-.41.104c-.182.039-.437.089-.767.15a1.338 1.338 0 00-.474.175.86.86 0 00-.293.319.939.939 0 00-.104.448c0 .282.085.481.254.598.173.113.37.169.591.169zm3.9 1.144c.308-.39.618-.78.93-1.17.312-.39.62-.778.923-1.163l1.098-1.444-.052.748-.91-1.137c-.307-.386-.615-.77-.923-1.151l-.923-1.157 1.885-.052c.217.295.432.591.644.89.212.295.427.59.643.884l.689.95h.598v1.117h-.578l-.774 1.034c-.203.277-.407.552-.611.825l-.611.826h-2.028zm4.42 0v-6.474h1.599V24h-1.599zm3.985 0l-.631-.832a45.166 45.166 0 00-.617-.825l-.767-1.027h-.553v-1.118h.598l.67-.943.617-.864c.208-.29.412-.579.611-.865h1.931l-.91 1.157a225.8 225.8 0 00-.904 1.144l-.903 1.144-.085-.747 1.099 1.436c.312.386.624.776.936 1.17.316.39.63.78.942 1.17h-2.034zm4.655.15c-.364 0-.689-.076-.975-.228a1.715 1.715 0 01-.683-.657c-.164-.29-.247-.639-.247-1.046 0-.36.063-.663.189-.91.126-.251.29-.455.494-.611.208-.16.435-.284.682-.37.252-.087.505-.15.761-.189l1.852-.273c.013-.303-.039-.537-.156-.702a.848.848 0 00-.487-.338 2.512 2.512 0 00-.735-.098c-.147 0-.307.013-.481.04a4.7 4.7 0 00-.539.104 6.42 6.42 0 00-.585.181 6.11 6.11 0 00-.624.254l-.078-1.436a7.492 7.492 0 011.202-.345c.239-.052.486-.091.741-.117.26-.03.527-.046.8-.046.529 0 .979.079 1.352.235.377.151.665.396.864.734.2.334.299.77.299 1.306V24h-1.462l-.098-.845h-.136a2.86 2.86 0 01-.455.468 2.621 2.621 0 01-.65.377c-.247.1-.529.15-.845.15zm.598-1.294c.182 0 .362-.043.539-.13a1.76 1.76 0 00.494-.364c.156-.156.289-.342.397-.559v-1.02a.998.998 0 01-.228.11c-.091.03-.227.065-.409.104-.182.039-.438.089-.767.15a1.343 1.343 0 00-.475.175.86.86 0 00-.292.319.942.942 0 00-.104.448c0 .282.084.481.253.598.174.113.371.169.592.169zm4.726-2.223a364.168 364.168 0 00-.26-6.155l1.852-.053-.143 3.081c-.043 1.032-.08 2.067-.11 3.107l-1.339.02zm.65 3.53a1.14 1.14 0 01-.579-.143.93.93 0 01-.377-.378 1.164 1.164 0 01-.13-.552c0-.308.098-.559.293-.754.199-.195.465-.292.799-.292.23 0 .425.045.585.136a.89.89 0 01.377.37c.087.156.13.336.13.54 0 .308-.097.563-.292.767-.191.204-.46.306-.806.306zm5.158-.163v-9.269h3.568c.737 0 1.35.093 1.84.28.489.186.858.487 1.105.903.247.412.37.962.37 1.651 0 .594-.108 1.12-.325 1.58-.216.454-.567.812-1.053 1.072-.485.256-1.137.384-1.956.384h-1.989v-1.437h1.592c.434 0 .789-.054 1.066-.163a1.15 1.15 0 00.611-.507c.135-.233.202-.537.202-.91 0-.303-.048-.546-.143-.727a1.033 1.033 0 00-.377-.423 1.502 1.502 0 00-.514-.195 3.005 3.005 0 00-.552-.052h-2.529l.878-1.177V24h-1.794zm11.056.163c-.572 0-1.071-.091-1.495-.273a2.98 2.98 0 01-1.06-.761 3.189 3.189 0 01-.63-1.099 4.016 4.016 0 01-.208-1.293c0-.646.13-1.222.39-1.729.26-.511.639-.914 1.137-1.209.503-.295 1.114-.442 1.833-.442.555 0 1.04.087 1.456.26.421.169.772.407 1.053.715.286.308.501.667.644 1.079.143.407.214.85.214 1.326 0 .65-.132 1.233-.396 1.748-.26.516-.639.926-1.138 1.229-.498.299-1.098.449-1.8.449zm-.007-1.366c.373 0 .681-.097.923-.292.247-.2.431-.455.553-.767.121-.312.182-.646.182-1.001 0-.416-.07-.773-.208-1.072a1.538 1.538 0 00-.579-.696 1.564 1.564 0 00-.877-.247c-.369 0-.681.091-.936.273a1.66 1.66 0 00-.572.721 2.637 2.637 0 00-.189 1.021c0 .355.063.689.189 1.001.125.312.314.568.565.767.256.195.572.293.949.293zm6.814 1.34c-.294 0-.567-.014-.819-.04a5.877 5.877 0 01-.682-.097 6.758 6.758 0 01-.546-.15 2.978 2.978 0 01-.41-.162l.104-1.397c.169.086.366.166.592.24.229.074.479.134.747.182.269.043.546.065.832.065.351 0 .629-.032.832-.098.208-.069.356-.158.442-.266a.577.577 0 00-.026-.774.952.952 0 00-.435-.253 2.128 2.128 0 00-.657-.091h-1.28v-1.118h1.17c.398 0 .697-.07.897-.208a.656.656 0 00.305-.559c0-.147-.05-.27-.149-.37a.885.885 0 00-.429-.228 2.548 2.548 0 00-.676-.078c-.213 0-.427.015-.644.046a4.123 4.123 0 00-.676.143 5.76 5.76 0 00-.728.279l-.13-1.384a4.21 4.21 0 01.67-.221c.264-.07.552-.124.864-.163.317-.043.635-.065.956-.065.602 0 1.096.072 1.482.214.385.143.669.34.851.592.182.251.273.54.273.865 0 .42-.108.75-.325.988a1.713 1.713 0 01-.747.494v.136c.195.052.385.137.572.254.19.116.349.281.474.494.126.207.189.472.189.793 0 .355-.087.68-.26.974-.174.29-.47.525-.891.703-.42.173-1.001.26-1.742.26zm4.223-.137v-6.474l1.631-.052v5.284h.969c.26 0 .496-.028.708-.084a.908.908 0 00.501-.319c.125-.16.188-.39.188-.689 0-.216-.034-.39-.104-.52a.734.734 0 00-.279-.305 1.018 1.018 0 00-.384-.137 2.277 2.277 0 00-.422-.038h-1.391l-.403-1.242h1.989c.576 0 1.061.074 1.456.221.398.147.7.384.903.709.204.325.306.756.306 1.293 0 .468-.087.88-.26 1.235a1.81 1.81 0 01-.826.825c-.381.195-.89.293-1.527.293h-3.055zm6.584 0v-6.474l1.651-.052V24h-1.651zm8.887.137c-.724 0-1.339-.146-1.846-.436a2.949 2.949 0 01-1.15-1.203c-.26-.507-.39-1.083-.39-1.729 0-.65.123-1.23.37-1.741a2.827 2.827 0 011.092-1.216c.485-.299 1.086-.449 1.801-.449.255 0 .509.02.76.059.251.039.488.095.709.169.225.07.424.152.598.247l-.13 1.443a4.453 4.453 0 00-.683-.319 2.98 2.98 0 00-1.033-.188c-.546 0-.984.175-1.313.526-.325.351-.488.826-.488 1.424 0 .394.078.745.234 1.053.156.303.386.544.689.721.308.174.689.26 1.144.26a2.868 2.868 0 001.008-.181 2.68 2.68 0 00.474-.248l.098 1.444a3.516 3.516 0 01-.514.188 4.73 4.73 0 01-.643.123 5.494 5.494 0 01-.787.053zm6.354.026c-.572 0-1.07-.091-1.495-.273a2.977 2.977 0 01-1.059-.761 3.191 3.191 0 01-.631-1.099 4.043 4.043 0 01-.208-1.293c0-.646.13-1.222.39-1.729a2.91 2.91 0 011.138-1.209c.502-.295 1.113-.442 1.833-.442.554 0 1.04.087 1.456.26.42.169.771.407 1.053.715.286.308.5.667.643 1.079.143.407.215.85.215 1.326 0 .65-.132 1.233-.397 1.748-.26.516-.639.926-1.137 1.229-.499.299-1.099.449-1.801.449zm-.006-1.366c.372 0 .68-.097.923-.292.247-.2.431-.455.552-.767.122-.312.182-.646.182-1.001 0-.416-.069-.773-.208-1.072a1.536 1.536 0 00-.578-.696 1.567 1.567 0 00-.878-.247c-.368 0-.68.091-.936.273a1.667 1.667 0 00-.572.721 2.656 2.656 0 00-.188 1.021c0 .355.063.689.188 1.001.126.312.314.568.566.767.255.195.572.293.949.293zm10.257 1.34c-.723 0-1.339-.146-1.846-.436a2.955 2.955 0 01-1.15-1.203c-.26-.507-.39-1.083-.39-1.729 0-.65.123-1.23.37-1.741a2.827 2.827 0 011.092-1.216c.486-.299 1.086-.449 1.801-.449.256 0 .509.02.76.059a4.3 4.3 0 01.709.169c.225.07.425.152.598.247l-.13 1.443a4.453 4.453 0 00-.683-.319 2.961 2.961 0 00-1.033-.188c-.546 0-.984.175-1.313.526-.325.351-.488.826-.488 1.424 0 .394.078.745.234 1.053.156.303.386.544.689.721.308.174.689.26 1.144.26a2.868 2.868 0 001.008-.181c.165-.066.323-.148.474-.248l.098 1.444a3.474 3.474 0 01-.514.188 4.7 4.7 0 01-.643.123 5.484 5.484 0 01-.787.053zm3.28-.137v-6.474l1.651-.052V24h-1.651zm4.193 0a42.573 42.573 0 00-.676-.826c-.226-.277-.453-.55-.683-.819l-.858-1.04h-.474v-1.117h.52l.741-.943c.229-.286.457-.574.682-.864l.683-.865h1.943l-.988 1.157-.981 1.15-.975 1.138-.072-.747 1.177 1.436c.338.39.673.782 1.007 1.177L187.975 24h-2.054zm3.069 0v-6.474l1.592-.046v4.265h.104l1.073-1.84c.238-.399.472-.797.702-1.196l.689-1.183h1.696V24h-1.579v-4.225h-.117l-1.053 1.814c-.234.407-.468.812-.702 1.215-.234.403-.468.802-.702 1.196h-1.703zm11.772-.26v-5.954l.696 1.04h-3.361l.741-1.04c-.013.273-.028.542-.045.806a270.696 270.696 0 00-.078 1.723c-.017.36-.056.7-.117 1.02-.056.32-.137.617-.241.89a3.173 3.173 0 01-.37.728l-1.573-.194c.113-.1.227-.252.344-.456.122-.207.228-.494.319-.858.095-.364.158-.827.188-1.39.031-.494.057-.94.078-1.34.026-.398.05-.795.072-1.189h4.972v6.214h-1.625zm-4.953 2.022V22.7h7.553v3.062h-1.423l-.065-1.963.279.201h-5.141l.292-.201-.071 1.963h-1.424zM204.402 24v-6.474l1.651-.052V24h-1.651zm4.192 0a39.173 39.173 0 00-.676-.826c-.225-.277-.452-.55-.682-.819l-.858-1.04h-.475v-1.117h.52l.741-.943c.23-.286.458-.574.683-.864.23-.29.457-.579.682-.865h1.944l-.988 1.157-.982 1.15-.975 1.138-.071-.747 1.176 1.436c.338.39.674.782 1.008 1.177L210.648 24h-2.054zm5.814.163c-.572 0-1.07-.091-1.495-.273a2.968 2.968 0 01-1.059-.761 3.191 3.191 0 01-.631-1.099 4.016 4.016 0 01-.208-1.293c0-.646.13-1.222.39-1.729a2.91 2.91 0 011.138-1.209c.502-.295 1.113-.442 1.833-.442.554 0 1.04.087 1.456.26.42.169.771.407 1.053.715.286.308.5.667.643 1.079.143.407.215.85.215 1.326 0 .65-.133 1.233-.397 1.748-.26.516-.639.926-1.137 1.229-.499.299-1.099.449-1.801.449zm-.006-1.366c.372 0 .68-.097.923-.292.247-.2.431-.455.552-.767.121-.312.182-.646.182-1.001 0-.416-.069-.773-.208-1.072a1.536 1.536 0 00-.578-.696 1.567 1.567 0 00-.878-.247c-.368 0-.68.091-.936.273a1.667 1.667 0 00-.572.721 2.637 2.637 0 00-.188 1.021c0 .355.062.689.188 1.001.126.312.314.568.566.767.255.195.572.293.949.293zM219.103 24v-6.474l1.593-.046v4.265h.104l1.072-1.84c.238-.399.472-.797.702-1.196l.689-1.183h1.697V24h-1.58v-4.225h-.117l-1.053 1.814c-.234.407-.468.812-.702 1.215-.234.403-.468.802-.702 1.196h-1.703zm2.925-7.3c-.823 0-1.434-.199-1.833-.598-.394-.402-.594-.962-.598-1.677l1.333-.052c0 .417.084.744.253.982.169.234.451.351.845.351.269 0 .483-.052.644-.156a.856.856 0 00.351-.442c.073-.195.11-.423.11-.683h1.333c-.005.715-.202 1.274-.592 1.677-.39.4-1.005.599-1.846.599zm11.336 7.04v-5.954l.695 1.04h-3.36l.741-1.04c-.013.273-.028.542-.046.806a270.696 270.696 0 00-.078 1.723c-.017.36-.056.7-.117 1.02-.056.32-.136.617-.24.89-.1.273-.223.516-.371.728l-1.573-.194c.113-.1.228-.252.345-.456.121-.207.227-.494.318-.858.096-.364.159-.827.189-1.39.03-.494.056-.94.078-1.34.026-.398.05-.795.071-1.189h4.973v6.214h-1.625zm-4.953 2.022V22.7h7.553v3.062h-1.424l-.065-1.963.28.201h-5.142l.293-.201-.072 1.963h-1.423zm11.667-1.6c-.572 0-1.07-.09-1.495-.272a2.968 2.968 0 01-1.059-.761 3.191 3.191 0 01-.631-1.099 4.016 4.016 0 01-.208-1.293c0-.646.13-1.222.39-1.729a2.91 2.91 0 011.138-1.209c.502-.295 1.113-.442 1.833-.442.554 0 1.04.087 1.456.26.42.169.771.407 1.053.715.286.308.5.667.643 1.079.143.407.215.85.215 1.326 0 .65-.133 1.233-.397 1.748-.26.516-.639.926-1.137 1.229-.499.299-1.099.449-1.801.449zm-.006-1.364c.372 0 .68-.098.923-.293.247-.2.431-.455.552-.767.121-.312.182-.646.182-1.001 0-.416-.069-.773-.208-1.072a1.536 1.536 0 00-.578-.696 1.567 1.567 0 00-.878-.247c-.368 0-.68.091-.936.273a1.667 1.667 0 00-.572.721 2.637 2.637 0 00-.188 1.021c0 .355.062.689.188 1.001.126.312.314.568.566.767.255.195.572.293.949.293zM250.888 24v-2.567l.065-.26v-5.35l1.229-.39c-.234.338-.464.667-.689.988-.221.316-.446.633-.676.949l-1.469 2.086-.592.839-.585.838-.052-.513h3.198l.202-.026h2.483v1.469h-7.241v-1.144c.178-.251.373-.529.585-.832l.643-.916.611-.852 1.105-1.56a437.612 437.612 0 001.196-1.697h1.684V24h-1.697zm7.786.156c-.659 0-1.224-.117-1.697-.351a3.078 3.078 0 01-1.15-.982 4.45 4.45 0 01-.657-1.468 7.662 7.662 0 01-.208-1.827c0-.914.132-1.72.397-2.418.264-.698.667-1.242 1.209-1.631.541-.395 1.228-.592 2.06-.592.633 0 1.181.113 1.645.338a3.08 3.08 0 011.15.955c.304.412.529.902.676 1.47.148.567.221 1.191.221 1.872 0 .936-.136 1.752-.409 2.45-.269.693-.674 1.23-1.216 1.612-.541.381-1.215.572-2.021.572zm-.026-1.436c.463 0 .834-.14 1.111-.416.282-.278.486-.657.611-1.138.13-.481.195-1.03.195-1.645 0-.65-.069-1.213-.208-1.69-.134-.476-.342-.845-.624-1.104-.281-.265-.643-.397-1.085-.397-.451 0-.819.137-1.105.41-.282.268-.49.643-.624 1.124-.13.477-.195 1.03-.195 1.657 0 .624.063 1.177.188 1.658.126.481.33.858.611 1.131.286.273.661.41 1.125.41zm6.775 1.28c.277-.477.55-.945.819-1.404.268-.464.576-.99.923-1.58l1.885-3.223c.238-.403.455-.774.65-1.112l.572-.982c.186-.316.375-.639.565-.968h1.482c-.19.33-.379.652-.565.969l-.572.981c-.2.338-.416.709-.65 1.111l-1.885 3.224c-.347.59-.655 1.116-.923 1.58-.269.46-.544.927-.826 1.404h-1.475zm.422-4.758c-.498 0-.938-.093-1.319-.28a2.185 2.185 0 01-.891-.812c-.212-.351-.318-.77-.318-1.255 0-.446.106-.845.318-1.195.217-.356.516-.635.897-.839.382-.208.821-.312 1.32-.312.498 0 .936.104 1.313.312.381.204.678.483.89.838.217.351.325.75.325 1.196 0 .486-.108.904-.325 1.255a2.127 2.127 0 01-.89.813c-.377.186-.817.279-1.32.279zm0-1.06c.408 0 .724-.112.949-.337.226-.226.338-.538.338-.936 0-.247-.052-.468-.156-.663a1.116 1.116 0 00-.435-.462 1.333 1.333 0 00-.689-.169c-.399 0-.715.121-.949.364-.23.243-.345.553-.345.93 0 .398.115.71.345.936.234.225.548.338.942.338zm6.058 5.98c-.502 0-.944-.093-1.326-.279a2.176 2.176 0 01-.89-.813c-.213-.355-.319-.773-.319-1.254 0-.446.106-.845.319-1.196a2.28 2.28 0 01.897-.838c.381-.209.821-.313 1.319-.313.503 0 .943.104 1.32.313a2.245 2.245 0 011.209 2.034c0 .481-.106.9-.319 1.255a2.127 2.127 0 01-.89.812c-.382.186-.821.28-1.32.28zm0-1.059c.403 0 .717-.113.943-.338.229-.23.344-.542.344-.936 0-.247-.052-.468-.156-.663a1.16 1.16 0 00-.442-.462 1.328 1.328 0 00-.689-.169c-.398 0-.715.122-.949.364-.229.239-.344.549-.344.93 0 .394.115.706.344.936.234.225.551.338.949.338zm3.984-2.47a364.168 364.168 0 00-.26-6.155l1.852-.053-.143 3.081c-.043 1.032-.08 2.067-.11 3.107l-1.339.02zm.65 3.53a1.14 1.14 0 01-.579-.143.935.935 0 01-.377-.378 1.176 1.176 0 01-.13-.552c0-.308.098-.559.293-.754.199-.195.466-.292.799-.292.23 0 .425.045.585.136.165.087.291.21.377.37.087.156.13.336.13.54 0 .308-.097.563-.292.767-.191.204-.46.306-.806.306z" fill="#fff"/></g><g opacity=".3" clip-path="url(#clip0)" fill="#F6F9FF"><path d="M288.68 7.727A2.73 2.73 0 00285.953 5a2.73 2.73 0 00-2.726 2.727 2.73 2.73 0 002.726 2.726 2.73 2.73 0 002.727-2.726zm-4.099 0c0-.757.616-1.373 1.372-1.373.757 0 1.373.616 1.373 1.373 0 .756-.616 1.372-1.373 1.372a1.374 1.374 0 01-1.372-1.372zm7.466 3.82a2.73 2.73 0 00-2.727 2.726A2.73 2.73 0 00292.047 17a2.73 2.73 0 002.727-2.727 2.73 2.73 0 00-2.727-2.726zm0 4.099a1.373 1.373 0 111.372-1.373c0 .757-.615 1.373-1.372 1.373zm.087-10.296a.735.735 0 00-.998.285l-5.567 9.994a.734.734 0 001.283.715l5.566-9.995a.734.734 0 00-.284-.999z"/></g><g opacity=".3" clip-path="url(#clip1)" fill="#F6F9FF"><path d="M19.52 16.09A4.095 4.095 0 0015.43 12a4.095 4.095 0 00-4.09 4.09 4.094 4.094 0 004.09 4.09 4.095 4.095 0 004.09-4.09zm-6.148 0a2.06 2.06 0 012.058-2.058 2.06 2.06 0 012.058 2.059 2.06 2.06 0 01-2.058 2.057 2.06 2.06 0 01-2.058-2.057zm11.198 5.73a4.094 4.094 0 00-4.09 4.09A4.095 4.095 0 0024.57 30a4.095 4.095 0 004.09-4.09 4.094 4.094 0 00-4.09-4.09zm0 6.148a2.06 2.06 0 01-2.058-2.058 2.06 2.06 0 012.058-2.058 2.06 2.06 0 012.059 2.058 2.06 2.06 0 01-2.059 2.058zm.131-15.443a1.103 1.103 0 00-1.498.427l-8.349 14.992a1.101 1.101 0 001.924 1.071l8.35-14.992a1.102 1.102 0 00-.427-1.498z"/></g><g opacity=".3" clip-path="url(#clip2)" fill="#F6F9FF"><path d="M71.095 6.15a2.503 2.503 0 00-3.495.535 2.502 2.502 0 00.536 3.494 2.502 2.502 0 003.494-.536 2.502 2.502 0 00-.535-3.494zM68.87 9.177a1.26 1.26 0 01-.27-1.759 1.26 1.26 0 011.759-.269 1.258 1.258 0 01-1.489 2.028zm6.875-3.445a2.502 2.502 0 00.535 3.494 2.502 2.502 0 003.494-.535 2.503 2.503 0 00-.535-3.494 2.502 2.502 0 00-3.494.535zm3.028 2.224c-.41.56-1.199.68-1.758.27a1.26 1.26 0 01-.27-1.759 1.26 1.26 0 011.759-.27c.559.411.68 1.2.27 1.76zm-7.562-5.647a.674.674 0 00-.331.892l4.365 9.535a.673.673 0 001.224-.56L72.104 2.64a.673.673 0 00-.893-.332z"/></g><g opacity=".3" clip-path="url(#clip3)" fill="#F6F9FF"><path d="M302.514 22.272a3.767 3.767 0 00-5.272-.72 3.767 3.767 0 00-.72 5.271 3.766 3.766 0 005.271.72 3.766 3.766 0 00.721-5.271zm-4.504 3.421a1.896 1.896 0 01.363-2.653 1.895 1.895 0 012.653.362 1.897 1.897 0 01-.363 2.653 1.896 1.896 0 01-2.653-.362zm11.392-2.035a3.766 3.766 0 00-.72 5.271 3.767 3.767 0 005.272.72 3.767 3.767 0 00.719-5.271 3.766 3.766 0 00-5.271-.72zm3.421 4.503a1.895 1.895 0 01-2.653-.363 1.895 1.895 0 01.363-2.652 1.895 1.895 0 012.652.362 1.896 1.896 0 01-.362 2.653zm-8.501-11.383c-.553.08-.939.592-.86 1.146l2.226 15.628a1.014 1.014 0 002.006-.286l-2.226-15.628a1.014 1.014 0 00-1.146-.86z"/></g><defs><clipPath id="clip0"><path fill="#fff" transform="translate(283 5)" d="M0 0h12v12H0z"/></clipPath><clipPath id="clip1"><path fill="#fff" transform="translate(11 12)" d="M0 0h18v18H0z"/></clipPath><clipPath id="clip2"><path fill="#fff" transform="rotate(-53.712 41.755 -60.738)" d="M0 0h11v11H0z"/></clipPath><clipPath id="clip3"><path fill="#fff" transform="rotate(-37.221 182.66 -424.533)" d="M0 0h16.558v16.558H0z"/></clipPath><filter id="filter0_d" x="40.008" y="12.373" width="241.628" height="18.174" filterUnits="userSpaceOnUse" color-interpolation-filters="sRGB"><feFlood flood-opacity="0" result="BackgroundImageFix"/><feColorMatrix in="SourceAlpha" values="0 0 0 0 0 0 0 0 0 0 0 0 0 0 0 0 0 0 127 0"/><feOffset dx="1" dy="1"/><feGaussianBlur stdDeviation="1.5"/><feColorMatrix values="0 0 0 0 0.729412 0 0 0 0 0.317647 0 0 0 0 0.317647 0 0 0 1 0"/><feBlend in2="BackgroundImageFix" result="effect1_dropShadow"/><feBlend in="SourceGraphic" in2="effect1_dropShadow" result="shape"/></filter></defs></svg>