<svg width="25" height="25" viewBox="0 0 25 25" fill="none" xmlns="http://www.w3.org/2000/svg"><path d="M12.482 20.677a1.252 1.252 0 011.243 1.105l.008.146v1.823a1.252 1.252 0 01-2.494.145l-.009-.145v-1.823a1.252 1.252 0 011.252-1.251zm7.555-2.418l1.29 1.289a1.252 1.252 0 01-1.772 1.768l-1.288-1.288a1.252 1.252 0 011.77-1.77zm-13.343 0a1.252 1.252 0 010 1.77l-1.287 1.289a1.252 1.252 0 11-1.77-1.771l1.288-1.29a1.252 1.252 0 011.77 0l-.001.002zM12.498 5.58a6.915 6.915 0 110 13.831 6.915 6.915 0 010-13.83zm-.951 3.165a.939.939 0 00-.93.81l-.009.128v3.76l.009.128a.939.939 0 00.803.803l.127.008h2.503l.128-.008a.939.939 0 00.802-.803l.009-.127-.009-.128a.939.939 0 00-.802-.803l-.128-.008h-1.565V9.684l-.007-.127a.938.938 0 00-.931-.811zm12.175 2.525a1.252 1.252 0 01.146 2.495l-.146.009h-1.821a1.252 1.252 0 01-.147-2.495l.147-.008h1.822-.001zm-20.65-.035a1.251 1.251 0 01.147 2.495l-.146.009H1.249a1.252 1.252 0 01-.145-2.495l.145-.008h1.824zM5.288 3.58l.12.104 1.287 1.29a1.252 1.252 0 01-1.652 1.873l-.118-.105-1.289-1.288A1.252 1.252 0 015.288 3.58zm16.038.104a1.252 1.252 0 01.104 1.652l-.104.118-1.289 1.29a1.252 1.252 0 01-1.874-1.653l.104-.119 1.29-1.29a1.252 1.252 0 011.77 0v.002zM12.486 0a1.252 1.252 0 011.242 1.105l.01.147v1.82a1.251 1.251 0 01-2.497.147l-.007-.146V1.252A1.252 1.252 0 0112.486 0z" fill="#245E63"/></svg>