<svg width="25" height="25" viewBox="0 0 25 25" fill="none" xmlns="http://www.w3.org/2000/svg"><g clip-path="url(#clip0)"><path d="M23.402 12.266a3.5 3.5 0 01-.219-.049c-.747-.193-1.087-.299-1.34-.783l-.954-1.922c-.307-.59-1.1-1.069-1.767-1.069h-1.7v-2.22a.726.726 0 00-.727-.723l-11.841.012c-.39 0-.685.308-.685.717v.656H1.136C.51 6.885 0 7.392 0 8.015c0 .623.51 1.13 1.136 1.13H4.17v1.083H2.183c-.626 0-1.136.507-1.136 1.13 0 .622.51 1.13 1.136 1.13H4.17v1.082h-.938c-.627 0-1.136.507-1.136 1.13 0 .623.51 1.13 1.136 1.13h.938v1.132c0 .399.327.723.727.723h1.232A2.722 2.722 0 008.822 20a2.722 2.722 0 002.694-2.315H16.5l.079-.003A2.722 2.722 0 0019.274 20a2.722 2.722 0 002.694-2.315h1.769A1.26 1.26 0 0025 16.429v-2.131c0-1.698-.962-1.899-1.598-2.032zm-4.128 4.042c.546 0 .99.442.99.985a.988.988 0 01-.99.984.988.988 0 01-.99-.984c0-.543.444-.985.99-.985zm-1.852-4.195V9.492h1.3c.498 0 1.114.372 1.343.811l.85 1.71c.018.036.037.069.056.1h-3.55zm-7.61 5.18a.988.988 0 01-.99.984.988.988 0 01-.99-.984c0-.543.444-.985.99-.985s.99.442.99.985z" fill="#245E63"/></g><defs><clipPath id="clip0"><path fill="#fff" d="M0 0h25v25H0z"/></clipPath></defs></svg>