<svg width="54" height="27" viewBox="0 0 54 27" fill="none" xmlns="http://www.w3.org/2000/svg"><g clip-path="url(#clip0)"><path d="M0 26.995h26.161V-.001H0v26.996zM53.22.004H27.843V27H54V.004h-.782z" fill="#fff"/><path d="M29.408 25.382h23.018V1.622H29.408v23.76zM2.396 14.794v5.628h.9v-1.634c.175.158.369.252.576.252.297 0 .542-.161.733-.484.216-.359.323-.89.323-1.583 0-.485-.086-.92-.254-1.291l-.03-.061-.029-.05-.02-.05-.029-.041-.03-.05-.038-.05-.03-.041-.03-.04-.038-.04-.03-.041-.039-.04-.039-.03-.039-.041-.04-.03-.038-.031-.04-.03-.048-.02-.04-.03-.038-.02-.05-.02-.048-.021-.049-.02-.048-.02-.05-.01-.048-.01-.049-.01-.058-.02h-.05l-.058-.01h-.048l-.06-.01h-.997v-.001zm.85.797h.089c.226 0 .403.135.527.393.125.259.186.658.186 1.21 0 .3-.035.535-.117.697-.078.161-.18.242-.293.242-.11 0-.2-.077-.274-.222-.074-.141-.117-.345-.117-.616v-1.704zM23.55 14.52l-.073.077s-1.88 2.025-2.021 2.179V14.79h-.88v5.64h.88v-2.316a626.99 626.99 0 011.282-1.404l.129 3.72h.899l-.215-5.91zm-4.288.077l-.004.008-.008.004-.008.012-.012.012-.015.017-.016.016-.02.02-.019.02-.023.025-.024.028-.027.028-.028.028-.027.033-.031.032-.035.036-.07.077-.075.08-.078.085-.082.09-.086.092-.09.092-.09.097-.09.101-.184.198-.09.097-.09.092-.085.093-.082.093-.082.085-.074.08-.07.077-.036.036-.031.037-.031.032-.028.032-.027.029-.024.028-.023.024-.024.025-.019.02-.015.016-.016.016-.012.016-.012.009-.008.012v-1.985h-.884v5.64h.884v-2.316c.023-.028 1.153-1.263 1.282-1.404l.13 3.72h.895l-.216-5.911-.07.076zm-5.116 4.435l-.055-.069-.046-.068-.047-.077-.04-.077-.039-.08-.035-.081-.035-.085-.027-.085-.024-.092-.023-.089-.02-.097-.016-.097-.012-.1-.008-.102-.003-.105-.005-.105c0-.592.141-1.065.415-1.412.301-.379.739-.568 1.31-.568h.042v-.985h-.042c-.892 0-1.576.283-2.041.851-.422.513-.637 1.227-.637 2.123 0 .863.234 1.577.692 2.114.484.565 1.153.855 1.998.855h.042v-.988h-.043c-.554 0-.992-.194-1.3-.581zm-7.071-4.378c-.472 0-.85.276-1.124.817-.265.532-.4 1.24-.4 2.108 0 .895.127 1.62.381 2.148.258.54.643.817 1.143.817.513 0 .917-.293 1.203-.857.265-.529.4-1.243.4-2.119 0-.863-.137-1.57-.41-2.098l-.03-.05-.03-.05-.019-.05-.039-.041-.02-.04-.039-.04-.03-.041-.029-.04-.029-.04-.039-.041-.03-.03-.039-.03-.029-.031-.039-.03-.03-.03-.039-.031-.039-.02-.039-.02-.039-.02-.039-.02-.039-.021-.04-.02-.038-.01-.049-.02-.039-.01-.049-.01-.039-.01H7.27l-.049-.01-.049-.01h-.097zm0 .907c.25 0 .435.184.548.555.11.335.156.823.156 1.453 0 .609-.055 1.115-.176 1.503l-.02.04-.009.03-.01.03-.01.03-.01.031-.019.03-.01.03-.019.021-.01.03-.02.02-.009.031-.01.02-.02.02-.019.02-.01.02-.019.01-.01.02-.02.02-.019.01-.02.02-.02.01-.019.01-.01.01-.02.01h-.019l-.02.01-.019.01h-.02l-.02.01h-.069c-.214 0-.376-.189-.498-.564-.125-.392-.185-.894-.185-1.483 0-.601.06-1.097.185-1.473.114-.358.28-.544.5-.544zm3.684 3.471l-.024-.033-.027-.036-.051-.068-.043-.077-.043-.077-.04-.08-.035-.081-.03-.085-.032-.085-.023-.092-.024-.089-.016-.097-.015-.097-.012-.1-.008-.102-.007-.105v-.105c0-.592.136-1.065.414-1.412.297-.379.735-.568 1.306-.568h.047v-.985h-.047c-.888 0-1.576.283-2.037.851-.426.513-.637 1.227-.637 2.123 0 .863.23 1.577.692 2.114.48.565 1.153.855 1.998.855h.043v-.988h-.043c-.56 0-.998-.194-1.306-.581zM2.402 6.52v5.668h1.013V7.46h1.251v4.73h1.009V6.52H2.402zm6.375-.148c-.536 0-.966.279-1.27.828-.302.536-.45 1.247-.45 2.118 0 .9.14 1.636.43 2.168.293.545.727.817 1.29.817.574 0 1.028-.284 1.348-.857.302-.532.46-1.253.46-2.128 0-.872-.164-1.586-.47-2.118l-.029-.05-.03-.051-.028-.05-.04-.04-.029-.051-.04-.04-.029-.04-.039-.041-.039-.04-.03-.03-.038-.041-.04-.03-.038-.03-.04-.031-.048-.03-.04-.02-.038-.031-.04-.02-.048-.02-.04-.02-.048-.021-.049-.02-.04-.01-.048-.02-.049-.01-.048-.01-.05-.01-.048-.01h-.108l-.048-.01h-.06zm.01.959c.273 0 .467.181.596.545.117.33.176.813.176 1.442 0 .601-.069 1.104-.206 1.483-.132.371-.316.544-.566.544h-.089l-.02-.01-.019-.01h-.02l-.02-.01-.019-.01-.02-.01-.019-.01-.02-.01-.02-.02-.019-.01-.02-.02-.02-.01-.009-.02-.02-.02-.02-.02-.009-.021-.02-.02-.02-.03-.01-.021-.019-.02-.01-.03-.019-.031-.01-.02-.01-.04-.019-.031-.01-.03-.01-.03-.02-.031c-.136-.392-.204-.888-.204-1.473 0-.6.068-1.091.205-1.462.13-.359.312-.534.559-.534zm7.305-.811v.94h.84v4.728h1.013V7.46h.852v-.94h-2.705zm-2.217 1.973h-.551c-.227 0-.399-.053-.505-.158-.078-.072-.113-.173-.113-.302V6.52h-1.013v1.618c0 .37.145.69.426.94.278.246.622.37 1.017.37h.739v2.74h1.012V6.52h-1.013v1.973zm6.241-1.97l-.186 5.669h1.006l.098-2.774h1.26l.294 2.774h1.016l-.469-4.146v-.15l-.01-.051v-.05l-.01-.04v-.051l-.009-.04-.01-.05-.01-.041-.01-.04-.009-.04-.01-.041-.02-.04-.009-.041-.01-.04-.02-.04-.019-.031-.02-.04-.01-.03-.02-.041-.019-.03-.03-.03-.019-.041-.02-.02-.029-.04-.02-.021-.03-.03-.029-.03-.029-.021-.02-.03-.039-.03c-.254-.207-.598-.304-1.035-.304h-1.494v.001zm.967.938h.362c.261 0 .438.087.547.252.09.137.15.4.186.767h-1.124v-.161l.01-.03v-.405l.01-.04v-.292l.009-.02v-.07z" fill="#DAE8F1"/><path d="M35.768 8.727l.035.084.043.08.043.085.05.09.028.04.031.044.028.044.031.045.035.044.035.045.035.044.04.044.042.049.043.044.043.049.047.048.051.049.05.048.056.048.058.053.059.048.062.052.063.053.066.056.075.053.07.056.078.053.079.056c.19.137.41.424.246.823-.164.404-.47.968-.286 1.19.184.222.833.335 1.365.117 0 0 .113.347.309.57 0 0-.094.189-.399.092 0 0 .114.286-.043.593 0 0-.356-.065-.512-.403 0 0-.141.266-.426.358 0 0-.235-.124-.184-.609 0 0-.172.432-.703.505 0 0-.306-.4.093-.936 0 0-.289.262-.805.137 0 0-.086-.274.387-.654 0 0-.532-.024-.735-.484 0 0 .223-.286.774-.222 0 0-.512-.117-.625-.746 0 0 .367-.242.954.145 0 0-.102-.202-.348-.404-.247-.192-.544-.753-.438-1.576zm2.135 6.355l-.016-.02-.012-.02-.015-.02-.012-.02-.012-.02-.012-.02-.011-.017-.012-.02-.012-.02-.011-.02-.008-.02-.012-.02-.008-.017-.012-.02-.008-.02-.007-.02c.093.766.125 1.283.523 1.779 0 0 .247-.33.087-1.138a.806.806 0 01-.216-.105s.094.327.036.658c0 0-.145-.11-.25-.88zM37.205 15l-.004-.003-.004-.008-.004-.009-.007-.003-.004-.008-.008-.008-.004-.009-.008-.008-.004-.008-.008-.012-.012-.016-.011-.02-.016-.02-.011-.02-.012-.02-.016-.02-.012-.02-.011-.017-.012-.02-.004-.012-.004-.008-.008-.008-.003-.008c-.035.444-.149 1.614.234 1.981 0 0 .258-.198.352-1.904-.055.097-.152.197-.2.254 0 0 .063.54-.125.924 0-.001-.188-.15-.074-.97zm-.903.896l.028-.036.027-.044.027-.049.028-.052.023-.053.024-.056.02-.06.023-.061.02-.065.02-.064.015-.065.015-.068.032-.134.011-.064.016-.065.012-.064.008-.06.011-.06.008-.062.008-.056.008-.052.008-.049.003-.044.005-.044.004-.037.003-.016V14.4l.004-.016v-.025l.004-.008v-.032a1.47 1.47 0 00.133-.1.83.83 0 00.055-.05c0 .045 0 .09.004.134-.047.71-.102 1.445-.317 1.812-.211.359-.598.545-.598.545-.364-.67.074-1.566.441-2.191a1.06 1.06 0 00.141-.06c-.133.479-.376 1.047-.274 1.487zm-.902-2.052v.056l.004.012v.024l.004.004v.02l.004.008v.012l.004.004v.012l.004.004v.012l.004.005c.003.008.007.028.015.048-.305.303-.532.601-.98 1.247a1.605 1.605 0 01-1.17.673c.07-.524.207-.94.59-1.384.38-.448.872-.855 1.232-1.125a.644.644 0 00.367.052c.008 0 .024-.004.036-.004a.57.57 0 00-.094.19c-.274.161-1.064.577-1.384 1.242 0 .002.5-.16 1.364-1.112zm-.568-.651l.032-.06a.322.322 0 01.031-.049c-.297.117-1.345.524-1.685.706-.336.182-.829.593-1.095 1.432 0 0 .708.065 1.294-.435.583-.497 1.263-1.195 1.553-1.416a.382.382 0 01-.067-.077s-.79.723-1.626 1.033c0 0 .18-.33.508-.577.403-.295.704-.392 1.055-.557zm-.597-.497l.004-.008.004-.012.004-.012.004-.008.003-.012.005-.012.004-.004v-.004l.003-.005.004-.008c-.348.077-1.212.182-1.599.303s-1.083.415-1.497 1.23c0 0 .61.194 1.755-.362 1.15-.557 1.51-.674 1.728-.735a.78.78 0 01-.363-.113c-.458.21-1.068.46-1.677.477 0 0 .3-.218.613-.355a7.77 7.77 0 011.005-.36zm.026-.589l.02.012.02.008.019.008.023.013.02.003.019.008.02.009.019.004.02.008.023.004.02.004.023.004.012.005h.012l.011.004h.024l.015.004h.012l.012.004a.992.992 0 00-.223.21c-.407.121-1.095.25-2.232.335-1.138.089-1.744-.13-1.744-.13a4.994 4.994 0 011.454-.588c.43-.085 1.553-.073 2.041-.145.008.008.07.056.168.117-.418.04-1.297.08-1.755.315 0-.002.841.115 1.947-.216zm-.088-.673l.012-.008.012-.004.011-.008.012-.004.012-.008.012-.005.011-.008.016-.008.012-.004.011-.008.016-.004.016-.008.011-.008.016-.004.016-.008.015-.005c-.575-.177-1.364-.468-2.553-.548-.871-.06-1.505-.008-1.829.08 0 0 .793.578 1.704.783.907.202 1.646.073 2.182.077.039-.057.078-.113.14-.178-.629.004-1.68-.161-2.056-.29 0 0 .915-.201 2.201.178zm.003-.698v.009l.004.004v.008l.004.008v.012l.004.012.004.012.008.016.003.013.008.02.008.016.008.016.008.02.011.02.012.021.011.02.016.02.012.025.016.02.02.02.018.025.02.02.02.024.023.02.023.02.028.02.027.025.032.016.027.02.035.02.035.017c-.81-.363-2.404-.573-3.257-.944-1.157-.493-1.368-1.114-1.368-1.114 1-.028 1.81.226 2.432.424.735.23 1.845.657 2.232.84a.785.785 0 00-.438.14 12.766 12.766 0 00-1.294-.452c-.387-.112-.676-.133-.919-.157 0 0 .344.234.907.42.56.183.803.216 1.26.304zm-.062-.913l.004.005.003.008.004.008.004.004.004.008.004.008.004.008.008.008.003.008.004.008.008.012.004.008.011.02.016.017.012.02.012.016.003.012.008.008.004.008.008.008.004.008.008.009.004.008.004.008.004.004.003.008.004.004.004.008c-1.278-.222-2.686-1.218-3.12-1.84-.433-.617-.308-1.54-.308-1.54.422.088 1.337.903 1.571 1.149.239.242.958.964 1.454 1.368l.153.46c-.422-.351-.927-.743-1.243-.989-.243-.189-.606-.451-.962-.58 0 0 .328.443.598.661.31.254.622.472.88.618.231.128.348.205.814.434z" fill="#fff"/><path d="M37.717 13.52l.008-.008.007-.008.004-.005.008-.008.008-.008.008-.004.004-.008.007-.004.005-.008.007-.008.004-.004.008-.008.004-.005.008-.008.004-.004.008-.008c.058.08.254.335.351.59.075.213.153.508.192.673.04.173.153.52.227.641 0 0-.313.045-.544-.238-.226-.27-.3-.544-.34-.827a3.277 3.277 0 01.012-.733zm-.493.042l.008.008.004.008.008.004.004.008.003.008.008.004.004.004.004.008.007.004.004.004.004.004.004.008.008.004.004.004h.003l.004.004.005.004.003.004.004.004h.004v.004h.004l.004.004h.004v.004h.004v.004h.004v.004l.047.02.043-.012.105-.044c.047.125.063.19.078.303.012.145.043.375-.011.564-.067.23-.2.368-.274.46 0 0-.203-.233-.262-.423a1.113 1.113 0 01-.007-.67c.043-.129.11-.246.164-.314zm-.697.018l.019-.004h.02l.015-.004.02-.004.035-.008.035-.008.035-.012.035-.008.032-.012.03-.012.028-.016.027-.012.032-.016.023-.013.027-.016.024-.016.023-.016.024-.016a.547.547 0 01.039.318.809.809 0 01-.27.424c-.211.174-.489.335-.801.283 0 0-.07-.239.548-.832zm-.237-.4l.004.021v.02l.004.017.004.02.004.016.004.016.004.02.004.017.007.016.005.012.003.016.008.016.004.012.008.013.004.012.004.012.008.012.003.012.004.008.008.008.004.012.004.008.004.005.004.008.004.008.004.004.004.004.004.004.003.004v.004h.004v.004c-.074.09-.336.553-.883.477 0 0-.149-.32.215-.57.246-.174.367-.207.535-.267zm.048-.399l-.028.008-.027.008-.03.005-.032.004-.031.004-.032.004h-.035l-.035.004h-.035l-.04-.004h-.034l-.02-.004h-.02l-.023-.004h-.019l-.02-.004-.019-.005-.02-.004-.023-.004-.02-.004-.023-.008-.062-.012-.02-.065c-.277.238-.614.278-.727.492 0 0 .14.267.504.218a1.2 1.2 0 00.833-.472.67.67 0 01.038-.157zm-.63-.331l.008-.016.012-.016.008-.016.007-.02.012-.017.008-.02.011-.02.008-.02.012-.02.012-.025.007-.012.008-.008.004-.012.008-.012.008-.012.008-.008.008-.013.007-.012.012-.011.008-.012.012-.013.008-.008a1.755 1.755 0 00-.74.008c-.336.065-.68.146-.852.67 0 0 .215.194.61.11.329-.07.618-.219.786-.465zm-.146-.573l-.016-.016-.015-.012-.016-.016-.016-.016-.012-.016-.015-.02-.016-.017-.012-.016-.015-.02-.012-.02-.015-.021-.012-.02-.012-.024-.012-.02-.011-.025-.012-.024-.027-.065c-.29-.12-.595-.185-.892-.072-.297.116-.375.25-.45.363 0 0 .329.286.708.298.38.009.727-.104.88-.22zm.092-.616l.008-.004.011-.004.008-.004h.012l.007-.004.012-.004.008-.005.012-.004h.012l.011-.004.012-.004h.008l.011-.004.012-.005h.012l.012-.004a1.09 1.09 0 01-.317-.565c-.133.033-.454.033-.59-.02a.723.723 0 00-.63.089s.07.383.555.516c.458.127.626.095.814.03zm-.176-.755l.062-.045c.008-.004.118-.072.305-.085-.156-.124-.531-.447-.793-.597-.286-.165-.763-.39-1.009-.424 0 0 .23.618.493.868.277.259.469.355.942.283zm.488-.287l-.02-.029-.019-.032-.023-.032-.02-.032-.016-.037-.02-.036-.018-.037-.016-.04-.016-.04-.02-.04-.015-.041-.012-.044-.015-.045-.016-.044-.012-.049-.011-.044c-.059-.21-.184-.718-.258-.856-.074-.133-.344-.592-.868-.738 0 0-.137.6.125 1.085.226.413.691.848 1.27 1.13zm2.911 2.816l.016.012.011.012.012.012.012.008.012.013.011.008.012.012.012.008.012.008.015.012.008.005.008.004.008.004.008.008.008.004.007.005.012.003.008.008.008.005.011.004.012.008.008.004s.168.331-.035.726c-.203.4-.372.807-.454 1.033 0 0-.11-.016-.23-.641-.082-.42-.184-.529-.293-.67a.7.7 0 00.223.077l.078.02.039-.08a.87.87 0 00.09-.392c0-.04 0-.077-.004-.11a.386.386 0 00.328-.14c.004-.008.008-.008.008-.012l.02.022z" fill="#fff"/><path d="M34.421 8.26v.19l.012.149c-.313-.408-.684-.9-1.036-1.356a2.786 2.786 0 00-.676-.65c.195.577.539 1.037.781 1.263.243.23.595.617.939.856l.03.113c.028.109.067.217.122.322.086.146.188.287.313.428a4.32 4.32 0 00-.329-.157l-.11-.049c-.941-.512-1.88-1.585-2.255-2.327-.379-.747-.223-1.61-.125-2.074.43.375 1.052 1.113 1.318 1.513.332.492.755 1.194 1.016 1.763v.015zm13.241 3.174l-.012-.008-.007-.004-.012-.008-.012-.004-.011-.008-.016-.005-.012-.008-.011-.008-.012-.004-.016-.008-.012-.004-.015-.008-.016-.008-.016-.004-.015-.008-.016-.005c.579-.177 1.368-.468 2.561-.548.872-.06 1.497-.008 1.825.08 0 0-.797.578-1.704.783-.907.202-1.646.073-2.186.077a.982.982 0 00-.136-.178c.63.004 1.677-.161 2.056-.29 0 0-.915-.201-2.205.178zm.006-.698v.009l-.004.004v.008l-.004.008-.004.012v.012l-.008.012-.004.016-.004.013-.008.02-.007.016-.008.016-.012.02-.008.02-.011.021-.012.02-.016.02-.016.025-.015.02-.016.02-.02.025-.019.02-.023.024-.024.02-.023.02-.024.02-.031.025-.027.016-.032.02-.03.02-.036.017c.81-.363 2.4-.573 3.26-.944 1.154-.493 1.365-1.114 1.365-1.114-1-.028-1.814.226-2.435.424-.731.23-1.841.657-2.232.84a.787.787 0 01.441.14c.544-.213.798-.306 1.29-.452.391-.112.677-.133.92-.157 0 0-.341.234-.904.42-.564.183-.806.216-1.26.304zm.062-.912v.004l-.004.008-.004.008-.003.005-.008.008-.004.008-.004.008-.004.008-.008.008-.004.008-.011.02-.012.02-.016.017-.011.02-.012.016-.004.012-.008.008-.004.008-.007.008-.005.008-.007.008-.004.009-.004.008-.004.004-.004.008-.008.004-.004.008c1.279-.222 2.686-1.218 3.12-1.84.438-.617.313-1.54.313-1.54-.422.088-1.337.903-1.575 1.149-.235.242-.954.964-1.45 1.368l-.153.46c.422-.351.926-.743 1.239-.989.246-.19.602-.451.966-.58 0 0-.333.443-.599.661a6.404 6.404 0 01-.883.618c-.227.127-.348.204-.81.434zm-.31-1.566v.191l-.01.149c.308-.408.68-.9 1.031-1.356.246-.31.45-.496.676-.65-.191.577-.535 1.037-.778 1.263-.242.23-.594.617-.938.856l-.031.113c-.032.109-.07.218-.125.322a2.696 2.696 0 01-.31.428c.098-.052.212-.109.329-.157l.106-.049c.942-.512 1.88-1.585 2.255-2.327.387-.747.227-1.61.125-2.074-.43.375-1.047 1.113-1.313 1.513-.332.492-.755 1.194-1.017 1.763v.015zm-11.79 5.883l-.038.04-.04.04-.043.045-.042.049-.047.048-.047.053-.047.056-.047.056-.05.061-.051.06-.047.065-.051.065-.047.068-.05.073-.048.072-.047.073-.042.077-.043.076-.043.077-.04.08-.038.082-.032.084-.031.081-.031.089-.024.084-.023.085-.016.089-.015.089-.008.089-.004.092-.004.089.008.093s.758-.246 1.075-.823c.313-.573.504-.94.637-1.07a.852.852 0 01-.25 0l-.07-.011c-.196.363-.579.96-.923 1.166 0 0-.086-.484.927-1.46a.994.994 0 01.062-.134.792.792 0 01-.316.048m10.432-5.41l-.039.084-.043.08-.043.085-.05.09-.028.04-.027.044-.031.044-.032.045-.031.044-.035.045-.04.044-.038.044-.04.049-.042.044-.044.049-.046.048-.051.049-.051.048-.055.048-.058.053-.059.048-.062.052-.063.053-.066.056-.07.053-.075.056-.078.053-.078.056c-.196.137-.41.424-.247.823.165.404.47.968.286 1.19-.184.222-.837.335-1.369.117 0 0-.113.347-.305.57 0 0 .094.189.4.092 0 0-.114.286.042.593 0 0 .356-.065.508-.403 0 0 .141.266.426.358 0 0 .239-.124.184-.609 0 0 .172.432.708.505 0 0 .304-.4-.094-.936 0 0 .285.262.805.137 0 0 .082-.274-.387-.654 0 0 .532-.024.735-.484 0 0-.227-.286-.778-.222 0 0 .512-.117.625-.746 0 0-.367-.242-.95.145 0 0 .102-.202.349-.404.242-.192.539-.753.437-1.576zm-2.136 6.355l.015-.02.012-.02.012-.02.016-.02.011-.02.012-.02.011-.017.012-.02.012-.02.008-.02.012-.02.008-.02.011-.017.008-.02.008-.02.008-.02c-.09.766-.122 1.283-.524 1.779 0 0-.243-.33-.086-1.138.07-.02.14-.052.215-.105 0 0-.09.327-.035.658 0 0 .144-.11.254-.88zm.695-.082l.008-.003.004-.008.004-.009.004-.003.008-.008.004-.008.007-.009.004-.008.008-.008.004-.012.016-.016.011-.02.012-.02.016-.02.011-.02.012-.02.012-.02.012-.017.011-.02.008-.012.004-.008.004-.008.004-.008c.035.444.148 1.614-.23 1.981 0 0-.263-.198-.353-1.904.055.097.153.197.196.254 0 0-.063.54.125.924 0-.001.191-.15.074-.97zm.905.896l-.032-.036-.027-.044-.028-.049-.023-.052-.027-.053-.02-.056-.023-.06-.02-.061-.02-.065-.02-.064-.015-.065-.02-.068-.027-.134-.015-.064-.012-.065-.012-.064-.008-.06-.011-.06-.008-.062-.008-.056-.008-.052-.007-.049-.005-.044-.003-.044-.004-.037-.004-.016V14.4l-.004-.016v-.025l-.004-.008v-.032a1.05 1.05 0 01-.133-.1c-.02-.017-.039-.03-.054-.05 0 .045 0 .09-.008.134.05.71.105 1.445.32 1.812.211.359.599.545.599.545.363-.67-.075-1.566-.446-2.191a1.029 1.029 0 01-.137-.06c.128.479.37 1.047.273 1.487zm.903-2.052v.056l-.004.012v.024l-.004.004v.016l-.004.004v.016l-.003.004v.012l-.004.004v.016l-.004.005c-.004.008-.008.028-.016.048.305.303.532.601.981 1.247a1.6 1.6 0 001.17.673c-.071-.524-.212-.94-.595-1.384-.38-.448-.871-.855-1.227-1.125a.644.644 0 01-.368.052c-.016 0-.023-.004-.035-.004a.57.57 0 01.094.19c.27.161 1.063.577 1.384 1.242 0 .002-.5-.16-1.365-1.112zm.567-.651l-.031-.06a.322.322 0 00-.032-.049c.294.117 1.341.524 1.681.706.34.182.83.593 1.095 1.432 0 0-.708.065-1.29-.435-.583-.497-1.263-1.195-1.556-1.416a.314.314 0 00.07-.077s.79.723 1.627 1.033c0 0-.18-.33-.513-.577-.398-.295-.7-.392-1.051-.557zm.598-.496l-.004-.008-.004-.012-.004-.012-.008-.008-.004-.012-.004-.013-.003-.008-.005-.012c.344.077 1.212.182 1.6.303.382.121 1.082.416 1.497 1.23 0 0-.61.194-1.76-.362-1.145-.557-1.505-.674-1.724-.735a.78.78 0 00.364-.113c.458.21 1.067.46 1.677.476 0 0-.3-.217-.617-.354a7.465 7.465 0 00-1.001-.36zm-.026-.59l-.02.012-.019.008-.023.008-.02.013-.02.003-.02.008-.019.009-.019.004-.02.008-.023.004-.02.004-.023.004-.023.005-.012.004h-.028l-.011.004h-.012l-.016.004a.984.984 0 01.227.21c.403.121 1.091.25 2.229.335 1.137.089 1.743-.13 1.743-.13a4.997 4.997 0 00-1.454-.588c-.426-.085-1.548-.073-2.04-.145a.986.986 0 01-.165.117c.414.04 1.298.08 1.751.315 0-.002-.837.115-1.943-.216z" fill="#fff"/><path d="M44.12 13.52l-.012-.016-.008-.005-.007-.008-.008-.008-.004-.004-.008-.008-.004-.004-.008-.008-.003-.008-.008-.004-.004-.008-.008-.005-.004-.008-.008-.004-.004-.008c-.062.08-.258.335-.356.59-.07.213-.152.508-.187.673-.043.173-.157.52-.227.641 0 0 .309.045.54-.238.226-.27.308-.544.34-.827.027-.22.02-.527-.012-.733zm.495.042l-.004.008-.008.008-.004.004-.003.008-.008.008-.004.004-.004.004-.008.008-.004.004-.004.004-.004.004-.008.008-.003.004-.004.004h-.004l-.004.004-.004.004-.004.004-.004.004h-.004l-.004.004h-.003l-.004.004-.004.004h-.004v.004h-.008v.004l-.04.02-.046-.012c-.035-.016-.07-.032-.106-.044-.043.125-.062.19-.074.303-.016.145-.043.375.012.564.066.23.195.368.27.46 0 0 .206-.233.261-.423.063-.198.086-.432.008-.67a.917.917 0 00-.164-.314zm.705.018l-.02-.004h-.02l-.02-.004-.019-.004-.035-.008-.035-.008-.035-.012-.031-.008-.031-.012-.032-.012-.031-.016-.027-.012-.028-.016-.027-.013-.023-.016-.028-.016-.023-.016-.02-.016c-.027.072-.07.177-.039.318.031.146.13.311.27.424.207.174.488.335.797.283 0 0 .074-.239-.544-.832zm.23-.4l-.003.021-.004.02-.004.017v.02l-.004.016-.003.016-.008.02-.004.017-.004.016-.004.012-.008.016-.004.016-.004.012-.008.013-.004.012-.008.012-.003.012-.004.012-.008.008-.004.008-.004.012-.004.008-.008.005-.004.008-.003.008-.005.004v.004l-.003.004-.004.004v.004h-.004v.004c.07.09.336.553.883.477 0 0 .145-.32-.218-.57-.247-.174-.364-.207-.532-.267zm-.048-.399l.027.008.031.008.032.005.031.004.031.004.031.004h.036l.035.004h.035l.039-.004h.035l.04-.004.019-.004h.023l.02-.004.02-.005.019-.004.023-.004.02-.004.02-.008.062-.012.023-.065c.278.238.614.278.727.492 0 0-.14.267-.504.218a1.2 1.2 0 01-.833-.472 1.222 1.222 0 00-.042-.157zm.633-.331l-.004-.008-.004-.008-.012-.016-.008-.016-.007-.02-.012-.017-.008-.02-.011-.02-.012-.02-.008-.02-.012-.025-.008-.012-.007-.008-.004-.012-.008-.012-.008-.012-.008-.008-.008-.013-.008-.012-.011-.011-.008-.012-.012-.013-.008-.008a1.78 1.78 0 01.74.008c.335.065.68.146.851.67 0 0-.218.194-.61.11-.328-.07-.62-.219-.785-.465zm.138-.573l.016-.016.016-.012.015-.016.016-.016.016-.016.015-.02.012-.017.016-.016.011-.02.016-.02.012-.021.012-.02.011-.024.012-.02.011-.025.012-.024.028-.065c.293-.12.594-.185.89-.072.298.116.376.25.45.363 0 0-.328.286-.703.298-.38.009-.731-.104-.884-.22zm-.086-.616l-.02-.008-.01-.004h-.008l-.012-.004-.008-.004-.012-.005-.012-.004h-.011l-.008-.004-.012-.004h-.011l-.012-.004-.012-.005h-.011l-.012-.004c.133-.117.254-.294.316-.565.141.033.454.033.595-.02a.723.723 0 01.629.089s-.07.383-.559.516c-.454.127-.626.095-.81.03zm.175-.755l-.063-.045c-.008-.004-.117-.072-.301-.085.156-.124.528-.447.79-.597.289-.165.766-.39 1.008-.424 0 0-.226.618-.492.868-.274.259-.465.355-.942.283zm-.491-.287l.024-.029.02-.032.019-.032.02-.032.019-.037.02-.036.019-.037.016-.04.015-.04.02-.04.015-.041.016-.044.011-.045.016-.044.012-.049.015-.044c.051-.21.18-.718.255-.856.074-.133.343-.592.867-.738 0 0 .137.6-.125 1.085-.23.413-.695.848-1.274 1.13zm-2.905 2.816l-.016.012-.012.012-.011.012-.012.008-.012.013-.012.008-.011.012-.012.008-.015.008-.016.012-.004.005-.008.004-.008.004-.008.008-.011.004-.008.005-.008.003-.008.008-.011.005-.008.004-.012.008-.011.004s-.165.331.035.726c.203.4.375.807.457 1.033 0 0 .11-.016.23-.641.083-.42.188-.529.294-.67a.773.773 0 01-.223.077l-.078.02-.04-.08a.832.832 0 01-.093-.392.9.9 0 01.008-.11.38.38 0 01-.329-.14c-.004-.008-.004-.008-.012-.012l-.015.022z" fill="#fff"/><path d="M46.214 14.141l.039.04.039.04.043.045.043.049.047.048.043.053.05.056.047.056.051.061.047.06.051.065.05.065.048.068.047.073.05.072.044.073.046.077.043.076.043.077.04.08.034.082.036.084.03.081.028.089.027.084.02.085.02.089.015.089.008.089.004.092v.089l-.004.093s-.763-.246-1.075-.823c-.313-.573-.505-.94-.637-1.07a.853.853 0 00.25 0l.07-.011c.196.363.575.96.92 1.166 0 0 .089-.484-.923-1.46a.743.743 0 00-.067-.134.81.81 0 00.32.048m-5.877-7.79V6.34l.004-.008.004-.004.004-.008.008-.004.007-.009.008-.004.012-.008.012-.004.011-.008.016-.004.016-.004.015-.009.02-.004.02-.004.019-.004.02-.004.019-.004.023-.004.024-.004.023-.004.027-.004.024-.005h.027l.028-.004.027-.004h.058l.027-.004h.09c.329 0 .595.06.595.133 0 .069-.266.13-.595.13-.327 0-.593-.06-.593-.128zm-2.019.705v-.004l.003-.004V7.04l.004-.004.004-.004.008-.004h.004l.008-.005.008-.004.007-.004h.008l.012-.004.012-.004.007-.005h.016l.012-.004h.011l.016-.004.016-.004h.011l.016-.004h.035l.016-.004h.035l.02-.004h.097c.207 0 .383.032.383.072 0 .04-.176.069-.383.069-.214.002-.386-.027-.386-.067zm2.73-.422v.028l-.003.004v.008l-.004.004v.009l-.005.004v.004l-.003.004-.004.008-.004.004-.004.005-.004.004L41 6.72l-.004.004-.004.004-.004.005-.003.004-.004.004h-.004l-.008.004-.004.004h-.004l-.008.004h-.012l-.003.004h-.02a.12.12 0 01-.117-.125c0-.06.054-.117.117-.117a.115.115 0 01.117.115zm-.752-.414l-.02-.048-.015-.044-.02-.04-.015-.045-.016-.04-.016-.044-.02-.04-.01-.037-.017-.04-.015-.037-.012-.037-.015-.036-.012-.036-.012-.032-.011-.033-.012-.032-.012-.032-.008-.028-.008-.029-.011-.028-.008-.024-.008-.025-.004-.024-.008-.024-.004-.02-.003-.02-.004-.02-.004-.017-.004-.016v-.04c.004-.073.086-.125.164-.15.082-.024.149-.032.204.008.101.085.199.739.23 1.013a.892.892 0 00-.274.097zm.362-.103l.008-.004h.027l.02-.004h.059l.038-.004a8.015 8.015 0 00-.172-.868c-.05-.173-.117-.294-.227-.327 0 0 .086.238.133.484.047.247.079.49.114.723zm-.627.87l.023-.004.02-.008.019-.008.02-.008.019-.008.023-.012.02-.008.02-.013.019-.012.016-.012.02-.012.019-.012.015-.012.02-.013.015-.011.016-.017.015-.012.012-.012.016-.012.012-.008.011-.012.012-.012.012-.008.012-.012.008-.008.008-.004.003-.008.008-.008.004-.004h.004v-.005c-.351.053-.441.295-.441.295z" fill="#fff"/><path d="M40.346 6.964l-.031.016-.028.013-.027.016-.032.012-.027.012-.027.012-.032.008-.027.012-.027.008-.028.004-.027.008-.027.009-.024.004-.027.004-.023.004-.024.004h-.023l-.02.004h-.019l-.02.004h-.125a.952.952 0 01.317-.379c.191-.141.5-.177.621-.161a.844.844 0 01-.293.386zm-.069.164c-.227.109-.93.121-1.31.141h-.244l-.03-.01h-.038l-.03-.01h-.03l-.029-.01-.029-.01h-.03l-.029-.01h-.03l-.029-.01H38.4l-.03-.01-.019-.01h-.019l-.02-.01-.019-.01h-.03l-.01-.01h-.009l-.02-.01h-.01c.044.856.607.908.607.908-.008-.068 0-.182 0-.182.176.17.538.293.538.293a.658.658 0 00-.04-.192c.153.093.245.09.245.09a.982.982 0 00-.088-.261.358.358 0 00.234.151c.024-.068-.02-.242-.02-.242.055.069.157.25.47.323.32.068.46-.121.46-.121-.306.02-.597-.283-.597-.283a.44.44 0 00.225-.181.36.36 0 00-.195-.09.425.425 0 00.224-.234zm-1.075.323v.03s-.489.002-.508.252c-.079-.052-.118-.149-.137-.262 0 0 .348.02.645-.02zm-1.074-.246l.004.037.004.032.004.036.004.033.004.036.007.032.008.032.008.033.008.032.008.032.008.028.011.029.008.028.012.028.012.025.012.024s-.223-.17-.278-.319c-.055-.15-.07-.247.156-.178zm-.658.165a.323.323 0 00-.243.142.489.489 0 00.166.646s.357-.321.791-.01c0 0 .096-.059.323-.112v-.01h-.01v-.01l-.01-.01-.01-.01h-.01v-.01l-.009-.01-.01-.01-.01-.01-.009-.01-.01-.01h-.01l-.01-.02h-.01l-.01-.02h-.009l-.01-.01-.019-.01-.01-.01-.01-.01-.019-.01-.01-.01-.009-.01-.02-.01h-.01l-.02-.01-.01-.01c-.132-.06-.406-.146-.488-.404a.762.762 0 00-.264-.021zm.206.344c.051 0 .098.048.098.1v.02h-.01v.02h-.01v.02h-.009v.01h-.01v.01h-.019v.01h-.02l-.01.01h-.01c-.05 0-.088-.048-.088-.1 0-.052.037-.1.088-.1zm.884.379l.003.004.004.004v.004h.004l.004.008.003.004.008.008.004.013.008.008.008.008.008.012.008.012.012.008.007.012.012.012.008.016.012.012.023.025.02.024.023.028.012.012.011.012.012.013.012.012.011.008.012.012.012.008.012.012s-.587-.008-.731.516c0 0-.2-.322-.055-.528.156-.223.305-.255.512-.3z" fill="#fff"/><path d="M39.2 8.218l.003.004h.008l.004.004h.012l.008.004.007.004h.008l.012.004.008.005h.011l.008.004.012.004.02.004.02.008.023.004.008.004.011.004.008.004h.012l.007.005.008.004h.008l.008.004h.008l.007.004s0-.113-.003-.165c.058.012.125.032.187.04 0 0 .188.428.336.601 0 0 .008.101-.074.242 0 0-.11-.25-.297-.46a2.243 2.243 0 00-.399-.336zm-.497-.088h.004l.008.004h.012l.007.004.012.004.012.004.015.005.012.003.016.008.016.004.015.005.02.008.016.004.019.008.016.008.02.008.038.016.04.016.038.016.035.017.02.012.02.008.015.008.02.012.015.008.016.008.015.012.012.008c.184.137.309.29.29.56 0 0-.145-.213-.31-.31a1.768 1.768 0 01-.484-.468zm.002-1.96h.012l.004.004h.019l.008.004h.012l.008.005h.008l.003.004h.008l.008.004.008.004.004.004.008.004.004.004.007.005.004.004.008.004.004.004.004.004.004.008.004.005.004.008.004.004v.008l.003.004v.012l.004.005v.012c0 .093-.14.315-.18.412-.039-.097-.175-.319-.175-.412 0-.093.105-.12.16-.12h.031V6.17zm-.12.721l-.003-.016-.004-.012v-.016l-.004-.016-.004-.016-.004-.016-.004-.02v-.017l-.004-.02-.004-.02-.008-.04-.011-.041-.008-.045-.008-.04-.008-.02-.004-.02-.003-.016-.008-.02-.004-.017-.008-.016-.004-.016-.008-.016-.008-.016-.003-.012-.008-.013-.008-.012-.008-.008-.004-.008a.34.34 0 00-.238-.073.105.105 0 00-.09.138c.024.076.266.451.297.496.055-.008.043-.008.183-.016zm.21 0l.004-.016.004-.012v-.016l.004-.016.004-.016.003-.016.004-.02.004-.017.004-.02.004-.02.008-.04.008-.041.007-.045.012-.04.004-.02.004-.02.008-.016.004-.02.008-.017.003-.016.008-.016.004-.016.008-.016.004-.012.008-.013.007-.012.008-.008.004-.008a.335.335 0 01.238-.073c.055.005.11.061.09.138-.023.076-.265.451-.297.496-.054-.008-.046-.008-.183-.016zm.158-1.174h-.187v-.214h-.153v.214h-.187v.137h.187v.25h.153v-.25h.187v-.137zM36.674 7.1v-.06l.004-.016v-.029l.004-.008V6.98c.012-.105.015-.197.004-.27-.137.053-.23.089-.414.4 0 0 .297-.19.402-.009z" fill="#fff"/><path d="M36.931 7.598V7.59l.004-.013V7.55l.004-.012v-.012l.004-.016.004-.012V7.48l.004-.013.004-.016v-.016l.004-.016.004-.02.004-.016.008-.033.007-.036.012-.037.008-.036.012-.036.011-.037.012-.036.004-.016.008-.016c.078-.21.027-.517-.063-.698-.086-.181-.137-.351-.121-.537 0 0-.176.06-.278.125-.015.218.106.432.164.553.067.146.055.331.04.448a.915.915 0 00.14.606zm.022-1.65v-.013h-.004V5.87l.004-.005v-.02l.004-.004v-.009l.004-.003s.277-.279.508-.327a.32.32 0 01.285.072s-.086-.008-.207.097c-.125.101-.277.23-.399.262-.113.03-.14.023-.195.015zm.819-.348l.02.02.02.021.02.02.015.02.02.021.015.02.004.008.007.012.008.008.008.012.004.013.008.008.004.012.008.008.004.008.004.012.003.008.004.012.004.008.004.012.004.008v.013l.004.008v.028c-.004.101-.117.36-.18.456-.059.097-.145.226-.137.38.004.08.059.16.122.225 0 0-.34-.084-.38-.298-.039-.194.04-.331.094-.44.05-.101.211-.335.246-.432.04-.09.055-.162.043-.21zm1.986 2.437l.012.044.015.049.016.044.016.044.015.045.02.044.02.045.019.04.02.04.019.045.02.04.019.037.023.04.02.036.02.037.023.032c.102.165.164.44.156.532 0 0 .153-.35.074-.597-.058-.193-.226-.476-.527-.597zm.381.081h.031l.008.004h.043l.012.005h.023l.016.004h.011l.016.004h.012l.015.004.016.004.011.004.016.004h.012l.015.008.012.005.016.004.011.004.012.008.012.004.011.008.012.004c.141.097.274.303.325.553 0 0-.239-.04-.352-.161a1.401 1.401 0 01-.316-.47zm-1.206.435h-.023l-.008.004h-.011l-.008.004h-.016l-.008.004-.016.004-.015.004h-.016l-.015.004-.016.004-.016.005-.008.004h-.007l-.008.004h-.008l-.004.004h-.015l-.004.004s.2.06.297.142a.628.628 0 01.191.371c.051.262.2.545.243.63l.02-.004c-.032-.182.078-.553.109-.606 0 0-.16-.105-.23-.21-.056-.078-.146-.207-.408-.372zm1.032.561l.008.013.004.012.008.016.008.016.007.012.004.016.008.02.012.017.008.016.007.02.016.037.016.036.004.02.008.02.007.025.004.02.008.02.004.02.004.025.004.02.004.024.004.025v.068l-.004.024v.02l-.004.025-.004.024-.008.024c-.07.254-.227.363-.328.577 0 0-.079-.387-.063-.686.02-.304.125-.417.254-.526zm.45.009v.004l.004.004v.005l.004.004v.004l.004.004.004.004v.008l.004.008.007.012.008.016.008.02.011.02.008.02.012.025.012.02.012.024.008.029.011.024.012.024.016.028.023.057.02.052.011.028.012.025.012.024.008.028.007.025.008.02.008.024.008.02.004.02.008.017a.466.466 0 01-.079.407c-.078.11-.21.23-.336.456 0 0-.14-.193-.16-.294a1.443 1.443 0 01.043-.448c.031-.101.153-.433.258-.768zm.117 1.479l-.003.005h-.005v.004l-.003.004-.004.004-.004.008-.012.008-.008.012-.011.012-.012.016-.012.013-.011.016-.012.016-.016.02-.015.017-.012.02-.016.016-.031.04-.027.036-.016.02-.012.02-.015.021-.012.016-.011.02-.012.016-.012.017-.012.016-.011.016-.008.016-.008.012-.004.012-.004.008-.004.004v.004l-.004.005c-.035.1-.098.282-.015.411.09.13.277.335.445.424 0 0-.18-.294-.164-.537.012-.157.129-.294.153-.387a.75.75 0 00-.06-.4zm-.531-.185l.004.004.004.008.004.004.004.008.008.009.003.008.004.008.004.008.004.012.008.008.004.012.004.008.004.013.003.008.012.024.008.024.008.024.008.025.007.024.008.024v.016l.004.012.004.012v.03l.004.012c.008.137-.012.25-.086.456a5.89 5.89 0 01-.301.67s-.13-.19-.2-.356c0 0 .2-.282.282-.48.102-.235.14-.453.18-.634zm-.09-.113v.004l-.004.004v.024l-.004.016-.004.017-.004.024-.004.024-.008.028-.003.028-.008.033-.008.036-.011.036-.008.037-.012.04-.012.044-.015.04-.012.045-.016.048-.02.045-.015.048-.02.048-.02.049-.023.048-.023.049-.027.048-.024.049-.031.052-.028.048-.031.044-.031.049-.035.048c-.254.331-.462.448-.598.448-.208 0-.415-.181-.485-.383s-.047-.52.086-.63c0 0 .125.396.387.412.3.016.684-.33 1.071-1z" fill="#fff"/><path d="M39.602 10.03l.004.013v.012l.004.012v.012l.008.024.004.028v.028l.004.029.003.028v.093l-.003.032-.004.033v.032l-.008.032-.004.032-.008.033a.673.673 0 01-.254.395.373.373 0 01-.543-.194s.547.044.797-.674zm.895 2.663l.008.017.007.02.012.02.008.02.012.02.011.02.016.021.011.02.028.04.027.041.031.04.028.04.027.041.016.016.011.02.012.02.012.021.011.016.012.02.008.016.008.02.008.017.008.016.004.016.004.016v.016l.003.013c-.007.411-.184.661-.222.799 0 0-.317-.263-.372-.561-.03-.155 0-.615.25-.84zm-.357.29l.004-.012.003-.012.004-.012.008-.013.004-.016.008-.012.004-.016.008-.016.008-.016.007-.02.008-.016.008-.016.016-.037.02-.036.019-.04.02-.037.011-.016.008-.016.011-.016.012-.017.012-.016.011-.016.012-.016.012-.012.012-.013.011-.011.012-.013.012-.012s.176-.524-.38-.847c0 0-.23.31-.289.61-.062.294.243.471.383.738zm-.693-1.331l-.02.025-.019.02-.015.024-.02.024-.02.02-.019.024-.023.025-.02.02-.02.02-.019.025-.012.008-.011.008-.008.012-.012.008-.008.008-.011.008-.008.008-.012.005-.008.008-.011.008-.008.003-.012.005s-.035.234-.012.39c.028.231.172.469.235.646 0 0 .242-.33.27-.524.027-.194.023-.35.03-.444 0 0-.132-.226-.207-.384zm-.646 1.129l-.008-.012-.007-.012-.008-.016-.008-.012-.012-.02-.008-.017-.011-.02-.012-.02-.012-.024-.012-.02-.011-.025-.012-.028-.012-.024-.011-.029-.016-.024-.012-.028-.023-.057-.024-.06-.02-.06-.007-.029-.012-.028-.008-.032-.007-.029-.004-.028-.008-.032-.004-.029-.004-.028v-.028l-.004-.029s.277.154.508.04c0 0 .028.38-.016.505a.486.486 0 01-.195.255zm.062.083l.008-.005.004-.004.004-.008.008-.004.004-.004.008-.004.004-.008.008-.005.007-.008.004-.004.016-.016.012-.012.015-.016.016-.013.011-.016.016-.012.008-.008.004-.004.008-.008.007-.008.004-.004.004-.008.008-.005.004-.008.004-.004.004-.008s.183.347.215.448c0 0-.09.02-.192-.052a1.293 1.293 0 01-.223-.192zm.848-.208l-.004.004v.005l-.004.008v.004l-.004.008-.004.004-.003.008-.004.008-.008.017-.008.016-.012.02-.011.016-.012.02-.012.024-.016.02-.011.025-.016.02-.016.024-.031.045-.031.048-.016.02-.016.025-.011.02-.016.02-.015.02-.012.02-.012.017-.015.016-.008.016-.012.012-.004.004-.004.008-.004.005-.004.004-.004.004-.003.004-.004.005-.004.003s.023.154.133.372c.11.222.261.375.344.451 0 0 .18-.326.234-.468.063-.165.055-.33.028-.391-.063-.143-.274-.349-.368-.53zm.44 1.106l.004.016.008.012.008.016.007.012.012.016.008.017.012.012.007.016.012.016.012.02.023.033.02.036.023.032.024.036.023.036.02.037.008.02.012.016.007.02.008.016.008.016.008.02.004.017.004.02.007.016v.016a.659.659 0 01-.03.347c-.04.093-.157.278-.235.42 0 0-.27-.263-.329-.448a.69.69 0 01.04-.468c.062-.125.203-.258.265-.391zm-.761-.037l.007.016.008.016.008.012.008.016.008.016.007.012.02.028.02.033.019.028.023.029.02.028.02.028.019.028.02.028.007.012.008.016.008.013.008.016.007.012.008.011.004.017.008.012.004.012.004.016a.608.608 0 01-.016.452c-.07.165-.148.262-.176.363 0 0-.219-.29-.258-.411a.87.87 0 01-.004-.448c.048-.129.126-.294.18-.411zm1.073 1.115v.004h-.004v.004l-.004.004-.004.004-.004.004-.004.004-.004.008-.003.004-.008.008-.004.008-.008.008-.012.016-.012.02-.015.021-.016.02-.015.024-.016.024-.02.025-.015.028-.02.028-.015.028-.02.029-.015.028-.016.032-.016.028-.015.029-.016.032-.012.028-.011.028-.012.032-.008.029-.012.028-.004.024-.004.028-.003.012v.036c.011.311.21.513.238.707 0 0 .2-.23.274-.383.082-.178.148-.323.125-.52-.024-.198-.075-.324-.27-.521zm-.689-.048l.004.008.008.012.008.013.007.011.008.012.008.017.008.016.008.016.011.016.008.016.008.02.012.016.008.02.007.02.016.041.008.024.008.02.007.02.008.02.004.025.008.02.004.02.004.02.004.025.003.02v.076l-.003.02-.004.017c-.047.181-.235.435-.297.548 0 0-.15-.314-.18-.46-.031-.145-.004-.379.297-.669zm3.759-7.74v-.004l-.004-.004V7.04l-.003-.004-.004-.004-.004-.004h-.008l-.008-.005-.008-.004-.007-.004h-.008l-.012-.004-.008-.004-.012-.005h-.011l-.016-.004h-.012l-.015-.004-.012-.004h-.015l-.016-.004h-.031l-.02-.004h-.035l-.016-.004h-.098c-.21 0-.382.032-.382.072 0 .04.172.069.383.069.21.002.382-.027.382-.067zm-2.608-1.215l.003-.016.004-.02.004-.02.004-.02.008-.02.008-.021.008-.024.007-.025.008-.024.008-.024.02-.049.019-.052.02-.052.019-.049.02-.052.007-.025.012-.024.008-.024.004-.024.008-.02.008-.025.003-.02.004-.02.004-.02.004-.02v-.033a.23.23 0 00-.227-.234.23.23 0 00-.227.234c0 .165.2.544.223.722h.009v.001zm.63.379l.02-.048.019-.044.015-.04.02-.045.016-.04.015-.044.016-.04.016-.037.015-.04.012-.037.016-.037.011-.036.016-.036.012-.032.012-.033.011-.032.008-.032.012-.028.008-.029.008-.028.008-.024.007-.025.008-.024.004-.024.008-.02.004-.02.004-.02v-.017l.004-.016v-.04c0-.073-.086-.125-.16-.15-.087-.024-.153-.032-.208.008-.102.085-.196.739-.235 1.013.102.02.164.037.278.097zm-.358-.103l-.012-.004h-.027l-.02-.004h-.058l-.02-.004h-.015a7.1 7.1 0 01.168-.868c.055-.173.117-.294.227-.327 0 0-.082.238-.129.484-.047.247-.083.49-.114.723zm.183.575h.005v.005h.004v.004h.004l.004.008.007.008.008.004.008.008.011.012.008.008.012.012.012.012.015.008.012.012.016.012.016.012.015.017.016.011.02.013.015.012.02.012.015.012.02.012.02.012.019.013.02.008.019.012.02.008.023.008.02.008.019.008.02.004s-.09-.242-.442-.295z" fill="#fff"/><path d="M41.201 6.576h.024l.015-.004h.047l.016.004h.039l.02.005h.019l.02.004.019.004h.023l.02.004.023.004.02.008.023.004.024.005.02.008.023.008.023.004.02.008.023.008.024.008.02.012.019.008.023.012.02.012.02.008.015.017.02.011a.933.933 0 01.32.38s-.344.028-.645-.154a.825.825 0 01-.297-.388z" fill="#fff"/><path d="M41.565 7.128s.04.147.215.232c0 0-.096.006-.186.09 0 0 .059.118.215.182 0 0-.287.303-.596.283 0 0 .142.19.46.12.316-.072.41-.254.468-.322 0 0-.039.173-.02.242 0 0 .136-.01.245-.152 0 0-.082.142-.098.263 0 0 .088.002.244-.091 0 0-.035.087-.039.192 0 0 .368-.123.548-.293v.13l-.01.01v.04s.563-.052.606-.907c0 0-.37.14-.753.12-.374-.018-1.076-.03-1.299-.14zm1.065.323c.297.04.655.02.655.02v.02h-.01v.02l-.01.02v.021l-.009.01v.02l-.01.01v.02h-.01v.01l-.009.01v.01l-.01.01-.01.01v.01h-.01l-.009.01v.01h-.01l-.01.01v.01h-.01l-.01.01-.01.01c-.019-.25-.507-.252-.507-.252v-.03zm1.085-.246l-.004.037-.004.032-.004.036-.004.033-.008.036-.004.032-.008.032-.007.033-.008.032-.008.032-.012.028-.007.029-.012.028-.008.028-.012.025-.011.024s.222-.17.277-.319c.055-.15.067-.247-.156-.178zm.471.165l-.02.01h-.019l-.02.01h-.019c-.082.258-.361.343-.498.404-.145.072-.284.242-.284.242.227.052.333.11.333.11.433-.31.791.01.791.01.235-.14.284-.472.166-.645l-.02-.02-.009-.02-.01-.01-.02-.01-.009-.01-.02-.01-.009-.01-.02-.01-.019-.01-.01-.01h-.019l-.02-.01h-.019l-.01-.01h-.216zm-.03.343h.03v.01h.02v.01h.009l.01.01v.01h.01v.01h.01v.04l.009.01c0 .053-.047.101-.098.101-.05 0-.088-.048-.088-.101.001-.052.038-.1.089-.1zm-.873.38h-.004v.004h-.004v.004l-.004.004-.004.008-.007.004-.004.008-.008.013-.008.008-.004.008-.011.012-.008.012-.008.008-.012.012-.008.012-.011.016-.008.012-.024.025-.023.024-.02.028-.011.012-.012.012-.012.013-.011.012-.012.008-.012.012-.011.008-.012.012s.582-.008.731.516c0 0 .2-.322.055-.528-.157-.223-.306-.255-.513-.3z" fill="#fff"/><path d="M42.641 8.218h-.003v.004h-.012v.004h-.016l-.004.004-.008.004h-.011l-.008.004-.008.005h-.012l-.008.004-.011.004-.02.004-.024.008-.019.004-.011.004-.008.004-.012.004h-.008l-.012.005-.007.004h-.008l-.008.004h-.008l-.004.004s-.004-.113.004-.165c-.058.012-.129.032-.192.04 0 0-.183.428-.332.601 0 0-.008.101.074.242 0 0 .106-.25.297-.46.106-.114.177-.175.4-.336zm.499-.088h-.007l-.008.004h-.008l-.011.004-.012.004-.012.004-.012.005-.015.003-.016.008-.016.004-.015.005-.016.008-.02.004-.015.008-.02.008-.02.008-.038.016-.04.016-.035.016-.039.017-.019.012-.016.008-.02.008-.015.012-.016.008-.015.008-.016.012-.012.008c-.183.137-.309.29-.293.56 0 0 .149-.213.313-.31.129-.073.363-.283.485-.468zm-.003-1.96h-.012l-.004.004h-.02l-.007.004h-.012l-.008.005h-.008l-.003.004h-.008l-.008.004-.008.004-.004.004-.008.004-.003.004-.008.005-.004.004-.008.004-.004.004-.004.004-.004.008-.004.005-.004.008-.004.004v.008l-.003.004v.012l-.004.005v.012c0 .093.14.315.18.412.039-.097.175-.319.175-.412 0-.093-.106-.12-.164-.12h-.027V6.17zm.119.721l.004-.016v-.012l.003-.016.004-.016v-.016l.004-.016.004-.02.004-.017.004-.02.004-.02.008-.04.008-.041.007-.045.012-.04.004-.02.008-.02.004-.016.004-.02.007-.017.004-.016.008-.016.008-.016.004-.016.008-.012.008-.013.003-.012.008-.008.008-.008a.331.331 0 01.239-.073c.055.005.11.061.09.138-.024.076-.266.451-.298.496-.054-.008-.047-.008-.183-.016zm-.216 0v-.016l-.003-.012-.004-.016-.004-.016v-.016l-.004-.016-.004-.02-.004-.017-.004-.02-.004-.02-.008-.04-.007-.041-.012-.045-.008-.04-.008-.02-.003-.02-.004-.016-.008-.02-.004-.017-.008-.016-.004-.016-.008-.016-.008-.016-.003-.012-.008-.013-.008-.012-.004-.008-.008-.008a.326.326 0 00-.238-.073.105.105 0 00-.086.138c.02.076.262.451.297.496.054-.008.043-.008.18-.016zm-.151-1.174h.183v-.214h.157v.214h.187v.137h-.187v.25h-.157v-.25h-.183v-.137zm-2.262-1.271h.192v-.214h.148v.214h.192v.137h-.192v.25h-.148v-.25h-.192v-.137zm4.54 2.654v-.028l-.004-.016v-.048l-.004-.005V6.98a.925.925 0 01-.008-.27c.137.053.231.089.415.4 0 0-.297-.19-.4-.009z" fill="#fff"/><path d="M44.913 7.598l-.004-.008v-.03l-.004-.012v-.012l-.004-.012v-.016l-.004-.012V7.48l-.004-.013-.004-.016-.004-.016-.003-.016-.004-.02-.004-.016-.008-.033-.008-.036-.008-.037-.011-.036-.008-.036-.012-.037-.012-.036-.004-.016-.007-.016c-.075-.21-.032-.517.058-.698.09-.181.14-.351.121-.537 0 0 .18.06.278.125.016.218-.106.432-.16.553-.07.146-.059.331-.04.448a.918.918 0 01-.14.606zm-.022-1.65v-.083l-.003-.004v-.02l-.005-.004v-.008s-.281-.279-.512-.327a.3.3 0 00-.277.072s.078-.008.203.097c.125.101.277.23.395.262.117.03.14.023.2.015zm-.826-.348l-.02.02-.02.021-.015.02-.02.02-.015.021-.016.02-.008.008-.007.012-.008.008-.004.012-.008.013-.008.008-.004.012-.004.008-.008.008-.004.012-.003.008-.005.012-.003.008v.012l-.004.008-.004.013v.036c0 .101.117.36.176.456.059.097.152.226.14.38a.401.401 0 01-.12.225s.34-.084.378-.298c.04-.194-.043-.331-.098-.44-.05-.101-.207-.335-.246-.432-.035-.09-.054-.162-.042-.21zm-1.978 2.437l-.016.044-.016.049-.012.044-.02.044-.015.045-.015.044-.02.045-.02.04-.019.04-.02.045-.019.04-.023.037-.02.04-.02.036-.023.037-.02.032c-.105.165-.171.44-.156.532 0 0-.156-.35-.078-.597.062-.193.227-.476.532-.597zm-.387.081h-.028l-.008.004h-.043l-.012.005h-.027l-.011.004h-.016l-.012.004h-.016l-.011.004-.016.004-.015.004-.012.004h-.016l-.015.008-.012.005-.012.004-.015.004-.012.008-.012.004-.011.008-.012.004c-.137.097-.274.303-.32.553 0 0 .234-.04.351-.161.113-.119.258-.3.312-.47zm1.209.435h.027l.004.004h.012l.008.004h.015l.008.004h.008l.008.004.015.004h.016l.015.004.016.004.016.005.008.004h.008l.007.004h.008l.004.004h.012l.008.004s-.2.06-.302.142a.606.606 0 00-.187.371c-.05.262-.2.545-.246.63l-.016-.004c.027-.182-.082-.553-.11-.606 0 0 .157-.105.231-.21.051-.078.145-.207.407-.372zm-1.032.561l-.008.013-.004.012-.008.016-.007.016-.008.012-.008.016-.008.02-.008.017-.007.016-.008.02-.016.037-.015.036-.008.02-.008.02-.008.025-.004.02-.008.02-.004.02-.003.025-.004.02-.004.024-.004.025v.112l.004.025.008.024.003.024c.075.254.235.363.337.577 0 0 .078-.387.058-.686-.016-.304-.12-.417-.25-.526zm-.954.706v-.012l.004-.016.008-.016.004-.02.011-.016.008-.02.012-.02.012-.021.011-.024.012-.02.016-.025.015-.024.016-.024.012-.024.03-.049.032-.048.016-.024.015-.029.012-.024.016-.024.011-.024.012-.025.012-.024.008-.02.007-.024.008-.02.004-.025.004-.02v-.036c-.02-.194-.266-.33-.328-.36h-.004c-.063.03-.313.166-.329.36-.015.194.317.553.325.698h.008zm.505-.697l-.004.004v.009l-.004.004-.004.004v.004l-.004.004-.003.008-.004.008-.004.012-.008.016-.012.02-.008.02-.011.02-.008.025-.012.02-.011.024-.012.029-.012.024-.012.024-.011.028-.024.057-.023.052-.012.028-.008.025-.011.024-.008.028-.012.025-.008.02-.008.024-.003.02-.008.02-.004.017a.465.465 0 00.074.407c.082.11.215.23.336.456 0 0 .145-.193.16-.294a1.337 1.337 0 00-.042-.448c-.028-.102-.15-.433-.255-.768zm-.504 1.795l.02-.02.02-.021.019-.02.015-.02.02-.02.016-.021.02-.02.015-.024.011-.02.016-.02.004-.013.008-.008.008-.012.003-.008.004-.012.008-.008.004-.008.003-.013.005-.008.003-.008.004-.008.004-.008c.028-.085.035-.206-.035-.298-.082-.11-.188-.235-.195-.335h-.008c-.004.1-.11.226-.196.335-.07.092-.062.213-.031.298.031.08.125.222.23.319h.005zm.386-.316l.003.005.004.004.004.004.004.004.003.008.008.008.008.012.012.012.012.016.011.013.012.016.016.016.011.02.016.017.016.02.011.016.031.04.028.036.016.02.015.02.012.021.012.016.015.02.012.016.012.017.008.016.011.016.008.016.008.012.008.012.004.008v.004l.003.004v.005c.04.1.098.282.016.411-.082.13-.277.335-.446.424 0 0 .184-.294.165-.537-.012-.157-.126-.294-.149-.387a.678.678 0 01.06-.4zm.53-.185l-.005.004-.004.008-.004.004-.003.008-.004.009-.008.008-.004.008-.004.008-.004.012-.004.008-.008.012-.003.008-.004.013-.004.008-.012.024-.008.024-.008.024-.008.025-.007.024-.008.024-.004.016v.012l-.004.012v.013l-.004.016v.012c-.008.137.016.25.09.456.09.254.23.54.301.67 0 0 .125-.19.196-.356 0 0-.2-.282-.285-.48-.099-.235-.138-.453-.177-.634zm.092-.113v.008l.003.012v.012l.005.016.003.017.004.024.004.024.004.028.008.028.008.033.008.036.007.036.012.037.012.04.011.044.012.04.016.045.015.048.016.045.02.048.019.048.02.049.023.048.023.049.024.048.027.049.028.052.03.048.032.044.031.049.035.048c.255.331.462.448.599.448.207 0 .414-.181.484-.383.067-.202.047-.52-.086-.63 0 0-.125.396-.39.412-.297.016-.684-.33-1.067-1z" fill="#fff"/><path d="M42.24 10.03l-.004.013-.003.012v.012l-.005.012-.003.012v.012l-.004.029-.004.028-.004.028v.154l.004.032.004.032.004.033.008.032.007.032c.032.13.106.299.254.396a.37.37 0 00.54-.194c0-.001-.547.043-.794-.675zm-1.321 1.962l.016-.009.011-.008.016-.004.011-.008.016-.008.012-.008.008-.004.007-.008.008-.004.004-.005.008-.008.008-.004.008-.008.008-.004.007-.008.008-.008.004-.008.008-.008.008-.008.007-.012.008-.008.008-.013.008-.008.008-.012.008-.012.011-.016c.066-.109.133-.31.098-.456-.047-.177-.145-.25-.2-.363-.042.044-.07.076-.129.113h-.003c-.055-.036-.086-.068-.133-.113-.059.113-.149.186-.196.363-.035.145.028.347.098.456.086.146.153.17.23.21zm-.002 1.108l.004-.016.008-.016.008-.02.008-.02.011-.021.012-.02.012-.02.015-.02.016-.025.016-.024.015-.02.016-.025.031-.048.035-.048.032-.049.015-.024.016-.024.015-.024.012-.02.012-.025.011-.024.012-.02.008-.024.008-.02.008-.021.003-.02v-.053c-.05-.278-.223-.222-.355-.335h-.004c-.133.113-.31.057-.356.335-.034.18.317.518.356.691zm.424-.407l-.004.017-.011.02-.008.02-.012.02-.011.02-.012.02-.012.021-.012.02-.027.04-.031.041-.027.04-.032.04-.027.041-.012.016-.015.02-.012.02-.012.021-.011.016-.008.02-.012.016-.008.02-.007.017-.005.016-.003.016-.004.016-.004.016v.013c.008.411.18.661.219.799 0 0 .32-.263.375-.561.03-.155-.005-.615-.255-.84zm.362.29l-.004-.012-.004-.012-.004-.012-.008-.013-.004-.016-.008-.012-.004-.016-.008-.016-.007-.016-.008-.02-.008-.016-.008-.016-.015-.037-.02-.036-.02-.04-.019-.037-.012-.016-.011-.016-.012-.016-.011-.017-.012-.016-.012-.016-.012-.016-.011-.012-.012-.013-.012-.011-.011-.013-.016-.012s-.172-.524.383-.847c0 0 .23.31.293.61.062.294-.243.471-.383.738zm.696-1.331l.016.025.019.02.02.024.019.024.02.02.02.024.019.025.02.02.023.02.02.025.007.008.012.008.011.012.008.008.012.008.008.008.011.008.008.005.012.008.008.008.011.003.008.005s.035.234.016.39c-.027.231-.176.469-.235.646 0 0-.246-.33-.27-.524-.03-.194-.027-.35-.035-.444 0 0 .138-.226.212-.384zm.64 1.129l.008-.012.008-.012.007-.016.012-.012.008-.02.011-.017.012-.02.008-.02.012-.024.011-.02.012-.025.016-.028.011-.024.012-.029.012-.024.012-.028.023-.057.023-.06.02-.06.011-.029.008-.028.008-.032.008-.029.008-.028.004-.032.004-.029.004-.028v-.057s-.274.154-.5.04c0 0-.032.38.011.505.035.106.086.167.196.255zm-.062.083l-.004-.005-.004-.004-.008-.008-.004-.004-.008-.004-.003-.004-.008-.008-.004-.005-.008-.008-.008-.004-.004-.008-.008-.008-.015-.012-.016-.016-.011-.013-.016-.016-.012-.012-.008-.008-.007-.004-.004-.008-.008-.008-.008-.004-.004-.008-.004-.005-.008-.008-.003-.004-.004-.008s-.18.347-.212.448c0 0 .09.02.188-.052.101-.071.125-.092.223-.192zm-.845-.208l.004.004v.005l.004.008v.004l.004.008.004.004v.008l.004.008.008.017.011.016.008.02.012.016.011.02.016.024.012.02.015.025.016.02.012.024.031.045.031.048.016.02.016.025.015.02.012.02.015.02.012.02.016.017.012.016.011.016.008.012.004.004.008.008.004.005.004.004.003.004v.004l.004.005.004.003s-.023.154-.129.372a1.665 1.665 0 01-.344.451s-.18-.326-.234-.468c-.063-.165-.06-.33-.028-.391.059-.143.27-.349.368-.53zm-1.209 2.506l.004-.012.004-.012.004-.012.004-.012.008-.008.003-.012.008-.012.008-.013.008-.012.008-.012.011-.016.008-.012.02-.024.02-.029.019-.028.023-.028.02-.032.019-.032.012-.017.008-.016.011-.016.008-.016.008-.016.008-.02.008-.016.007-.02a.502.502 0 00-.007-.355c-.051-.11-.243-.384-.266-.46-.024.076-.211.35-.266.46a.483.483 0 00-.004.355c.07.201.239.338.266.455h.008zm.761-1.4l-.005.016-.007.012-.008.016-.008.012-.008.016-.011.017-.008.012-.012.016-.012.016-.011.02-.02.033-.023.036-.024.032-.023.036-.02.036-.02.037-.011.02-.008.016-.008.02-.011.016-.004.016-.008.02-.008.017-.004.02-.004.016-.004.016a.7.7 0 00.032.347c.039.093.156.278.234.42 0 0 .27-.263.329-.448a.69.69 0 00-.035-.468c-.067-.125-.208-.258-.27-.391zm.768-.037l-.008.016-.008.016-.007.012-.008.016-.008.016-.008.012-.02.028-.019.033-.023.028-.02.029-.023.028-.02.028-.02.028-.019.028-.008.012-.007.016-.008.013-.008.016-.008.012-.008.011-.003.017-.005.012-.007.012-.004.016a.608.608 0 00.02.452c.066.165.148.262.175.363 0 0 .22-.29.254-.411a.793.793 0 00.004-.448c-.043-.129-.121-.294-.176-.411zm-1.533 3.677l.004-.016.003-.016.005-.016.007-.02.008-.02.008-.02.008-.025.011-.028.012-.024.012-.029.012-.028.011-.032.016-.032.011-.032.016-.033.012-.036.016-.032.015-.036.012-.04.012-.037.015-.04.012-.04.012-.04.012-.041.011-.04.008-.041.008-.044.008-.04.008-.045.004-.045.003-.04v-.044c.012-.234-.195-.605-.309-.743h-.008c-.113.138-.312.509-.309.743.017.463.302.907.314 1.052zm.455-2.562v.004h.004v.004l.004.004.004.004.004.004.004.004.004.008.003.004.008.008.004.008.004.008.016.016.011.02.016.021.015.02.016.024.016.024.02.025.015.028.015.028.02.028.016.029.02.028.015.032.016.028.015.029.012.032.015.028.012.028.012.032.008.029.007.028.008.024.004.028v.048c-.008.311-.207.513-.238.707 0 0-.196-.23-.27-.383-.086-.178-.153-.323-.125-.52.02-.198.07-.324.27-.521zm.694-.048l-.008.008-.004.012-.007.013-.008.011-.008.012-.008.017-.008.016-.011.016-.008.016-.008.016-.008.02-.011.016-.008.02-.008.02-.02.041-.007.024-.008.02-.008.02-.004.02-.008.025-.003.02-.008.02-.004.02-.004.025v.02l-.004.02v.036l.004.02v.02l.008.017c.043.181.23.435.293.548 0 0 .148-.314.183-.46.032-.145.004-.379-.297-.669z" fill="#fff"/><path d="M41.176 18.152l.005-.033.003-.032.004-.032.004-.032.008-.033.004-.028.008-.028.008-.029.011-.028.008-.028.008-.024.012-.028.012-.025.008-.024.023-.048.02-.045.023-.044.02-.04.019-.04.008-.021.008-.02.007-.02.008-.02.008-.017.004-.02.003-.016.005-.016a.808.808 0 00-.133-.65 6.279 6.279 0 01-.372 1.001c-.004.008-.008.012-.011.02 0-.008-.005-.012-.008-.02a5.898 5.898 0 01-.376-1 .822.822 0 00-.133.65c.036.185.235.406.258.77.024.367-.375.504-.375.504.137.049.29.073.532-.165a.497.497 0 00.102-.142.714.714 0 00.101.142c.246.238.399.214.532.165 0 0-.395-.137-.376-.504zm-1.256-2.425l.005.011.008.017.003.012.004.016.008.016.008.016.004.017.008.016.011.032.016.032.015.037.012.032.016.036.008.017.004.016.007.012.008.016.004.016.004.012.008.016.003.013.005.011.003.009.004.011.004.009v.012l.004.004c.032.145-.012.323-.266.508 0 0-.164-.121-.23-.278-.063-.145-.024-.25.039-.323.063-.08.215-.255.274-.371zm.543.541v.028l-.003.016v.028l-.005.02v.017l-.003.02-.004.02-.004.024-.004.024-.004.025-.004.024-.004.024-.003.024-.012.052-.012.053-.016.056-.007.024-.005.025-.011.028-.008.024-.008.024-.007.024-.012.025-.008.02-.012.02-.008.02c-.16.287-.394.505-.602.505-.187 0-.226-.117-.324-.166 0 0 .047-.25.262-.314.262-.085.664-.408.828-.714z" fill="#fff"/><path d="M39.778 16.793l-.007-.008-.008-.004-.016-.012-.008-.008-.008-.005-.011-.008-.008-.004-.008-.008-.008-.008-.004-.004-.004-.004-.003-.004-.005-.004-.007-.004-.004-.004-.004-.004-.004-.004-.004-.008-.008-.004-.004-.004-.004-.008s-.2.076-.371.194c-.164.117-.329.314-.415.415 0 0 .247.065.407-.008 0 0 .059-.246.235-.355.043-.024.164-.065.281-.125zm-.211-.21l-.004-.004-.004-.008-.004-.004-.004-.008-.004-.008-.003-.008-.004-.008-.004-.008-.004-.008-.008-.008-.004-.013-.004-.008-.004-.008-.004-.012-.003-.012-.005-.008-.007-.012-.004-.012v-.012l-.004-.012-.004-.012-.004-.012-.004-.017v-.011l-.003-.012v-.033l-.005-.012v-.032l.005-.016v-.017s-.352.23-.458.315a3.158 3.158 0 00-.375.4s.266-.06.473-.13c.223-.076.375-.181.457-.23zm-.597.391l-.015.008-.02.004-.023.008-.02.008-.023.004-.023.008-.027.004-.024.008-.027.008-.028.004-.055.012-.054.016-.059.012-.054.012-.059.012-.055.013-.023.004-.027.008-.024.004-.027.008-.023.004-.02.004-.024.008-.019.004-.02.004-.015.008c-.18.057-.309.145-.477.34 0 0 .258.072.399.12 0 0 .223-.157.465-.25.16-.064.233-.238.402-.407zm-.394 1.296l.008-.009.007-.008.008-.012.008-.008.004-.004.004-.008.004-.005.004-.004v-.008l.003-.004.005-.008.003-.004v-.008l.004-.004v-.016l.004-.004v-.048l-.004-.008v-.008l-.004-.013v-.008l-.004-.012c-.027-.076-.183-.166-.277-.21-.153-.076-.575-.194-.712-.238 0 0-.07.085-.105.174-.02.036.004.068.063.076.121.025.403-.032.473.017.074.048.046.116.046.181 0 0 .13-.08.212-.06.113.024.183.08.246.27zm-.373-.607h.008l.004.004h.004l.008.004h.007l.008.004.008.004h.008l.008.004.011.004.008.004.012.004.012.005.011.003.012.008.012.005.011.003.016.009.012.004.015.008.012.008.016.004.015.008.012.008.016.008.015.008.016.008.011.008.016.012.016.008.015.009s.07-.029.106-.097c.035-.065.18-.287.313-.315 0 0-.114-.008-.18-.032 0 0-.133.036-.234.08-.098.037-.22.101-.36.198zm1.091-.278h-.004l-.008.004-.004.004h-.008l-.004.004h-.007l-.005.004h-.007l-.004.004h-.012l-.004.004h-.012l-.003.004h-.02l-.008.004h-.023l-.008.004h-.028s-.37.266-.414.529c-.04.23.078.338.133.367.058.032.317.137.485-.218 0 0-.286.097-.368-.044-.074-.145.05-.355.13-.412.105-.08.289-.137.402-.113 0 0-.094-.089-.2-.145z" fill="#fff"/><path d="M36.855 20.432l.016-.073.02-.072.019-.077.008-.036.011-.036.012-.037.012-.04.012-.036.011-.036.016-.036.012-.037.015-.036.016-.037c.168-.367.583-1.347 1.442-1.517.078-.02-.094-.226-.172-.214-.078.009-.23.113-.297.158 0 0 0-.21-.004-.246 0-.036-.031-.052-.066-.052-.032.004-.243 0-.305.08-.2.234-.528.864-.716 1.332-.187.468-.317.613-.516.54-.195-.072-.313-.306-.66-.233a.696.696 0 00-.356.23c.031.056.066.129.227.129.16 0 .472.068.64.19.174.123.353.168.603.192zm3.435-3.034l.004.029.004.028.008.028.008.028.007.028.012.029.008.024.011.028.012.029.012.028.012.028.015.024.012.028.016.029.011.028.016.028s-.258 1.247-1.208 1.34c0 0 .02-.259.297-.452.282-.198.704-.505.673-.969 0 0-.079.016-.212.19-.132.174-.43.678-.883.682 0 0 .066-.238.27-.371.2-.138.457-.311.574-.52.118-.206.24-.303.321-.344zm-.45 4.542l.578.836.438-.803-.156-.29c-.114.213-.239.44-.305.569-.05-.081-.196-.29-.387-.57l-.168.259z" fill="#fff"/><path d="M39.697 21.234l-.106-.153-.11-.158-.109-.157-.11-.157-.109-.158-.105-.153-.051-.073-.051-.072-.05-.073-.048-.068-.047-.07-.043-.064-.043-.064-.043-.06-.039-.057-.039-.053-.035-.052-.031-.045-.031-.044-.028-.04-.023-.037-.02-.032-.02-.024-.015-.024-.012-.016-.008-.012.22-.162-.689-.27.012.77.234-.173 1.384 2.01.165-.26zm-4.74-4.556l.016-.016.02-.016.015-.012.02-.012.019-.008.02-.008.019-.004.02-.004.02-.004h.023l.02.004h.023l.023.008.024.003.023.009.024.008.023.012.028.012.023.012.028.012.023.017.027.016.028.02.023.016.028.02.027.02.027.024.028.02.027.024.023.024.027.025.028.024c.289.274.473.557.305.75-.157.174-.462.025-.747-.25-.293-.274-.473-.556-.305-.746z" fill="#fff"/><path d="M35.427 20.067l-.004-.003-.003-.005-.004-.004h-.005v-.003h-.003v-.005h-.004v-.004H35.4a.798.798 0 01-.242-.589c0-.452.355-.819.79-.819.437 0 .793.367.793.82 0 .06-.012.157-.012.157.035-.069.168-.38.192-.436a1.015 1.015 0 00-.974-.763 1.01 1.01 0 00-.907.585c.063-.411.262-.782.403-.92.168-.165.457-.217.457-.217-.191.028-.434-.09-.715-.351-.262-.25-.395-.468-.407-.65.016.259.011.4-.059.614-.098.282-.36.807-.265 1.4.05.327.277.81.664 1.206.078.089.11.222.121.29 0 0 .564 0 .7.012 0 0 .133-.012.126-.1 0-.085-.075-.105-.137-.105-.07 0-.352.003-.5-.11zm3.118.201l-.066.024-.07.024-.067.02-.066.02-.07.02-.067.02-.066.017-.066.016-.07.016-.067.012-.066.012-.067.012-.129.024-.133.02a3.237 3.237 0 01-.649.041.207.207 0 01-.016.117s.04.048.04.11c.215.003.438-.005.66-.045.376-.06.77-.137 1.165-.29l-.13-.19zm.595-.03l.09-.053.09-.056.09-.06.09-.065.086-.069.09-.072.085-.077.09-.08.086-.085.082-.093.086-.092.082-.102.086-.109.082-.109.078-.117.043-.06.039-.065.074-.129c-.113.052-.262.016-.262.016a.446.446 0 01-.039.057c-.39.601-.828.984-1.278 1.234l.13.186zm-3.175.209h-.039l-.012-.004h-.129l-.027.004h-.031l-.028.004h-.03l-.028.005h-.027l-.016.003h-.012l-.012.004h-.011c-.141.02-.297.053-.317.13-.012.076.035.157.106.27.047.068.148.032.203.008.059-.024.387-.202.438-.262.05-.057.07-.142-.028-.162zm.333.227l-.004-.004-.004-.004h-.004l-.003-.004h-.004l-.004-.004-.004-.004h-.008l-.004-.004h-.008l-.004-.004h-.008l-.003-.004h-.016l-.004-.004H36.2l-.007-.004h-.055l-.008.004h-.008l-.008.004h-.007l-.008.004h-.008c-.09.036-.41.234-.434.323-.02.093.024.141.074.161.051.02.11.04.157.044a.26.26 0 00.2-.096c.038-.053.187-.238.21-.283.02-.036.035-.1 0-.12zm.039.201l-.004.004-.004.008-.007.004-.004.009-.008.008-.008.008-.004.008-.007.008-.008.008-.008.012-.008.008-.008.008-.011.02-.016.02-.008.008-.007.013-.008.008-.008.008-.004.008-.008.008-.008.008-.004.008-.008.008-.004.008-.004.004-.004.008-.003.005v.004h-.004v.004l-.005.004c-.015.024.008.068.047.06.044-.004.262-.028.391-.117.126-.088.212-.258.126-.322-.09-.066-.224-.034-.372.132zm.073-.495h-.01l-.008-.005h-.011l-.008-.004h-.008l-.008-.004h-.016l-.011-.004h-.008l-.008-.004h-.031l-.008-.004h-.054l-.008.004h-.008l-.008.004h-.008v.004h-.007l-.004.004-.004.005h-.004v.003h-.004v.004c-.047.073-.016.146.117.21.13.065.372.117.418.048.047-.068-.015-.185-.293-.262zm5.506-4.653l-.004.011-.008.017-.004.012-.003.016-.008.016-.004.016-.008.017-.008.016-.012.032-.015.032-.012.037-.016.032-.015.036-.008.017-.004.016-.008.012-.008.016-.004.016-.008.012-.004.016-.003.013-.004.011-.004.009-.004.011-.004.009-.004.012v.004c-.027.145.012.323.266.508 0 0 .168-.121.23-.278.063-.145.024-.25-.035-.323-.066-.08-.215-.255-.277-.371zm-.541.541l.004.008v.048l.004.016v.02l.004.017.004.02v.02l.003.024.005.024.003.025.004.024.008.024.004.024.012.052.012.053.011.056.008.024.008.025.008.028.008.024.011.024.008.024.008.025.012.02.011.02.008.02c.16.287.391.505.602.505.188 0 .231-.117.32-.166 0 0-.046-.25-.261-.314-.262-.085-.665-.408-.829-.714z" fill="#fff"/><path d="M42.06 16.793l.012-.008.008-.004.016-.012.007-.008.008-.005.008-.008.008-.004.008-.008.008-.008.003-.004.004-.004.004-.004.008-.004.004-.004.004-.004.004-.004.004-.004.004-.008.007-.004.004-.004.004-.008s.203.076.371.194c.165.117.329.314.419.415 0 0-.25.065-.41-.008 0 0-.06-.246-.235-.355-.04-.024-.164-.065-.282-.125zm.212-.21l.003-.004.004-.008.004-.004.004-.008.004-.008.004-.008.004-.008.008-.008.003-.008.004-.008.004-.013.004-.008.008-.008.004-.012.004-.012.004-.008.004-.012.003-.012.004-.012.004-.012.004-.012.004-.012v-.017l.004-.011v-.012l.004-.017v-.028l.004-.016v-.016l-.004-.016v-.017s.352.23.457.315c.102.089.325.323.372.4 0 0-.266-.06-.47-.13-.222-.076-.379-.181-.46-.23zm.595.391l.02.008.019.004.02.008.023.008.024.004.023.008.023.004.028.008.024.008.027.004.055.012.058.016.055.012.059.012.054.012.055.013.027.004.028.008.023.004.024.008.023.004.024.004.02.008.019.004.02.004.019.008c.176.057.305.145.477.34 0 0-.262.072-.399.12 0 0-.222-.157-.469-.25-.16-.064-.235-.238-.403-.407zm.395 1.296l-.008-.009-.008-.008-.008-.012-.008-.008-.003-.004-.005-.008-.003-.005-.004-.004v-.008l-.004-.004-.004-.008-.004-.004v-.008l-.004-.004v-.016l-.004-.004v-.048l.004-.008v-.008l.004-.013.004-.008v-.012c.031-.076.184-.166.277-.21.157-.076.579-.194.716-.238 0 0 .066.085.106.174.012.036-.008.068-.067.076-.117.025-.402-.032-.469.017-.074.048-.05.116-.05.181 0 0-.13-.08-.212-.06-.114.024-.18.08-.246.27zm.377-.607h-.008l-.004.004h-.008l-.004.004h-.007l-.008.004-.008.004h-.008l-.012.004-.008.004-.011.004-.008.004-.011.005-.012.003-.012.008-.015.005-.012.003-.012.009-.016.004-.011.008-.016.008-.012.004-.015.008-.016.008-.016.008-.011.008-.016.008-.015.008-.016.012-.016.008-.015.009s-.07-.029-.106-.097c-.035-.065-.18-.287-.309-.315 0 0 .11-.008.176-.032a1.894 1.894 0 01.598.278zm-1.089-.278h.003l.004.004h.004l.004.004h.004l.004.004h.008l.003.004h.008l.004.004h.012l.004.004h.012l.007.004h.016l.008.004h.023l.008.004h.028s.375.266.418.529c.035.23-.078.338-.137.367-.055.032-.313.137-.485-.218 0 0 .285.097.367-.044.079-.145-.046-.355-.129-.412-.101-.08-.289-.137-.398-.113 0 0 .09-.089.2-.145z" fill="#fff"/><path d="M44.984 20.432l-.02-.073-.016-.072-.019-.077-.012-.036-.011-.036-.008-.037-.012-.04-.012-.036-.015-.036-.012-.036-.016-.037-.015-.036-.016-.037c-.164-.367-.578-1.347-1.439-1.517-.081-.02.09-.226.169-.214.078.009.23.113.3.158v-.246c.005-.036.036-.052.067-.052.035.004.243 0 .31.08.195.234.527.864.71 1.332.192.468.321.613.517.54.195-.072.313-.306.66-.233a.663.663 0 01.356.23c-.027.056-.062.129-.227.129-.16 0-.469.068-.64.19-.173.123-.353.168-.6.192zm-3.431-3.034l-.008.029-.004.028-.008.028-.007.028-.008.028-.008.029-.011.024-.012.028-.008.029-.016.028-.011.028-.012.024-.016.028-.012.029-.031.056s.262 1.247 1.212 1.34c0 0-.02-.258-.301-.452-.282-.198-.7-.505-.669-.968 0 0 .07.016.207.19.133.173.43.677.888.681 0 0-.066-.238-.27-.371-.203-.137-.457-.31-.574-.52-.118-.206-.243-.303-.321-.344zm-.63 1.208l.004.017.008.02.008.02.012.02.011.024.016.024.012.028.02.029.015.028.015.028.02.028.02.032.019.033.023.032.043.06.043.065.043.06.024.033.023.028.02.029.023.028.02.028.02.024.019.024.02.025.019.02.019.016.016.02.015.013c.153.149.536.544.743.742 0 0-.582-.15-.91-.456 0 0-.232.137-.4.137h-.011c-.168 0-.403-.137-.403-.137-.324.307-.907.456-.907.456.204-.198.587-.593.743-.742.157-.146.516-.67.571-.836h.004z" fill="#fff"/><path d="M40.924 19.992h.023l.012-.004h.036l.023-.004.023-.004.02-.008.023-.004.02-.009.023-.003.02-.008.015-.009.02-.003.008-.005.008-.004.008-.004.007-.003.008-.005h.008l.008-.004.008-.004c-.07.145-.2.384-.32.476h-.005c-.125-.092-.254-.33-.324-.476.07.032.191.085.32.085h.008z" fill="#fff"/><path d="M41.42 22.776l2.275-3.293.231.174.016-.771-.688.27.215.162c-.11.165-1.81 2.622-2.026 2.933l-1.028-1.929-.129.198-.915 1.432-.23-.157v.758l.696-.282-.235-.166c.13-.193.621-.968.79-1.226l1.028 1.896z" fill="#fff"/><path d="M41.838 21.481l-.058-.088-.032-.045-.027-.044-.027-.04-.028-.045-.027-.04-.023-.04-.027-.041-.024-.036-.012-.016-.011-.02-.008-.017-.012-.016-.012-.016-.008-.016-.011-.016-.008-.013-.008-.016-.012-.012-.007-.012-.008-.012c-.055.109-.172.327-.301.565l-.165-.299.446-.823.125.198.457.71-.172.25zm.469.213l.16.259.231-.158.004.759-.696-.283.23-.165-.105-.166.176-.246zm4.576-5.016l-.015-.016-.02-.016-.015-.012-.02-.012-.02-.008-.02-.008-.018-.004-.02-.004-.02-.004h-.023l-.02.004h-.023l-.023.008-.024.003-.023.009-.024.008-.027.012-.024.012-.023.012-.027.012-.024.017-.027.016-.027.02-.028.016-.023.02-.027.02-.028.024-.027.02-.027.024-.028.024-.027.025-.027.024c-.294.274-.473.557-.301.75.156.174.453.025.746-.25.289-.274.472-.556.304-.746z" fill="#fff"/><path d="M46.414 20.067l.003-.003h.004v-.005h.004v-.004h.004v-.003h.004l.004-.005h.004v-.004h.004a.797.797 0 00.238-.589.805.805 0 00-.794-.819c-.433 0-.79.367-.79.82 0 .06.012.157.012.157-.03-.069-.164-.38-.191-.436.117-.44.508-.763.97-.763.402 0 .746.238.91.585-.062-.411-.261-.782-.402-.92-.168-.165-.454-.217-.454-.217.188.028.434-.09.712-.351.262-.25.399-.468.407-.65-.016.259-.008.4.062.614.098.282.356.807.266 1.4-.05.327-.282.81-.665 1.206a.55.55 0 00-.121.29s-.567 0-.696.012c0 0-.137-.012-.133-.1 0-.085.078-.105.141-.105.07 0 .348.003.497-.11zm-3.717.171l-.09-.053-.09-.056-.09-.06-.086-.065-.09-.069-.09-.072-.085-.077-.086-.08-.086-.085-.086-.093-.086-.092-.082-.102-.082-.109-.082-.109-.082-.117-.039-.06-.043-.065-.074-.129c.117.052.262.016.262.016.012.012.027.044.035.057.399.601.837.984 1.282 1.23l-.13.19zm.595.03l.066.024.07.024.067.02.07.02.067.02.066.02.07.017.067.016.066.016.067.012.066.012.066.012.133.024.129.02c.223.037.442.05.649.041a.3.3 0 00.016.117s-.035.048-.035.11a3.42 3.42 0 01-.665-.045 5.746 5.746 0 01-1.169-.29l.134-.19zm2.58.179h.043l.012-.004h.125l.032.004h.027l.031.004h.028l.03.005h.028l.012.003h.016l.011.004h.012c.137.02.293.053.313.13.015.076-.036.157-.106.27-.043.068-.145.032-.203.008-.059-.024-.384-.202-.438-.262-.051-.057-.07-.142.027-.162zm-.326.227l.004-.004v-.004h.003l.008-.004h.004l.004-.004.004-.004h.004l.008-.004h.004l.008-.004h.004l.007-.004h.012l.008-.004h.012l.008-.004h.054l.008.004h.008l.008.004h.008l.007.004h.008c.09.036.41.234.434.323.02.093-.023.141-.07.161a.682.682 0 01-.16.044.245.245 0 01-.196-.096 2.976 2.976 0 01-.211-.283c-.024-.036-.035-.1 0-.12zm-.046.201l.004.004.008.008.004.004.004.009.008.008.008.008.004.008.008.008.007.008.008.012.008.008.008.008.015.02.016.02.016.02.004.009.008.008.007.008.008.008.004.008.008.008.004.008.008.008.003.004.005.008.003.005.004.004v.004l.004.004c.012.024-.011.068-.05.06-.044-.004-.262-.028-.388-.117-.129-.088-.21-.258-.125-.322.086-.066.223-.034.368.132zm-.07-.495h.012l.004-.005h.012l.007-.004h.008l.008-.004h.016l.011-.004h.008l.012-.004h.028l.007-.004h.055l.008.004h.007l.008.004h.008l.004.004h.008v.004h.004l.004.005.003.003.005.004c.042.073.011.146-.118.21-.129.065-.375.117-.422.048-.047-.068.02-.185.293-.262z" fill="#fff"/></g><defs><clipPath id="clip0"><rect width="54" height="27" rx="1" fill="#fff"/></clipPath></defs></svg>