<?xml version="1.0" encoding="utf-8"?><svg xmlns="http://www.w3.org/2000/svg" xmlns:xlink="http://www.w3.org/1999/xlink"><symbol viewBox="0 0 12 8" id="arrow-down" xmlns="http://www.w3.org/2000/svg"><path d="M6 7.5c.215 0 .43-.084.594-.252l5.16-5.28a.874.874 0 000-1.216.827.827 0 00-1.189 0L6 5.424 1.435.752a.827.827 0 00-1.189 0 .874.874 0 000 1.216l5.16 5.28A.827.827 0 006 7.5z"/></symbol><symbol viewBox="0 0 24 12" id="arrow-right" xmlns="http://www.w3.org/2000/svg"><path d="M17.5.464a.937.937 0 00.003 1.326l3.289 3.273H.937a.937.937 0 100 1.875h19.855l-3.29 3.272a.938.938 0 001.324 1.33l4.898-4.875.001-.001a.938.938 0 000-1.328L18.824.46A.937.937 0 0017.5.464z"/></symbol><symbol viewBox="0 0 14 24" id="arrow-right-2" xmlns="http://www.w3.org/2000/svg"><path d="M14 12c0 .43-.168.86-.504 1.188l-10.56 10.32a1.748 1.748 0 01-2.432 0 1.654 1.654 0 010-2.377L9.848 12 .504 2.87a1.654 1.654 0 010-2.377 1.748 1.748 0 012.432 0l10.56 10.319c.336.328.504.758.504 1.188z"/></symbol><symbol viewBox="0 0 25 25" id="artikul" xmlns="http://www.w3.org/2000/svg"><path d="M2.778 4.167H0v16.667h2.778V4.167zm6.988 0H6.988v16.667h2.778V4.167zm4.207 0h-2.778v16.667h2.778V4.167zm11.027 0h-4.125v16.667H25V4.167zm-19.446 0H4.207v16.667h1.347V4.167zm11.113 0H15.32v16.667h1.347V4.167zm2.778 0h-1.347v16.667h1.347V4.167z"/></symbol><symbol viewBox="0 0 22 22" id="bags" xmlns="http://www.w3.org/2000/svg"><path d="M21.858 11.586c0 .958-.772 1.735-1.717 1.735-19.056 0-18.022.003-18.126-.005a1.73 1.73 0 01-1.585-1.73c0-.956.77-1.734 1.717-1.734H20.14c.947 0 1.717.778 1.717 1.734zM19.87 14.13c.216 0 .382.192.352.409l-.744 5.404a2.19 2.19 0 01-2.16 1.914H4.971a2.191 2.191 0 01-2.16-1.917l-.652-5.408a.358.358 0 01.353-.402H19.87zM8.66 15.402a1.716 1.716 0 001.667 1.322h1.636c.794 0 1.48-.544 1.668-1.322a.4.4 0 10-.777-.192.916.916 0 01-.891.705h-1.636a.916.916 0 01-.89-.705.4.4 0 10-.778.192zM18.715.429H3.572c-.832 0-1.509.683-1.509 1.523 0 .842.678 1.524 1.509 1.524 16.312 0 15.242.02 15.494-.04a1.524 1.524 0 001.158-1.484c0-.84-.676-1.523-1.508-1.523zm.158 4.27c-.682 4.498-.627 4.157-.658 4.285a.354.354 0 01-.345.269H4.417a.354.354 0 01-.345-.27c-.042-.171 0 .12-.553-4.293a.358.358 0 01.353-.405h14.65c.218 0 .385.196.352.414zm-5.952.56a.402.402 0 00-.4-.405H9.766c-.221 0-.4.181-.4.405 0 .223.179.404.4.404h2.756c.221 0 .4-.181.4-.404z"/></symbol><symbol viewBox="0 0 30 30" id="bank" xmlns="http://www.w3.org/2000/svg"><g clip-path="url(#afclip0)"><path d="M28.624 27.266H1.364a1.363 1.363 0 100 2.726h27.26a1.363 1.363 0 100-2.726zM3.067 23.722a1.363 1.363 0 100 2.727H26.92a1.364 1.364 0 000-2.727h-.34V11.454h.34a.68.68 0 100-1.362H3.067a.68.68 0 100 1.362h.34V23.72h-.34zm20.786-12.268V23.72h-4.09V11.454h4.09zm-6.816 0V23.72h-4.089V11.454h4.09zm-10.904 0h4.09V23.72h-4.09V11.454zm-4.77-2.587h27.274a1.363 1.363 0 00.442-2.653L15.554.127a1.366 1.366 0 00-1.119 0L.805 6.261a1.363 1.363 0 00.558 2.606z"/></g><defs><clipPath id="afclip0"><path d="M0 0h30v30H0z"/></clipPath></defs></symbol><symbol viewBox="0 0 30 30" id="blank" xmlns="http://www.w3.org/2000/svg"><path d="M22.823 5.122a2.62 2.62 0 00-.773-1.864L19.566.772A2.695 2.695 0 0017.683 0h-.15v5.273h5.29v-.15z"/><path d="M16.051 18.137c.168-.51.462-.986.845-1.372l5.95-5.927V7.031h-6.175c-.486 0-.85-.393-.85-.879V0H2.636A2.64 2.64 0 000 2.637v24.726A2.64 2.64 0 002.637 30h17.55c1.453 0 2.66-1.183 2.66-2.637v-6.56l-.966.943c-.392.388-.85.67-1.367.843l-2.794.933-.426.023c-.704 0-1.37-.342-1.784-.916a2.204 2.204 0 01-.298-1.979l.839-2.513zM4.395 15.82h8.76a.878.878 0 110 1.758h-8.76a.878.878 0 110-1.758zm-.88-2.636a.88.88 0 01.88-.88h8.76a.878.878 0 110 1.758h-8.76a.878.878 0 01-.88-.878zm0 7.03c0-.485.394-.878.88-.878h8.76a.878.878 0 110 1.758h-8.76a.878.878 0 01-.88-.88zm13.156 4.395a.878.878 0 110 1.758h-5.274a.878.878 0 110-1.758h5.274zM4.395 10.547a.878.878 0 110-1.758H16.67a.878.878 0 110 1.758H4.395z"/><path d="M17.643 18.914l-.764 2.294a.44.44 0 00.556.556l2.292-.766-2.084-2.084zm6.827-7.238l-5.79 5.788 2.497 2.497 5.788-5.79-2.496-2.495zm5.014-2.52c-.31-.31-.764-.488-1.247-.488-.482 0-.937.178-1.248.49l-1.277 1.276 2.496 2.496 1.277-1.277a1.77 1.77 0 00-.001-2.497zm.001 2.498zm.005-.006l.008-.007-.008.007zm.008-.007c.006-.006.006-.006 0 0z"/></symbol><symbol viewBox="0 0 22 22" id="calendar" xmlns="http://www.w3.org/2000/svg"><path d="M19.715.429H2.573A2.15 2.15 0 00.43 2.572v17.142a2.15 2.15 0 002.143 2.143h17.142a2.15 2.15 0 002.143-2.143V2.572A2.15 2.15 0 0019.715.429zM6.213 19.287H2.93v-2.92h3.283v2.92zm0-3.899H2.93v-2.919h3.283v2.919zM5.965 3.677a.909.909 0 110-1.818.909.909 0 010 1.818zm4.628 15.61H7.311v-2.92h3.282v2.92zm0-3.899H7.311v-2.919h3.282v2.919zm0-3.896H7.311V8.573h3.282v2.919zm-.358-8.725a.909.909 0 111.817-.001.909.909 0 01-1.817 0zm4.742 12.621h-3.283v-2.919h3.283v2.919zm0-3.896h-3.283V8.573h3.283v2.919zm.436-8.725a.909.909 0 111.818-.001.909.909 0 01-1.818 0zm3.945 12.621h-3.283v-2.919h3.283v2.919zm0-3.896h-3.283V8.573h3.283v2.919z"/></symbol><symbol viewBox="0 0 20 20" id="camera" xmlns="http://www.w3.org/2000/svg"><path d="M17.595 4.584h-2.892v-.297A2.405 2.405 0 0012.3 1.883H7.7a2.405 2.405 0 00-2.404 2.404v.297H2.404A2.404 2.404 0 000 6.988v8.727a2.405 2.405 0 002.404 2.404h15.192A2.405 2.405 0 0020 15.715V6.988a2.406 2.406 0 00-2.405-2.404zM9.999 15.625a4.546 4.546 0 01-4.541-4.54 4.546 4.546 0 014.54-4.542 4.546 4.546 0 014.542 4.541A4.546 4.546 0 0110 15.625zm2.404-4.54A2.408 2.408 0 0110 13.487a2.408 2.408 0 01-2.404-2.404A2.408 2.408 0 019.999 8.68a2.408 2.408 0 012.404 2.404z"/></symbol><symbol viewBox="0 0 30 30" id="card" xmlns="http://www.w3.org/2000/svg"><path d="M30 9.55V7.97a3.281 3.281 0 00-3.281-3.282H3.28A3.281 3.281 0 000 7.97v1.58c0 .162.131.293.293.293h29.414A.293.293 0 0030 9.55zM0 12.012v10.02a3.281 3.281 0 003.281 3.28H26.72a3.281 3.281 0 003.28-3.28v-10.02a.293.293 0 00-.293-.293H.293a.293.293 0 00-.293.293zm7.5 7.675c0 .518-.42.938-.938.938h-.937a.938.938 0 01-.938-.938v-.937c0-.518.42-.938.938-.938h.938c.517 0 .937.42.937.938v.938z"/></symbol><symbol viewBox="0 0 17 17" id="cart" xmlns="http://www.w3.org/2000/svg"><g clip-path="url(#akclip0)" opacity=".9"><path d="M16.28 6.167h-3.527l-1.979-4.53a.498.498 0 10-.913.398l1.805 4.132H5.334L7.14 2.035a.498.498 0 00-.913-.398l-1.979 4.53H.721a.708.708 0 00-.703.857l1.857 8.09c.074.32.366.549.703.549h11.844a.717.717 0 00.703-.55l1.857-8.089a.708.708 0 00-.703-.857zM4.34 7.694a.498.498 0 01-.456-.698l.374-.856h1.087l-.548 1.255a.498.498 0 01-.457.3zm1.669 5.313a.498.498 0 11-.996 0V9.354a.498.498 0 01.996 0v3.653zm2.988 0a.498.498 0 11-.996 0V9.354a.498.498 0 01.996 0v3.653zm2.988 0a.498.498 0 11-.996 0V9.354a.498.498 0 11.996 0v3.653zm.872-5.355a.496.496 0 01-.656-.257l-.548-1.255h1.087l.374.857a.498.498 0 01-.257.655z"/></g><defs><clipPath id="akclip0"><path d="M0 0h17v17H0z"/></clipPath></defs></symbol><symbol viewBox="0 0 23 19" id="cart-2" xmlns="http://www.w3.org/2000/svg"><path d="M22.173 6.376a1.507 1.507 0 00-1.195-.588H16.74L14.443.396a.639.639 0 00-.848-.34.667.667 0 00-.333.87l2.072 4.862H7.666L9.738.925a.667.667 0 00-.333-.87.638.638 0 00-.848.341L6.259 5.788H2.022c-.469 0-.905.215-1.195.588a1.55 1.55 0 00-.29 1.294l2.264 10.129A1.518 1.518 0 004.285 19h14.43a1.52 1.52 0 001.485-1.201l2.262-10.13a1.55 1.55 0 00-.289-1.293zM18.715 17.68H4.285a.232.232 0 01-.228-.175L1.794 7.375a.205.205 0 01.04-.175.232.232 0 01.188-.09h3.674l-.168.396a.667.667 0 00.332.87.628.628 0 00.258.055.644.644 0 00.59-.396l.395-.925h8.794l.394.924a.644.644 0 00.591.397.628.628 0 00.258-.056.667.667 0 00.332-.87l-.168-.396h3.674c.102 0 .161.057.187.09a.206.206 0 01.04.176l-2.262 10.129a.232.232 0 01-.228.175z"/><path d="M7.633 9.972a.653.653 0 00-.645.66v4.845c0 .364.289.66.645.66a.653.653 0 00.644-.66v-4.845a.653.653 0 00-.644-.66zm3.867 0a.653.653 0 00-.645.66v4.845c0 .364.289.66.645.66a.653.653 0 00.645-.66v-4.845a.653.653 0 00-.645-.66zm3.867 0a.653.653 0 00-.644.66v4.845c0 .364.288.66.644.66a.653.653 0 00.645-.66v-4.845a.653.653 0 00-.645-.66z"/></symbol><symbol viewBox="0 0 30 30" id="catalog" xmlns="http://www.w3.org/2000/svg"><path d="M17.198 15.86a1.948 1.948 0 000 2.752l1.375 1.375 1.376-1.375c.76-.76.76-1.991 0-2.751a1.947 1.947 0 00-2.751 0z"/><path d="M24.622 8.469H12.523a.879.879 0 00-.878.879V29.12c0 .486.393.879.878.879h12.099a.879.879 0 00.878-.879V9.348a.879.879 0 00-.878-.88zm-2.604 14.964a.879.879 0 11-1.243 1.243l-2.203-2.202-2.203 2.202a.879.879 0 01-1.243-1.243l2.203-2.203-1.376-1.375a3.707 3.707 0 010-5.237 3.707 3.707 0 015.237 0 3.7 3.7 0 010 5.237l-1.375 1.375 2.203 2.203zM17.63 6.71V.883c0 .684-.268 1.356-.774 1.861L12.89 6.711h4.74z"/><path d="M14.991 0H5.38a.879.879 0 00-.88.879v19.773c0 .486.394.88.879.88h4.508V8.681c0-.932.37-1.827 1.03-2.486L15.613 1.5c.553-.553.161-1.5-.622-1.5zm-.385 28.026l-1.579-15.79 9.474-.789.79 11.448-.79 5.131h-7.895z"/></symbol><symbol viewBox="0 0 30 28" id="catalog-2" xmlns="http://www.w3.org/2000/svg"><path d="M28.82 3.01h-5.899V.72h-2.36v2.29H9.439V.719h-2.36V3.01H1.18C.54 3.01 0 3.55 0 4.19V26.1c0 .64.54 1.18 1.18 1.18h27.64c.64 0 1.18-.54 1.18-1.18V4.19c0-.674-.54-1.18-1.18-1.18zm-7.55 9.54l-7.315 7.281c-.472.472-1.213.472-1.652.034l-.033-.034-3.54-3.54a1.18 1.18 0 010-1.685 1.18 1.18 0 011.686 0l2.696 2.73 6.472-6.471a1.18 1.18 0 011.686 0 1.18 1.18 0 010 1.685z"/></symbol><symbol viewBox="0 0 24 17" id="check" xmlns="http://www.w3.org/2000/svg"><path d="M23.442.549a1.925 1.925 0 00-2.692 0L8.635 12.476 3.25 7.175a1.925 1.925 0 00-2.692 0 1.853 1.853 0 000 2.65l6.73 6.626c.372.366.86.549 1.346.549a1.91 1.91 0 001.347-.55L23.442 3.2a1.853 1.853 0 000-2.651z"/></symbol><symbol viewBox="0 0 24 30" id="click" xmlns="http://www.w3.org/2000/svg"><path d="M2.727 8.848a6.897 6.897 0 016.89-6.889 6.897 6.897 0 016.62 8.795l1.883.543a8.837 8.837 0 00.345-2.449C18.465 3.97 14.495 0 9.617 0 4.737 0 .768 3.97.768 8.848c0 2.166.794 4.252 2.236 5.873l1.464-1.302a6.875 6.875 0 01-1.74-4.57z"/><path d="M15.157 9.53a5.59 5.59 0 00-5.54-6.265 5.59 5.59 0 00-5.584 5.583c0 1.257.411 2.446 1.188 3.438l1.542-1.208a3.583 3.583 0 01-.77-2.23 3.628 3.628 0 013.624-3.624 3.628 3.628 0 013.596 4.067l1.944.238z"/><path d="M21.567 14.755c-.92 0-1.665.745-1.665 1.665h-.653v-1.794a1.665 1.665 0 00-3.33 0v1.794h-.654v-3.433a1.665 1.665 0 10-3.33 0v3.433h-.653V8.848a1.665 1.665 0 10-3.33 0v12.33h-.654v-4.021a1.665 1.665 0 10-3.33 0v6.128A6.723 6.723 0 0010.683 30h5.834a6.722 6.722 0 006.715-6.715V16.42c0-.92-.745-1.665-1.665-1.665z"/></symbol><symbol viewBox="0 0 30 30" id="clock" xmlns="http://www.w3.org/2000/svg"><path d="M15 0C6.729 0 0 6.729 0 15s6.729 15 15 15 15-6.729 15-15S23.271 0 15 0zm7.134 22.759a1.247 1.247 0 01-1.768 0l-6.25-6.25a1.244 1.244 0 01-.366-.884V7.5a1.25 1.25 0 112.5 0v7.608l5.884 5.883a1.249 1.249 0 010 1.768z"/></symbol><symbol viewBox="0 0 20 20" id="close" xmlns="http://www.w3.org/2000/svg"><path d="M11.832 10.016L19.62 2.23A1.294 1.294 0 1017.788.397L10 8.183 2.212.396A1.294 1.294 0 10.38 2.23l7.788 7.787L.38 17.804a1.294 1.294 0 00.916 2.212c.332 0 .664-.127.916-.38L10 11.85l7.788 7.787a1.292 1.292 0 001.832 0 1.294 1.294 0 000-1.832l-7.788-7.788z"/></symbol><symbol viewBox="0 0 40 40" id="coins" xmlns="http://www.w3.org/2000/svg"><g clip-path="url(#asclip0)"><path d="M29.375 11.797c-3.061 0-10.625-.429-10.625-3.516v4.688c0 3.351 8.867 3.515 10.625 3.515C31.133 16.484 40 16.32 40 12.97V8.28c0 3.087-7.564 3.516-10.625 3.516z"/><path d="M29.375 2.422c-1.761 0-10.625.17-10.625 3.515 0 3.347 8.864 3.516 10.625 3.516C31.136 9.453 40 9.283 40 5.938c0-3.347-8.864-3.516-10.625-3.516zm0 16.406c-3.061 0-10.625-.428-10.625-3.515v1.782a12.93 12.93 0 013.988 5.785c2.571.583 5.681.636 6.637.636C31.133 23.516 40 23.352 40 20v-4.688c0 3.088-7.564 3.516-10.625 3.516z"/><path d="M29.375 25.86c-.887 0-3.632-.042-6.06-.511.072.552.122 1.11.122 1.682 0 1.018-.13 2.004-.355 2.954 2.492.513 5.38.562 6.293.562 1.758 0 10.625-.164 10.625-3.516v-4.687c0 3.087-7.564 3.515-10.625 3.515z"/><path d="M29.375 32.89c-1.006 0-4.37-.057-7.009-.729a12.916 12.916 0 01-2.455 3.702c2.44 1.61 8.1 1.715 9.464 1.715 1.758 0 10.625-.164 10.625-3.516v-4.687c0 3.087-7.564 3.516-10.625 3.516zM10.547 16.484C4.73 16.484 0 21.215 0 27.031c0 5.816 4.731 10.547 10.547 10.547 5.816 0 10.547-4.73 10.547-10.547 0-5.816-4.731-10.547-10.547-10.547zM11.75 32.68c-.01.004-.021.002-.031.005v1.379a1.171 1.171 0 11-2.344 0v-1.387c-.772-.26-1.511-.755-2.144-1.509a1.173 1.173 0 011.794-1.506c.621.737 1.326 1.035 1.922.816a1.173 1.173 0 00-.4-2.274 3.52 3.52 0 01-3.516-3.515c0-1.382.781-2.729 2.344-3.288V20a1.171 1.171 0 112.344 0v1.402a4.524 4.524 0 011.727 1.043 1.172 1.172 0 11-1.632 1.682c-.57-.552-1.2-.742-1.723-.52a1.171 1.171 0 00.456 2.252 3.52 3.52 0 013.515 3.516c0 1.473-.929 2.8-2.312 3.304z"/></g><defs><clipPath id="asclip0"><path d="M0 0h40v40H0z"/></clipPath></defs></symbol><symbol viewBox="0 0 13 13" id="comment" xmlns="http://www.w3.org/2000/svg"><path d="M11.699 11.15c2.262-2.61 1.475-6.667-1.602-8.25A5.35 5.35 0 005.345 0 5.35 5.35 0 000 5.345 5.31 5.31 0 001.301 8.84L.114 10.012a.381.381 0 00.265.652l2.868.014A5.34 5.34 0 007.655 13l4.966-.025a.381.381 0 00.265-.652L11.7 11.15zM2.1 8.583A4.554 4.554 0 01.762 5.345 4.588 4.588 0 015.345.762a4.588 4.588 0 014.582 4.583c0 2.421-1.916 4.602-4.73 4.58l-3.892-.018.794-.784a.381.381 0 00.002-.54zm5.554 3.656a4.559 4.559 0 01-3.442-1.556l1.132.008c3.438 0 6.005-3.225 5.197-6.592 2.107 1.72 2.279 4.869.357 6.795a.381.381 0 00.002.54l.794.784-4.04.021z"/><path d="M3.072 4.215h4.57a.38.38 0 000-.762h-4.57a.38.38 0 000 .762zm0 1.523h4.57a.38.38 0 000-.761h-4.57a.38.38 0 000 .761zm0 1.524h4.57a.38.38 0 000-.762h-4.57a.38.38 0 000 .762z"/></symbol><symbol viewBox="0 0 16 20" id="delete" xmlns="http://www.w3.org/2000/svg"><path d="M1.111 17.778C1.111 19 2.111 20 3.333 20h8.89c1.221 0 2.221-1 2.221-2.222V4.444H1.111v13.334zm2.733-7.911L5.411 8.3l2.367 2.356L10.133 8.3 11.7 9.867l-2.356 2.355 2.356 2.356-1.567 1.566-2.355-2.355-2.356 2.355-1.566-1.566 2.355-2.356-2.367-2.355zm7.823-8.756L10.556 0H5L3.889 1.111H0v2.222h15.556V1.111h-3.89z"/></symbol><symbol viewBox="0 0 14 14" id="delete-2" xmlns="http://www.w3.org/2000/svg"><path d="M13.333 3a.667.667 0 01-.589.662l-.078.005h-.563l-.821 8.346a1.833 1.833 0 01-1.825 1.654H4.541a1.834 1.834 0 01-1.824-1.654l-.821-8.346h-.563a.667.667 0 010-1.334h3.333a2.333 2.333 0 114.667 0h3.333a.667.667 0 01.667.667zM8.499 5.167a.5.5 0 00-.495.432l-.005.068v4.666l.005.068a.5.5 0 00.99 0L9 10.333V5.667l-.004-.068a.5.5 0 00-.496-.432zm-3 0a.5.5 0 00-.495.432l-.005.068v4.666l.005.068a.5.5 0 00.99 0L6 10.333V5.667l-.004-.068a.5.5 0 00-.496-.432zM7 1.333a1 1 0 00-1 1h2a1 1 0 00-1-1z"/></symbol><symbol viewBox="0 0 25 25" id="delivery" xmlns="http://www.w3.org/2000/svg"><g clip-path="url(#awclip0)"><path d="M23.402 12.266a3.5 3.5 0 01-.219-.049c-.747-.193-1.087-.299-1.34-.783l-.954-1.922c-.307-.59-1.1-1.069-1.767-1.069h-1.7v-2.22a.726.726 0 00-.727-.723l-11.841.012c-.39 0-.685.308-.685.717v.656H1.136C.51 6.885 0 7.392 0 8.015c0 .623.51 1.13 1.136 1.13H4.17v1.083H2.183c-.626 0-1.136.507-1.136 1.13 0 .622.51 1.13 1.136 1.13H4.17v1.082h-.938c-.627 0-1.136.507-1.136 1.13 0 .623.51 1.13 1.136 1.13h.938v1.132c0 .399.327.723.727.723h1.232A2.722 2.722 0 008.822 20a2.722 2.722 0 002.694-2.315H16.5l.079-.003A2.722 2.722 0 0019.274 20a2.722 2.722 0 002.694-2.315h1.769A1.26 1.26 0 0025 16.429v-2.131c0-1.698-.962-1.899-1.598-2.032zm-4.128 4.042c.546 0 .99.442.99.985a.988.988 0 01-.99.984.988.988 0 01-.99-.984c0-.543.444-.985.99-.985zm-1.852-4.195V9.492h1.3c.498 0 1.114.372 1.343.811l.85 1.71c.018.036.037.069.056.1h-3.55zm-7.61 5.18a.988.988 0 01-.99.984.988.988 0 01-.99-.984c0-.543.444-.985.99-.985s.99.442.99.985z"/></g><defs><clipPath id="awclip0"><path d="M0 0h25v25H0z"/></clipPath></defs></symbol><symbol viewBox="0 0 20 20" id="delivery-box" xmlns="http://www.w3.org/2000/svg"><g clip-path="url(#axclip0)"><path d="M13.433 1.609L4.358 6.256.75 4.48 9.666.078a.73.73 0 01.65 0l3.117 1.531zm5.807 2.869l-9.235 4.575L6.547 7.35l-.5-.254 9.086-4.646.5.254 3.607 1.775zm-9.975 5.894l-.01 9.627L.41 15.384a.772.772 0 01-.41-.68V5.796l3.748 1.847v3.246c0 .416.34.761.75.761s.75-.345.75-.76V8.393l.5.244 3.517 1.734zm10.724-4.563l-9.225 4.555-.01 9.627 9.245-4.827-.01-9.355z"/></g><defs><clipPath id="axclip0"><path d="M0 0h20v20H0z"/></clipPath></defs></symbol><symbol viewBox="0 0 24 24" id="download" xmlns="http://www.w3.org/2000/svg"><path d="M15.895 11.553A1.001 1.001 0 0015 11h-2V1a1 1 0 10-2 0v10H9a1.001 1.001 0 00-.8 1.6l3 4c.013.017.033.023.047.039a.977.977 0 00.23.193c.037.022.065.05.104.069.128.06.268.099.419.099a.99.99 0 00.42-.1c.038-.017.067-.046.102-.068a.977.977 0 00.23-.193c.014-.016.035-.022.048-.04l3-3.999a.999.999 0 00.095-1.047z"/><path d="M23 15a1 1 0 00-1 1v3c0 1.654-1.346 3-3 3H5c-1.654 0-3-1.346-3-3v-3a1 1 0 10-2 0v3c0 2.757 2.243 5 5 5h14c2.757 0 5-2.243 5-5v-3a1 1 0 00-1-1z"/></symbol><symbol viewBox="0 0 25 25" id="edit" xmlns="http://www.w3.org/2000/svg"><path d="M20.535 12.5c-.493 0-.892.4-.892.893v8.929c0 .493-.4.892-.893.892H2.679a.893.893 0 01-.893-.892V4.465c0-.493.4-.893.893-.893h10.714a.893.893 0 000-1.786H2.679A2.68 2.68 0 000 4.465v17.857A2.68 2.68 0 002.679 25h16.07c1.48 0 2.68-1.2 2.68-2.678v-8.929c0-.493-.4-.893-.894-.893z"/><path d="M24 1.001a3.418 3.418 0 00-4.835 0l-11.76 11.76a.903.903 0 00-.216.35l-1.786 5.357a.893.893 0 001.129 1.13l5.357-1.787a.892.892 0 00.35-.216l11.76-11.76a3.418 3.418 0 000-4.834z"/></symbol><symbol viewBox="0 0 16 16" id="exit" xmlns="http://www.w3.org/2000/svg"><path d="M15.03 7.47l-2.828-2.828a.75.75 0 10-1.06 1.06l1.547 1.548H4.5a.75.75 0 000 1.5h8.19l-1.549 1.548a.75.75 0 001.06 1.061l2.83-2.828a.75.75 0 000-1.061z"/><path d="M9.5 12.25a.75.75 0 00-.75.75v.75h-6.5V2.25h6.5V3a.75.75 0 001.5 0V2A1.248 1.248 0 009 .75H2A1.25 1.25 0 00.75 2v12A1.25 1.25 0 002 15.25h7A1.248 1.248 0 0010.25 14v-1a.75.75 0 00-.75-.75z"/></symbol><symbol viewBox="0 0 20 20" id="facebook" xmlns="http://www.w3.org/2000/svg"><path d="M5.271 10.652h2.192v9.025c0 .179.145.323.323.323h3.717a.323.323 0 00.323-.323v-8.982h2.52a.323.323 0 00.32-.286l.383-3.323a.323.323 0 00-.32-.36h-2.903V4.645c0-.628.338-.947 1.005-.947h1.898a.323.323 0 00.322-.322V.325a.323.323 0 00-.322-.323h-2.616L11.993 0c-.454 0-2.031.09-3.277 1.236-1.381 1.27-1.19 2.791-1.143 3.055v2.436H5.27a.323.323 0 00-.323.322v3.28c0 .178.145.323.323.323z"/></symbol><symbol viewBox="0 0 24 24" id="file" xmlns="http://www.w3.org/2000/svg"><path d="M15.469 7.031c-.905 0-1.64-.736-1.64-1.64V0H5.436A2.581 2.581 0 002.86 2.578v18.844A2.581 2.581 0 005.438 24h13.125a2.581 2.581 0 002.578-2.578V7.032h-5.672zm-8.766 9.844h3.409a.703.703 0 010 1.406H6.703a.703.703 0 010-1.406zM6 13.828c0-.388.315-.703.703-.703h10.313a.703.703 0 110 1.406H6.703A.703.703 0 016 13.828zm11.016-4.453a.703.703 0 010 1.406H6.703a.703.703 0 010-1.406h10.313z"/><path d="M15.234 5.39c0 .13.105.235.235.235h5.358a2.571 2.571 0 00-.493-.644L15.814.705a2.584 2.584 0 00-.58-.413V5.39z"/></symbol><symbol viewBox="0 0 24 24" id="file-add" xmlns="http://www.w3.org/2000/svg"><g clip-path="url(#bdclip0)"><path d="M15.25 0H2.75C1.23 0 0 1.23 0 2.75v16.5C0 20.77 1.23 22 2.75 22h10.4c-.1-.48-.15-.99-.15-1.5v-5.25c0-.08 0-.17.01-.25H4c-.55 0-1-.45-1-1s.45-1 1-1h9.42A6.237 6.237 0 0118 9.13V2.75C18 1.23 16.77 0 15.25 0zM4 5h5c.55 0 1 .45 1 1s-.45 1-1 1H4c-.55 0-1-.45-1-1s.45-1 1-1zm10 6H4c-.55 0-1-.45-1-1s.45-1 1-1h10c.55 0 1 .45 1 1s-.45 1-1 1zm6.5 13c-1.93 0-3.5-1.57-3.5-3.5v-5.25c0-1.24 1.01-2.25 2.25-2.25s2.25 1.01 2.25 2.25v5a.75.75 0 01-1.5 0v-5a.75.75 0 00-1.5 0v5.25c0 1.103.897 2 2 2s2-.897 2-2v-6.75a.75.75 0 011.5 0v6.75c0 1.93-1.57 3.5-3.5 3.5z"/></g><defs><clipPath id="bdclip0"><path d="M0 0h24v24H0z"/></clipPath></defs></symbol><symbol viewBox="0 0 18 20" id="file-xls" xmlns="http://www.w3.org/2000/svg"><path d="M12.086 0H4.053a2.132 2.132 0 00-2.128 2.129V10h-.208a.858.858 0 00-.858.858v5.202c0 .474.384.858.858.858h.208v.953A2.13 2.13 0 004.053 20h10.96a2.13 2.13 0 002.129-2.129V5.038L12.086 0zM3.042 11.749h.937l.316.658c.107.22.187.396.273.6h.01c.086-.23.156-.391.247-.6l.305-.658h.931l-1.017 1.76 1.07 1.847h-.941l-.327-.653c-.133-.252-.22-.439-.321-.648h-.01c-.076.21-.167.396-.28.648l-.299.653h-.931l1.044-1.825-1.007-1.782zm11.972 6.947H4.054a.826.826 0 01-.825-.825v-.953h10.217a.858.858 0 00.858-.858v-5.202a.858.858 0 00-.858-.858H3.23V2.129c0-.454.37-.824.824-.824l7.545-.008v2.789c0 .815.661 1.476 1.476 1.476l2.733-.008.03 12.317a.825.825 0 01-.823.825zm-6.205-4.025v.685H6.555V11.75h.82v2.922h1.434zm1.382-.83c-.6-.208-.99-.54-.99-1.064 0-.616.514-1.087 1.365-1.087.407 0 .706.086.92.182l-.181.658a1.718 1.718 0 00-.755-.171c-.353 0-.525.16-.525.348 0 .23.204.332.67.508.636.236.936.568.936 1.076 0 .605-.466 1.119-1.456 1.119-.412 0-.819-.107-1.022-.22l.166-.674c.22.113.557.225.904.225.375 0 .573-.155.573-.39 0-.226-.171-.355-.605-.51z"/></symbol><symbol viewBox="0 0 25 36" id="fire" xmlns="http://www.w3.org/2000/svg"><path d="M22.085 9.879c.774 3.335-4.257 5.465-4.257 5.465C22.085 7.904 13.674 0 13.674 0 13.674 14.01 0 15.216 0 26.48c0 5.286 3.509 8.237 7.895 9.34-.026 0-5.367-3.31-4-8.057 0 0 1.265 4.465 2.71 4.029 1.445-.436-1.393-2.592-.826-4.593.594-2.002 1.96-2.463 2.71-3.028.747-.564 1.212-1.642.464-2.848 0 0 3.56 3.13 1.264 5.183-2.296 2.053-2.116 3.028-.98 3.644 1.134.616 5.056-.052 6.32-4.747 0 0 1.884 5.363 0 7.133 0 0 .93.924 2.76-.565 0 0-.438 3.028-2.863 4.029 2.606-.462 5.031-1.437 6.76-2.822 6.372-5.184-.13-23.3-.13-23.3z"/><path opacity=".1" d="M24.999 25.84c-.026.051-2.012 7.441-9.546 10.16 2.606-.46 5.031-1.436 6.76-2.822 1.909-1.565 2.657-4.285 2.786-7.338zM.568 22.76A11.986 11.986 0 000 26.48c0 5.21 3.38 8.134 7.663 9.263C2.709 33.511.568 22.811.568 22.76z"/></symbol><symbol viewBox="0 0 25 25" id="flower" xmlns="http://www.w3.org/2000/svg"><path d="M.56 12.498a.519.519 0 00-.51.52v9.593c0 .143.117.26.26.26h2.46a.518.518 0 00.5-.377l2.296-8.09a1.037 1.037 0 00-.644-1.258c-.94-.343-2.382-.68-4.362-.648zm22.315 5.704c-2.075 0-6.225 2.626-8.3 2.626-2.074 0-4.409-1.588-4.409-1.588s2.795.519 4.41.519c1.613 0 2.074-.551 2.074-1.297 0-1.816-3.083-2.098-4.643-2.335-1.531-.853-2.327-1.527-4.864-1.742a2.503 2.503 0 01-.078.442L4.98 22.17c2.36 1.074 6.425 2.774 8.558 2.774 3.112 0 11.411-4.15 11.411-5.186 0-1.038-1.037-1.557-2.075-1.557zM23.826.753c-.09-.29-.39-.508-.691-.547-1.837-.242-4.353-.573-6.366 1.237-1.312 1.183-1.507 3.154-.535 4.581-.858.882-1.446 1.93-1.843 2.884-.17-.33-.367-.67-.588-1.02a17.35 17.35 0 00-.762-1.104 4.335 4.335 0 00.292-1.622c-.013-1.199-.498-2.375-1.3-3.145C9.577-.344 6.498-.035 4.025.214l-.128.013a.78.78 0 00-.462 1.335c1.108 1.064 1.334 2.196 1.573 3.393.212 1.064.432 2.166 1.33 3.03a4.441 4.441 0 003.068 1.228c.93 0 1.837-.306 2.547-.905a.434.434 0 01.11-.1c.729 1.053 1.543 2.495 1.543 3.579a.816.816 0 001.624.103c.005-.037.403-2.986 2.263-4.814l.018.01a3.312 3.312 0 001.302.26c.906 0 1.806-.33 2.444-.906.756-.68.96-1.55 1.156-2.392.207-.888.402-1.726 1.24-2.481.226-.202.264-.524.174-.814z"/></symbol><symbol viewBox="0 0 30 30" id="home" xmlns="http://www.w3.org/2000/svg"><path d="M29.972 10.086l-1.697-6.792a1.874 1.874 0 00-1.819-1.419H3.546c-.861 0-1.611.585-1.821 1.42l-1.697 6.79a.918.918 0 00-.028.227C0 12.896 1.997 15 4.453 15c1.427 0 2.7-.71 3.516-1.813C8.784 14.289 10.057 15 11.484 15s2.7-.71 3.516-1.813C15.816 14.289 17.087 15 18.516 15c1.428 0 2.7-.71 3.515-1.813.816 1.102 2.087 1.813 3.516 1.813C28.003 15 30 12.896 30 10.312a.92.92 0 00-.028-.226zm-4.425 6.789a6.14 6.14 0 01-3.516-1.102c-2.051 1.426-4.98 1.426-7.031 0-2.051 1.426-4.98 1.426-7.031 0a6.083 6.083 0 01-6.094.52v9.957c0 1.035.84 1.875 1.875 1.875h7.5v-7.5h7.5v7.5h7.5c1.035 0 1.875-.84 1.875-1.875v-9.958a6.083 6.083 0 01-2.578.583z"/></symbol><symbol viewBox="0 0 25 25" id="info" xmlns="http://www.w3.org/2000/svg"><g clip-path="url(#biclip0)"><path d="M12.762 2.083h-1.146A2.878 2.878 0 008.856 0a2.878 2.878 0 00-2.761 2.083H4.949a.787.787 0 00-.781.782v1.562c0 1 .823 1.823 1.823 1.823h5.73c1 0 1.822-.823 1.822-1.823V2.865a.787.787 0 00-.781-.782z"/><path d="M14.844 3.125h-.26v1.302a2.863 2.863 0 01-2.865 2.865h-5.73a2.863 2.863 0 01-2.864-2.865V3.125h-.26A2.863 2.863 0 000 5.99v13.02a2.863 2.863 0 002.865 2.865h6.864a9.102 9.102 0 01-.864-3.646H3.906a.787.787 0 01-.781-.781c0-.427.354-.781.781-.781h5.042a9.56 9.56 0 01.458-1.823h-5.5a.787.787 0 01-.781-.781c0-.428.354-.782.781-.782h6.25a9.066 9.066 0 011.448-1.823H3.906a.787.787 0 01-.781-.78c0-.428.354-.782.781-.782h9.834a8.981 8.981 0 013.968-1.031V5.99a2.863 2.863 0 00-2.864-2.865z"/><path d="M17.969 10.938a7.04 7.04 0 00-7.032 7.03A7.04 7.04 0 0017.97 25 7.04 7.04 0 0025 17.969a7.04 7.04 0 00-7.031-7.032zm1.041 9.895a1.041 1.041 0 11-2.083 0v-3.645a1.041 1.041 0 112.083 0v3.645zm-1.041-5.208a1.042 1.042 0 110-2.084 1.042 1.042 0 010 2.084z"/></g><defs><clipPath id="biclip0"><path d="M0 0h25v25H0z"/></clipPath></defs></symbol><symbol viewBox="0 0 20 20" id="instagram" xmlns="http://www.w3.org/2000/svg"><path d="M13.669 2H6.33A4.336 4.336 0 002 6.331v7.338A4.336 4.336 0 006.331 18h7.338A4.336 4.336 0 0018 13.67V6.33A4.336 4.336 0 0013.669 2zM10 14.375A4.38 4.38 0 015.625 10 4.38 4.38 0 0110 5.625 4.38 4.38 0 0114.375 10 4.38 4.38 0 0110 14.375zm4.48-7.718a1.294 1.294 0 010-2.586 1.294 1.294 0 01-.001 2.586z"/><path d="M10 7c-1.654 0-3 1.346-3 3s1.346 3 3 3 3-1.346 3-3-1.346-3-3-3zm4.5-2a.5.5 0 10.001 1.001A.5.5 0 0014.5 5z"/></symbol><symbol viewBox="0 0 30 30" id="invoice" xmlns="http://www.w3.org/2000/svg"><g clip-path="url(#bkclip0)"><path d="M25.672.77a1.256 1.256 0 00-1.367.209L22.337 2.72a.14.14 0 01-.187 0L19.472.325a1.275 1.275 0 00-1.702 0l-2.676 2.393a.142.142 0 01-.189 0L12.23.325a1.275 1.275 0 00-1.702 0L7.849 2.721a.142.142 0 01-.188 0L5.69.98a1.266 1.266 0 00-2.108.956v26.13a1.268 1.268 0 002.111.956l1.969-1.742a.14.14 0 01.187 0l2.678 2.396a1.275 1.275 0 001.702 0l2.676-2.393a.142.142 0 01.189 0l2.676 2.392a1.276 1.276 0 001.702 0l2.678-2.395a.142.142 0 01.189 0l1.97 1.742a1.266 1.266 0 002.107-.956V1.936A1.256 1.256 0 0025.672.77zM8.278 10.179h7.062a.567.567 0 010 1.135H8.278a.567.567 0 010-1.135zm13.444 9.644H8.278a.567.567 0 010-1.134h13.444a.567.567 0 010 1.134zm0-4.255H8.278a.567.567 0 010-1.134h13.444a.567.567 0 010 1.134z"/></g><defs><clipPath id="bkclip0"><path d="M0 0h30v30H0z"/></clipPath></defs></symbol><symbol viewBox="0 0 25 25" id="lock" xmlns="http://www.w3.org/2000/svg"><path d="M21.354 9.375h-1.562V7.292C19.792 3.27 16.52 0 12.5 0S5.208 3.271 5.208 7.292v2.083H3.646a.52.52 0 00-.521.52v13.022c0 1.149.934 2.083 2.083 2.083h14.584a2.085 2.085 0 002.083-2.083V9.896a.52.52 0 00-.52-.521zm-7.294 10.88a.522.522 0 01-.518.578h-2.084a.52.52 0 01-.517-.578l.328-2.955a2.06 2.06 0 01-.852-1.675 2.084 2.084 0 014.166 0 2.06 2.06 0 01-.852 1.675l.329 2.955zm2.607-10.88H8.333V7.292A4.171 4.171 0 0112.5 3.125a4.171 4.171 0 014.167 4.167v2.083z"/></symbol><symbol viewBox="0 0 183.6 79" id="logo" xmlns="http://www.w3.org/2000/svg"><path d="M177.1 26c-.6-1.8-1.9-3.1-3.9-3.9-4.8-1.9-8.5 2.6-11.9-.6.8 6.6 11.9 11.3 16.6 6.3-2-2-6.8-3.2-8.9-2.3 2.5-1.4 5.8-.9 8.1.5zm-.9-12.9c-2.2-3.4.1-6.8 2.3-8.2 2.1-1.4 3.3-2.1 4.4-4.9 1.2 2 1.6 13.6-6 14-.5-1.8 1.5-5.9 4.1-7.8-3.6 1.7-5.1 6-4.8 6.9z"/><path d="M169.6 56.2c6.9-6.5 6.8-8.6 8.4-14 2.8-9.5 1.2-20.4-5.2-28.8-4.7-6.2-13.3-9.8-21.4-9-6.3.6-11 3.7-13.5 8.6-2.1 4.2-1.8 9 .7 12.3 1.9 2.6 4.9 3.8 8.3 3.2 3.6-.6 7.2-4.4 7.6-8.1.1-.8 0-1.8-.4-2.8-.4-1-.8-.7-1.1.1-.7 1.5-2.3 2.5-4 2.2-2.1-.3-3.5-2.2-3.2-4.3.8-3.7 4.8-4.5 7.7-2.3 2 1.5 3.3 4.6 3 7.3-.5 4.6-4.8 9.1-9.3 9.8-4.1.7-7.9-.8-10.2-4-2.9-3.9-3.2-9.6-.8-14.4 2.7-5.5 8.2-9.1 15.1-9.7 8.8-.9 18.1 3.1 23.2 9.8 6.9 9.1 8.1 20.6 4.7 30.9-1.8 5.5-3.4 10.2-9.2 14.8M7.3 79c-.7 0-1.2-.1-1.7-.2s-1-.3-1.7-.7c-.7-.3-1.4-.7-2-1.1-.6-.4-1.1-.7-1.3-.9-.4-.4-.6-.8-.6-1.1 0-.3.1-.5.4-.5.2 0 .5.2.9.6 1.3 1.2 2.8 1.8 4.8 1.8 1.3 0 2.8-.3 4.5-.9 2.5-1 5-2.8 7.4-5.5 2.4-2.7 4.4-5.5 5.8-8.5 1.3-2.5 1.9-4.8 1.9-6.7 0-.4 0-.8-.1-1.1-.4-2.6-1.9-3.9-4.3-3.9-.4 0-1.1.1-1.9.3-2.6.4-4 1.1-4.2 2l-.7 1.9c-.9 2.5-1.6 4.8-2.3 6.9-1.3 4.1-2.2 6.9-2.7 8.5-.2.4-.5.6-1.1.6-.4 0-.8-.1-1.2-.4-.4-.2-.6-.6-.6-1.1.9-4.7 2.4-10.4 4.6-17 2.2-6.6 4.3-12.1 6.5-16.5.8-1.6 1.4-2.6 1.9-3.2.4-.4.8-.7 1.2-.7h.2c1 .2 1.4.7 1.4 1.4 0 .3-.3 1.1-.8 2.6-1.3 3.6-2.5 6.5-3.4 8.9l-.9 2.1-.3.9s.4-.2 1-.6c.6-.4 1.4-.9 2.3-1.5 7-5.3 10.5-9.8 10.5-13.5 0-.5 0-.9-.1-1.1-.6-1-1.8-1.6-3.6-1.6-.7 0-2 .2-3.7.5-1.8.3-4 1.3-6.6 3-1.8 1.1-3.5 2.5-5.2 4.1-3.6 3.3-5.4 5.9-5.4 7.7 0 .4-.1.6-.3.6-.3 0-.6-.1-.9-.4-.3-.3-.4-.5-.4-.9v-.4c0-.2.3-.8.7-1.7 1.4-2.7 3.7-5.4 6.9-7.9 3.2-2.6 6.5-4.3 9.8-5.3 1.6-.5 3.1-.7 4.4-.7 2.4 0 4.2.9 5.3 2.6.6.9.9 1.9.9 3 0 1.3-.4 2.7-1.2 4.2-1.6 3.3-4.5 6.4-8.7 9.3-.6.4-1 .7-1.4.9-.4.3-.6.4-.6.4s.1.1.3.2c.2.1.5.2.8.3 1.2.4 2.3 1.1 3.3 2.1s1.7 2.2 2.2 3.4c.2.8.4 1.8.4 3s-.1 2.3-.4 3.3c-.4 1.7-1.3 3.7-2.6 5.9-1.3 2.3-2.8 4.3-4.3 6.2-1.2 1.4-2.7 2.6-4.4 3.8-1.7 1.1-3.3 1.9-4.7 2.3-1.1.2-2.4.3-4 .3zm27.6-15.8c-.6 0-1.2-.1-1.7-.4-1.4-.8-2.1-2-2.1-3.6 0-1.3.5-2.9 1.6-4.6 1.3-2.1 2.5-3.2 3.7-3.2l.2.1c1.6.4 2.5 1.3 2.5 2.7 0 .6-.2 1.3-.6 2.2-.3.6-.6 1.1-.9 1.5-.3.3-.8.5-1.5.5-.4 0-.8-.1-1.2-.3-.2-.2-.4-.2-.4-.2-.1 0-.2.1-.2.2-.4.7-.6 1.6-.6 2.6 0 .9.2 1.3.6 1.3.2 0 .5-.1 1.1-.3 2-.6 4.4-2 7.1-4.1 1.7-1.2 2.7-2.1 3.2-2.6.4-.4.7-.5.9-.5.2 0 .4.1.6.3.1.1.1.2.1.4 0 .1-.1.2-.2.4s-.5.5-1.1 1l-3.5 2.8c-.4.3-.9.7-1.4 1-.5.4-.9.7-1.3.9-2.1 1.2-3.7 1.9-4.9 1.9zm.4-5.9c.2 0 .5-.2.9-.7.7-1 1.1-1.9 1.1-2.8v-.7l-.7.6c-.3.3-.7.9-1.2 1.8l-.1.1c-.2.4-.3.6-.4.9-.1.2-.1.4-.1.4 0 .1 0 .1.1.1.1.2.3.3.4.3z"/><path d="M45.6 66.3c-.7 0-1.6-.2-2.5-.5-1-.5-1.5-1.1-1.5-1.7 0-.2.1-.4.2-.6.2-.2.3-.4.6-.4 1.9-.7 3-1.3 3.2-1.6v-1.2l-.1-5.1c0-.4 0-.8.1-1 0-.2.1-.5.3-.8.4-.7.8-1.2 1.4-1.5.6-.3 1.1-.5 1.7-.5.8 0 1.3.2 1.7.6.3.3.5.5.5.7 0 .2-.3.4-.9.4-.3 0-.5.1-.7.3-.2.2-.4.4-.6.8-.2.4-.3.7-.4 1.2 0 .4-.1 1-.1 1.8 0 .5 0 1 .1 1.4l.1 1 .1.6c.6-.4 1.1-.8 1.6-1.1.5-.3 1.1-.8 1.9-1.3.7-.5 1.4-1 2-1.5.9-.7 1.6-1.2 2.1-1.6.5-.4.9-.6 1.1-.7.2-.1.4-.2.5-.2.2 0 .4.1.5.2.2.2.3.3.3.5 0 .1-.5.5-1.4 1.2-1.6 1.3-3.8 2.9-6.6 4.8-1.2.8-1.8 1.3-1.9 1.5-.1.2-.2.4-.2.7-.2.8-.3 1.4-.5 1.8-.4 1.3-1.3 1.8-2.6 1.8zm-1.8-1.8c.2 0 .3-.1.5-.3l.2-.2h-.4c-.4.1-.6.3-.6.4.1.1.2.1.3.1z"/><path d="M55.7 71.2c-.3 0-.5-.1-.7-.2-1.2-.4-1.7-1.3-1.7-2.8 0-1 .2-2.5.7-4.4.9-4 2.7-8.9 5.5-14.8.5-1.1.8-1.7.8-1.7 0-.1-.4-.2-1.2-.4-1 0-1.6-.3-1.6-.8 0-.1.1-.2.3-.2.2-.1 1.3-.1 3.3-.1l2-3.8 1.7-3.4c2-4 3.2-6.1 3.6-6.4.2 0 .3.1.6.2s.5.3.7.5c.2.2.3.4.4.5 0 .6-1.7 4.7-5.2 12.2 1.5 0 2.4 0 2.6.1.2.1.4.2.6.4.1.2.2.4.2.5 0 .2-.4.3-1.3.3h-1.2c-.7 0-1.2.1-1.5.2-.3.2-.7.7-1 1.5-.5 1-1.1 2.3-1.8 4.1-1.8 4.1-3 7.3-3.7 9.4-.5 1.5-1 3.1-1.5 4.9-.3 1.2-.5 1.9-.5 2.1s0 .2.1.2c.2-.1.3-.2.4-.2.1 0 .6-.5 1.5-1.3 1.9-1.9 3.7-3.9 5.4-6 1.1-1.4 2.3-2.7 3.4-4 2.1-2.4 3.1-3.5 3.2-3.6h.1c.1 0 .2 0 .3.1.1 0 .3.1.4.2.2.1.2.2.2.4-.1.3-2.7 3.6-7.9 9.8-2.8 3.3-4.8 5.4-5.9 6-.4.3-.9.5-1.3.5z"/><path d="M74.6 75.1c-.7 0-1.3-.2-1.9-.4-.3-.2-.6-.6-.9-1-.3-.4-.4-.8-.4-1.1 0-.2.2-.3.4-.3.4 0 .8.2 1.2.5.3.3.7.5 1 .5h.1c2.7-.8 5.3-5.3 7.8-13.5.2-.7.4-1.1.4-1.2-.1 0-.6.6-1.5 1.8-3.2 4-5.5 6-7 6-.5 0-1.1-.2-1.8-.7-.7-.5-1.2-1-1.6-1.6-.9-1.7-1.3-3.6-1.3-5.8 0-1.9.3-4.1 1-6.4 1.5-5 3.7-9.7 6.5-14.1s5.5-7.5 8.2-9.1c.9-.4 1.7-.7 2.5-.7 1 0 2.1.5 3.2 1.5 1.2 1 1.8 2.9 1.8 5.5 0 1.2-.1 2.3-.4 3.4-.3 1.1-.8 2.5-1.5 4.2-.6 1.4-1 2.3-1.3 2.6-.2.2-.3.2-.4.2-.2 0-.4-.1-.5-.3-.2-.2-.3-.4-.3-.5v-.2c.4-.5 1.1-2.4 2.1-5.5.5-1.2.8-2.9.8-5.1v-.7c0-.2-.1-.5-.2-.8-.1-.3-.2-.6-.4-1.1l-.5-1-.4-.4c-.1 0-.3-.1-.6-.1-1.8 0-4.7 3-8.6 9-3.6 5.8-6.1 11.6-7.5 17.2-.4 1.6-.6 3.1-.6 4.7 0 1.1.1 2.1.2 2.9.1.5.2.8.3 1 .1.1.3.2.5.2.4 0 1.1-.4 2.2-1.2 1-.8 2-1.8 2.9-2.9.6-.7 1.3-1.6 2.1-2.6 2.7-3.4 4.1-5.3 4.1-5.6 0 0 0-.1-.1-.1h-.3c-.5 0-1.2.1-2 .4-.7.2-1.3.3-1.6.3h-.4c-.2 0-.4-.2-.5-.5-.1-.1-.1-.2-.1-.3V52c0-.1.6-.3 1.7-.6s2.2-.5 3.4-.8c1.5-.2 2.7-.4 3.8-.4h.5c.4.1.6.2.8.4.2.2.3.4.3.6 0 .1-.1.1-.2.2s-.6.2-1.5.3c-.3 0-.6.1-.8.2-.2.1-.3.2-.4.2 0 .1-.2.6-.4 1.5-.3.9-.6 2-1 3.4-1.4 4.8-2.5 8.3-3.4 10.5-.9 2.2-1.8 3.9-2.8 5.1s-2.1 2-3.4 2.4c-.3.1-.8.1-1.3.1zm16-12.1c-.2 0-.5-.1-.8-.3-.3-.2-.6-.4-.9-.8-.3-.3-.4-.6-.4-.9 0-.4.2-1.1.6-2.1.4-1.1.9-2.1 1.3-3 .5-.9 1.1-1.8 1.9-2.6 1-1 1.8-1.6 2.5-1.6s1.4.2 2 .7c.6.5.9 1.1.9 1.7 0 .3 0 .4.1.4 0 0 .2-.1.4-.3.3-.2.6-.5 1-.8.4-.3.9-.7 1.3-1l.8.5c.6.3.9.7.9 1.3 0 .6-.3 1.6-.9 3-.8 2-1.2 3.2-1.2 3.7 0 .1 0 .2.1.2.7 0 2.9-1.5 6.5-4.4.7-.6 1.2-1 1.8-1.4.5-.4.8-.6 1-.6.2 0 .4.1.6.2.2.2.3.3.3.5 0 .1-.4.4-1.1 1.1-1.6 1.5-3.3 2.9-5.1 4.3-1.5 1.2-2.7 1.7-3.6 1.7-.8 0-1.5-.3-2.1-.9-.3-.3-.5-.5-.6-.7-.1-.2-.1-.5-.1-1 0-1 .3-2.2.9-3.7v-.1c-.1 0-.6.4-1.4 1.1-2.3 2.1-3.7 3.4-4.3 4.1-.8.7-1.3 1.1-1.4 1.3-.4.3-.7.4-1 .4zm1.1-2.7l2.2-2 2.3-2v-.1c0-.1-.1-.2-.2-.4-.2-.4-.3-.7-.3-1 0-.2-.1-.3-.2-.3-.2.1-.6.6-1.2 1.4-.6.8-1.1 1.7-1.6 2.6l-1 1.8z"/><path d="M108.4 62.9c-.4 0-.8-.2-1.3-.6-.4-.4-.6-.7-.6-.9 0-.5.2-1.4.6-2.6.4-1.3.9-2.4 1.4-3.4 1.2-2.6 2.2-3.9 3.1-3.9.4 0 .8.2 1.2.7.3.3.5.6.5.9 0 .1-.1.4-.4.8-.4.6-.9 1.4-1.3 2.3.7-.7 1.5-1.4 2.2-2.1.7-.7 1.3-1.3 1.8-1.7.5-.5.8-.7 1-.7h.3c.4 0 .8.2 1.2.7s.7 1 .8 1.8c.1.4.2.6.6.6.3.1.7.1 1.1.1h3c.3 0 .6.1.8.4.3.2.4.4.4.5v.1c-.4.2-1.4.3-3.2.3h-1.8c-.7-.1-1.1-.2-1.5-.5-.3-.3-.6-.7-.9-1.2-.3-.5-.5-.7-.6-.7-.1 0-.5.3-1.1.9-.6.6-1.4 1.4-2.1 2.3-.8.9-1.5 1.8-2.1 2.7-.6.9-1.2 1.6-1.7 2.3-.5.6-.8 1-.9 1-.1-.1-.3-.1-.5-.1z"/><path d="M127 74.5c-.1 0-.3 0-.5-.1s-.4-.2-.6-.4c-.2-.2-.3-.4-.4-.7-.1-.2-.1-.6-.1-1.2 0-2.1 1.3-6.7 3.8-13.7v-.1c-.1 0-.3.2-.5.5-.5.6-1 1.2-1.7 1.8-.7.7-1.3 1.2-1.9 1.7-.6.5-1 .8-1.1.8-.2 0-.3.1-.4.1-.5 0-1-.2-1.6-.7-.5-.5-.8-1.1-.8-1.7 0-.9.3-2.1.9-3.5.6-1.4 1.2-2.5 1.9-3.3 1-1.1 2.2-1.7 3.4-1.7 1 0 1.7.4 2.4 1.2l.4.6 1.2-1.7c.9-1.2 1.7-2.6 2.5-4.1.7-1.3 1.6-3.1 2.9-5.4 3-5.5 4.8-8.7 5.5-9.6.2-.3.4-.4.6-.4.2 0 .4 0 .5.1.1.1.2.1.4.2.4.2.6.3.6.4 0 .2-.4 1.1-1.3 2.9l-7.2 15c-1.7 3.4-3.3 7.1-4.9 11.3-1.1 2.9-1.9 5.4-2.4 7.4l-.3 1.3h1.5c.2.1.3.2.3.5s-.2.7-.6 1.1c-.4.4-.8.8-1.3 1.2-.6 0-1 .2-1.2.2zm-2.9-13.9c.1 0 .5-.3 1.1-.9 1.2-1.1 2.3-2.4 3.4-3.8.2-.3.3-.5.3-.8 0-.2 0-.4-.1-.5-.1-.4-.3-.7-.5-.9-.3 0-.6.2-1 .5-.7.7-1.3 1.7-2 3-.9 2-1.3 3-1.2 3.4-.1 0-.1 0 0 0zm16.9 2.6c-.6 0-1.2-.1-1.7-.4-1.4-.8-2.1-2-2.1-3.6 0-1.3.5-2.9 1.6-4.6 1.3-2.1 2.5-3.2 3.7-3.2l.2.1c1.6.4 2.5 1.3 2.5 2.7 0 .6-.2 1.3-.6 2.2-.3.6-.6 1.1-.9 1.5-.3.3-.8.5-1.5.5-.4 0-.8-.1-1.2-.3-.2-.2-.4-.2-.4-.2-.1 0-.2.1-.2.2-.4.7-.6 1.6-.6 2.6 0 .9.2 1.3.6 1.3.2 0 .5-.1 1.1-.3 2-.6 4.4-2 7.1-4.1 1.7-1.2 2.7-2.1 3.2-2.6.4-.4.7-.5.9-.5.2 0 .4.1.6.3.1.1.1.2.1.4 0 .1-.1.2-.2.4s-.5.5-1.1 1l-3.5 2.8c-.4.3-.9.7-1.4 1-.5.4-.9.7-1.3.9-2 1.2-3.7 1.9-4.9 1.9zm.4-5.9c.2 0 .5-.2.9-.7.7-1 1.1-1.9 1.1-2.8v-.7l-.7.6c-.3.3-.7.9-1.2 1.8l-.1.1c-.2.4-.3.6-.4.9-.1.2-.1.4-.1.4 0 .1 0 .1.1.1.2.2.3.3.4.3z"/><path d="M151.6 63.1h-.1c-.3 0-.6-.1-.9-.2-.3-.2-.5-.4-.6-.8v-.8c0-2.1.6-4.3 1.8-6.8.8-1.7 1.3-2.6 1.7-2.8.2-.1.3-.1.5-.1.6 0 1.1.2 1.5.6.2.2.2.3.2.4 0 .2-.2.6-.4 1.2-.1.1-.4.9-1.1 2.4-1.1 2.5-1.6 3.9-1.6 4.1.1 0 1.2-1 3.3-3.1 1.6-1.7 2.9-2.9 3.8-3.7.9-.8 1.7-1.2 2.2-1.2.4 0 .8.2 1.2.5l.5.5c.1.2.1.4.1.6 0 .6-.1 1.7-.4 3.1v.1c-.2 1-.2 1.7-.2 2.3 0 .4 0 .6.1.7.1.1.2.2.4.2 1.3 0 3.7-1.6 7-4.7 1.1-1 1.8-1.5 2.1-1.5.4 0 .6.1.6.4 0 .4-.6 1.1-1.7 2.2-3.2 3.1-5.7 4.7-7.5 4.7-2.2 0-3.3-1.2-3.3-3.5v-.7c.1-1 .2-1.7.4-2.3v-.3c.1-.2.1-.4.1-.4-.3.1-2.5 2.2-6.7 6.5-.9.9-1.5 1.5-2 1.9-.4.3-.7.5-1 .5z"/></symbol><symbol viewBox="0 0 25 25" id="made" xmlns="http://www.w3.org/2000/svg"><path d="M20.975 5.195a1.886 1.886 0 001.883-1.883 1.886 1.886 0 00-1.883-1.883 1.886 1.886 0 00-1.884 1.883c0 .29.072.561.19.807l-1.81 1.81-.444-.445a.628.628 0 00-.888 0l-.633.634a6.787 6.787 0 00-1.479-.618v-.89a.627.627 0 00-.627-.628h-2.512a.627.627 0 00-.627.628v.89a6.785 6.785 0 00-1.48.618l-.632-.634a.628.628 0 00-.888 0l-.444.444-1.81-1.809c.118-.246.19-.517.19-.807A1.885 1.885 0 003.312 1.43 1.885 1.885 0 001.43 3.312c0 1.039.886 1.883 1.925 1.883.29 0 .52-.07.765-.188l1.81 1.809-.445.444a.628.628 0 000 .888l.634.633c-.266.47-.472.965-.618 1.479h-.89a.627.627 0 00-.628.627V13.4c0 .347.28.627.627.627h.89c.147.514.353 1.008.619 1.48l-.634.632a.628.628 0 000 .888l.444.444-1.81 1.81a1.861 1.861 0 00-.806-.19 1.886 1.886 0 00-1.883 1.884c0 1.038.845 1.883 1.883 1.883a1.886 1.886 0 001.883-1.883c0-.29-.07-.561-.188-.807l1.809-1.81.444.445a.628.628 0 00.888 0l.633-.634c.47.266.965.472 1.479.618v.89c0 .348.28.628.627.628H13.4c.347 0 .627-.28.627-.627v-.89a6.789 6.789 0 001.48-.619l.632.634a.628.628 0 00.888 0l.444-.444 1.81 1.809a1.862 1.862 0 00-.19.807c0 1.038.845 1.883 1.884 1.883a1.886 1.886 0 001.883-1.883 1.886 1.886 0 00-1.883-1.884c-.29 0-.561.072-.807.19l-1.81-1.81.445-.444a.628.628 0 000-.888l-.634-.633c.266-.47.472-.966.618-1.479h.89c.348 0 .628-.28.628-.627v-2.512a.627.627 0 00-.628-.627h-.89a6.783 6.783 0 00-.618-1.48l.634-.632a.628.628 0 000-.888l-.444-.444 1.809-1.81c.246.118.517.19.807.19zm-8.831 11.343a4.4 4.4 0 01-4.395-4.395 4.4 4.4 0 014.395-4.395 4.4 4.4 0 014.394 4.395 4.4 4.4 0 01-4.394 4.395z"/></symbol><symbol viewBox="0 0 24 18" id="mail" xmlns="http://www.w3.org/2000/svg"><path d="M23.965 1.776l-7.332 7.286 7.332 7.285a2.1 2.1 0 00.213-.91V2.687a2.1 2.1 0 00-.213-.91zM22.053.563H2.125a2.1 2.1 0 00-.91.212l9.372 9.325a2.127 2.127 0 003.005 0L22.964.775a2.1 2.1 0 00-.91-.213zM.213 1.776a2.1 2.1 0 00-.213.91v12.75c0 .328.08.634.213.911l7.333-7.285L.213 1.776z"/><path d="M15.631 10.064L14.593 11.1a3.545 3.545 0 01-5.008 0l-1.037-1.037-7.333 7.285c.277.133.583.213.91.213h19.928c.327 0 .634-.08.91-.213l-7.332-7.285z"/></symbol><symbol viewBox="0 0 32 32" id="marker" xmlns="http://www.w3.org/2000/svg"><g clip-path="url(#bpclip0)"><path d="M16 15a4.688 4.688 0 100-9.375A4.688 4.688 0 0016 15z"/><path d="M16 0C10.93 0 5.687 3.857 5.687 10.313c0 5.896 9.202 17.13 9.593 17.6a.94.94 0 001.44 0c.391-.47 9.593-11.704 9.593-17.6C26.313 4.625 21.686 0 16 0zm0 16.875a6.57 6.57 0 01-6.563-6.563A6.57 6.57 0 0116 3.75a6.57 6.57 0 016.563 6.563A6.57 6.57 0 0116 16.875z"/><path d="M22.318 23.613a81.679 81.679 0 01-4.155 5.499 2.813 2.813 0 01-4.322.004 81.785 81.785 0 01-4.159-5.503c-2.427.858-3.995 2.194-3.995 3.7C5.688 29.9 10.306 32 16 32s10.313-2.099 10.313-4.687c0-1.506-1.568-2.842-3.995-3.7z"/></g><defs><clipPath id="bpclip0"><path d="M0 0h32v32H0z"/></clipPath></defs></symbol><symbol viewBox="0 0 16 14" id="menu-burger" xmlns="http://www.w3.org/2000/svg"><path d="M14.163 0H1.837C.824 0 0 .449 0 1c0 .552.824 1 1.837 1h12.326C15.176 2 16 1.552 16 1c0-.551-.824-1-1.837-1zm0 6H1.837C.824 6 0 6.449 0 7c0 .552.824 1 1.837 1h12.326C15.176 8 16 7.552 16 7c0-.551-.824-1-1.837-1zm0 6H1.837C.824 12 0 12.449 0 13c0 .552.824 1 1.837 1h12.326C15.176 14 16 13.552 16 13c0-.551-.824-1-1.837-1z"/></symbol><symbol viewBox="0 0 40 48" id="metro" xmlns="http://www.w3.org/2000/svg"><path d="M17.693 45.709L19.991 48l14.114-14.072c3.6-3.598 5.833-8.564 5.833-14.05C39.938 8.9 31.01 0 20 0 8.99 0 .062 8.9.062 19.879a19.79 19.79 0 005.82 14.036c.306.305.708.484 1.163.484.896 0 1.62-.723 1.62-1.616 0-.453-.196-.867-.497-1.168A16.559 16.559 0 013.3 19.88c0-9.18 7.49-16.646 16.696-16.646 9.206 0 16.7 7.467 16.7 16.646 0 4.591-1.875 8.752-4.898 11.767L17.692 45.709z"/><path d="M23.186 23.8v1.934h7.703V23.8H29.39l-5.099-12.856-4.3 7.506-4.295-7.506L10.593 23.8H9.099v1.934h7.703V23.8h-1.154l1.123-3.207 3.22 5.29 3.225-5.29L24.34 23.8h-1.153z"/></symbol><symbol viewBox="0 0 13 13" id="minus" xmlns="http://www.w3.org/2000/svg"><path d="M11.742 5.242H1.258C.566 5.242 0 5.808 0 6.5c0 .692.566 1.258 1.258 1.258h10.484C12.434 7.758 13 7.192 13 6.5c0-.692-.566-1.258-1.258-1.258z"/></symbol><symbol viewBox="0 0 20 20" id="ok" xmlns="http://www.w3.org/2000/svg"><path d="M3.934 10.735c-.51 1.004.07 1.484 1.393 2.304 1.125.695 2.679.95 3.677 1.051L5.07 17.874c-1.145 1.098.698 2.859 1.842 1.784l3.098-2.987a609.4 609.4 0 013.098 2.992c1.144 1.078 2.987-.668 1.854-1.785-.085-.08-4.197-4.025-3.946-3.784 1.01-.101 2.541-.37 3.653-1.05v-.001c1.323-.825 1.903-1.304 1.4-2.308-.305-.57-1.125-1.047-2.216-.222 0 0-1.475 1.129-3.852 1.129-2.379 0-3.852-1.13-3.852-1.13-1.09-.828-1.914-.347-2.215.223z"/><path d="M10 10.118c2.899 0 5.265-2.265 5.265-5.053C15.265 2.265 12.898 0 10 0 7.101 0 4.734 2.265 4.734 5.065c0 2.788 2.367 5.053 5.266 5.053zm0-7.552c1.424 0 2.586 1.117 2.586 2.499 0 1.37-1.162 2.487-2.586 2.487S7.414 6.436 7.414 5.066c0-1.383 1.161-2.5 2.586-2.5z"/></symbol><symbol viewBox="0 0 20 20" id="phone" xmlns="http://www.w3.org/2000/svg"><path d="M17.232 13.92c-1.208-1.033-2.434-1.66-3.627-.627l-.713.623c-.521.453-1.49 2.568-5.239-1.743-3.747-4.306-1.517-4.977-.995-5.426l.717-.624c1.187-1.034.739-2.336-.117-3.676l-.517-.812C5.881.298 4.944-.58 3.754.453l-.643.562C2.585 1.398 1.115 2.644.758 5.01c-.43 2.84.925 6.091 4.027 9.659 3.099 3.569 6.133 5.362 9.006 5.33 2.389-.025 3.83-1.307 4.282-1.773l.645-.563c1.188-1.032.45-2.082-.759-3.118l-.727-.625z"/></symbol><symbol viewBox="0 0 16 16" id="plus" xmlns="http://www.w3.org/2000/svg"><path d="M8.227.727a1.25 1.25 0 00-1.25 1.25v5h-5a1.25 1.25 0 000 2.5h5v5a1.25 1.25 0 002.5 0v-5h5a1.25 1.25 0 100-2.5h-5v-5a1.25 1.25 0 00-1.25-1.25z"/></symbol><symbol viewBox="0 0 28 36" id="price-label" xmlns="http://www.w3.org/2000/svg"><path d="M26.464 0H1.576C.992 0 .52.472.52 1.055v30.784c0 .28.11.548.309.745l3.11 3.107a1.057 1.057 0 001.495 0l2.364-2.36 2.364 2.36a1.057 1.057 0 001.493 0l2.365-2.36 2.364 2.36a1.057 1.057 0 001.493 0l2.364-2.36 2.364 2.36a1.054 1.054 0 001.494 0l3.111-3.107c.198-.197.31-.466.31-.745V1.055C27.52.472 27.047 0 26.463 0zm-13.5 7.922V6.703a1.055 1.055 0 012.112 0v1.205h1.206a1.055 1.055 0 110 2.11h-3.017c-.665 0-1.206.54-1.206 1.204 0 .664.541 1.205 1.206 1.205h1.509a3.32 3.32 0 013.319 3.314 3.32 3.32 0 01-3.017 3.3v1.218a1.055 1.055 0 01-2.113 0v-1.204h-1.206a1.056 1.056 0 110-2.11h3.017c.665 0 1.206-.54 1.206-1.204 0-.665-.541-1.205-1.206-1.205h-1.509a3.32 3.32 0 01-3.318-3.314 3.32 3.32 0 013.016-3.3zm6.712 19.04H8.363a1.055 1.055 0 110-2.109h11.313a1.056 1.056 0 110 2.11z"/></symbol><symbol viewBox="0 0 20 20" id="question" xmlns="http://www.w3.org/2000/svg"><path d="M10 0C4.486 0 0 4.486 0 10s4.486 10 10 10 10-4.486 10-10S15.514 0 10 0zm0 15.833a.833.833 0 110-1.667.833.833 0 010 1.667zm1.32-5.298a.837.837 0 00-.487.758v.374a.833.833 0 11-1.666 0v-.374A2.51 2.51 0 0110.62 9.02c.849-.39 1.462-1.429 1.462-1.938A2.086 2.086 0 0010 5c-1.15 0-2.083.935-2.083 2.083a.833.833 0 11-1.667 0A3.755 3.755 0 0110 3.333a3.755 3.755 0 013.75 3.75c0 1.126-.977 2.781-2.43 3.452z"/></symbol><symbol viewBox="0 0 30 26" id="registration" xmlns="http://www.w3.org/2000/svg"><path d="M7.5 14.934a1.465 1.465 0 100-2.93 1.465 1.465 0 000 2.93zm0 1.757a1.936 1.936 0 00-1.934 1.934v1.465h3.868v-1.465A1.936 1.936 0 007.5 16.691z"/><path d="M23.027 16.105c-4.814 0-8.73-3.916-8.73-8.73 0-.79.106-1.556.304-2.285H2.637A2.64 2.64 0 000 7.727V22.96a2.64 2.64 0 002.637 2.637h21.855a2.64 2.64 0 002.637-2.637v-7.88a8.676 8.676 0 01-4.102 1.025zm-8.496.235h3.281a.879.879 0 010 1.758h-3.28a.879.879 0 010-1.758zm-3.34 4.629a.879.879 0 01-.879.879H4.689a.879.879 0 01-.88-.88v-2.343c0-1.17.549-2.215 1.402-2.892a3.212 3.212 0 01-.933-2.264A3.226 3.226 0 017.5 10.246a3.226 3.226 0 013.223 3.223 3.21 3.21 0 01-.933 2.264 3.686 3.686 0 011.401 2.892v2.344zm8.028.879H14.53a.879.879 0 010-1.758h4.688a.88.88 0 010 1.758z"/><path d="M23.027.402a6.98 6.98 0 00-6.972 6.973 6.98 6.98 0 006.972 6.973A6.98 6.98 0 0030 7.375 6.98 6.98 0 0023.027.402zm2.082 6.13l-2.344 2.812a.879.879 0 01-1.461-.17L20.366 7.3a.879.879 0 111.572-.786l.337.673 1.483-1.78a.879.879 0 111.35 1.125z"/></symbol><symbol viewBox="0 0 24 24" id="reload" xmlns="http://www.w3.org/2000/svg"><path d="M3 11a1 1 0 011 1 8.05 8.05 0 102.22-5.5h2.4a1 1 0 110 2H4.09a1 1 0 01-1-1V3a1 1 0 112 0v1.77A10 10 0 112 12a1 1 0 011-1z"/></symbol><symbol viewBox="0 0 46 25" id="robo-kassa" xmlns="http://www.w3.org/2000/svg"><path d="M1.027.143c-.4.184-.757.563-.908.964C.043 1.313 0 3.24 0 6.77v5.35h2.486V8.761h3.308l.864 1.679.854 1.678H8.95c.778 0 1.427-.032 1.427-.065 0-.043-.444-.931-.995-1.97l-.984-1.906.26-.163c1.46-.963 2.108-2.858 1.719-5.024C10.127 1.67 9.49.739 8.506.306c-.552-.25-.649-.26-3.86-.282-2.593-.022-3.36 0-3.62.12zM7.296 2.59c.173.065.346.26.443.51.206.486.227 1.732.043 2.1-.464.899-1.037 1.072-3.48 1.072H2.486v-3.79h2.26c1.242 0 2.388.043 2.55.108zm6.756-2.5c-1.07.325-1.838 1.094-2.162 2.144-.26.845-.54 2.837-.54 3.8 0 .932.259 2.827.486 3.596.4 1.332 1.08 2.014 2.334 2.338.54.141 1.114.163 2.951.13 2.108-.032 2.324-.064 2.854-.292 1.524-.682 2.183-2.415 2.183-5.75-.01-3.508-.692-5.24-2.302-5.836-.573-.206-.822-.227-3.08-.217-1.352 0-2.573.044-2.724.087zm5.026 2.642c.724.996.713 5.901-.022 6.627-.216.227-4.378.238-4.561.022-.508-.618-.692-4.18-.303-5.848.162-.66.249-.866.432-.942.13-.054 1.157-.086 2.27-.075 1.827.021 2.054.043 2.184.216zM24.493.23c-.238.14-.53.422-.649.628-.216.368-.227.563-.26 4.894-.02 3.021.012 4.656.087 4.96.184.67.66 1.158 1.308 1.288.67.152 5.437.152 6.291.01 1.665-.27 2.518-1.244 2.637-3.031.076-1.007-.086-1.754-.508-2.426l-.313-.487.4-.78c.389-.747.4-.822.4-1.873 0-.898-.054-1.19-.249-1.635-.313-.682-.692-1.083-1.373-1.44l-.54-.292-3.405-.033c-3.372-.021-3.405-.021-3.826.217zm6.69 2.382c.152.152.25.877.152 1.213a1.675 1.675 0 01-.378.617c-.27.26-.314.26-2.54.292l-2.26.033V2.47l2.476.033c1.362.021 2.507.065 2.55.108zm-.475 4.83c.432.173.67.638.66 1.255-.011.39-.066.585-.195.683-.14.108-.822.14-2.605.14h-2.41V7.225l2.14.043c1.167.033 2.259.108 2.41.173zm6.82-7.223C36.48.63 35.95 1.367 35.54 2.99c-.205.823-.237 1.256-.237 3.064 0 1.971.021 2.188.292 3.195.335 1.223.648 1.754 1.275 2.22.778.552 1.016.595 3.772.595 2.757 0 2.994-.043 3.773-.596.627-.465.94-.996 1.275-2.22.27-1.006.292-1.223.292-3.194 0-1.808-.033-2.241-.238-3.064-.41-1.646-.94-2.371-2.021-2.772-.551-.206-.822-.227-3.113-.217-2.26 0-2.562.022-3.08.217zm5.21 2.371c.292.109.422.444.627 1.668.26 1.505.033 4.342-.4 5.002-.162.26-.173.26-2.324.26-2.529 0-2.378.076-2.659-1.364-.4-1.992-.075-5.317.53-5.566.324-.13 3.88-.13 4.226 0zM.279 14.813l-.279.28v8.918l.26.262c.235.225.334.26.792.26.44 0 .567-.035.729-.206.314-.334.377-.721.377-2.289V20.57H3.48l.666.576c1.33 1.145 1.79 1.757 1.79 2.37 0 .342.044.45.305.712.27.27.36.306.765.306.377 0 .503-.045.746-.261.288-.253.297-.289.288-.946-.01-.568-.054-.775-.288-1.253-.315-.63-1.232-1.757-1.808-2.216l-.377-.297.584-.532c.702-.648 1.35-1.486 1.655-2.144.17-.378.225-.649.234-1.153.009-.649 0-.685-.288-.937-.26-.234-.36-.261-.863-.261-.522 0-.603.027-.765.234-.126.162-.189.37-.189.64 0 .216-.053.522-.125.684-.153.379-.837 1.126-1.664 1.838l-.666.568H2.158v-1.469c0-.802-.045-1.613-.09-1.793-.134-.486-.458-.702-1.043-.702-.404 0-.512.036-.746.279zm11.448-.153c-1.214.387-1.88 1.252-2.347 3.018-.216.793-.234 1.063-.27 3.351-.054 2.703-.018 3 .396 3.325.297.234 1.061.243 1.34.018.323-.262.395-.514.395-1.45v-.91h4.677v1c0 .981 0 1 .26 1.26.235.226.333.262.774.262.459 0 .54-.027.782-.288l.261-.289-.027-2.883c-.036-2.666-.054-2.946-.233-3.55-.432-1.423-1.062-2.315-1.907-2.711-.468-.216-.594-.234-2.113-.252-1.152-.018-1.727.009-1.988.099zm3.103 2.045c.494.171.917 1.261 1.034 2.622l.045.612h-4.695l.063-.72c.108-1.27.603-2.46 1.062-2.55.44-.081 2.22-.054 2.49.036zm5.99-2.045c-.882.279-1.377.711-1.683 1.495-.152.397-.197.685-.197 1.397 0 1.441.431 2.261 1.447 2.756.405.199.567.217 2.339.262 1.834.045 1.915.054 2.113.252.26.261.288 1.027.045 1.396l-.153.244h-2.419c-2.284 0-2.428.009-2.644.18-.504.396-.522 1.261-.045 1.667l.27.225h2.617c1.457 0 2.77-.045 2.95-.09.494-.135 1.025-.658 1.358-1.334.278-.567.296-.648.296-1.594 0-.883-.027-1.045-.233-1.487-.297-.63-.702-1.099-1.143-1.315-.287-.144-.62-.18-2.383-.216-2.383-.054-2.311-.018-2.311-.946 0-.937-.135-.892 2.734-.946l2.482-.045.243-.244c.216-.216.243-.324.279-1.009l.045-.774-2.824.009c-2.015 0-2.923.036-3.184.117zm8.902 0c-.198.063-.476.18-.63.252-1.16.613-1.645 2.667-.98 4.126.28.613.585.937 1.16 1.244.432.234.504.243 2.249.27.99.009 1.907.072 2.041.117.315.126.468.585.387 1.126-.099.685-.027.667-2.752.667H28.76l-.26.261c-.226.234-.262.333-.262.775 0 .441.037.54.261.775l.261.26h2.716c3.022 0 3.094-.008 3.723-.612.549-.531.8-1.162.846-2.198.053-1.198-.171-1.901-.837-2.559-.297-.297-.593-.504-.818-.567-.198-.054-1.097-.1-2.024-.1-.926 0-1.798-.026-1.951-.053-.324-.063-.468-.343-.468-.892 0-.55.144-.83.468-.892.153-.027 1.24-.054 2.428-.054 2.797 0 2.86-.036 2.86-1.397v-.675l-2.806.009c-2.005 0-2.923.036-3.175.117zm9.857.054c-.26.09-.62.28-.791.414-.72.55-1.367 1.991-1.547 3.46-.135 1.027-.126 5.027 0 5.396.126.352.485.55 1.016.55.324 0 .468-.054.701-.261l.297-.262.027-1 .036-1h4.55l.037 1 .027 1 .296.262c.234.216.37.26.738.26s.503-.044.737-.26L46 24.01l-.009-2.829c-.009-2.585-.018-2.873-.198-3.522-.404-1.487-1.007-2.388-1.88-2.82-.512-.252-.557-.261-2.185-.28-1.466-.026-1.717-.008-2.15.154zm3.597 2.252c.36.424.63 1.325.684 2.225l.054.748H39.3v-.55c0-1.144.504-2.477 1.007-2.693.117-.045.747-.072 1.412-.063l1.196.018.261.315z"/></symbol><symbol viewBox="0 0 30 30" id="sber" xmlns="http://www.w3.org/2000/svg"><path fill-rule="evenodd" clip-rule="evenodd" d="M15 0a14.93 14.93 0 019.498 3.39l-2.583 2.065a11.732 11.732 0 00-6.916-2.24C8.489 3.215 3.213 8.492 3.213 15c0 6.51 5.277 11.785 11.785 11.785 6.51 0 11.786-5.276 11.786-11.785 0-.15-.003-.3-.008-.45l2.996-2.163c.15.849.227 1.722.227 2.613 0 8.285-6.716 15-15 15C6.713 30 0 23.285 0 15S6.715 0 15 0z"/><path fill-rule="evenodd" clip-rule="evenodd" d="M9.357 11.345L15 15l12.177-8.925 1.81 2.939L15 19.234l-5.643-3.521v-4.368z"/></symbol><symbol viewBox="0 0 20 20" id="search" xmlns="http://www.w3.org/2000/svg"><path d="M19.756 18.578l-5.688-5.688a7.878 7.878 0 001.765-4.973C15.833 3.552 12.282 0 7.917 0S0 3.552 0 7.917s3.552 7.916 7.917 7.916a7.878 7.878 0 004.973-1.765l5.688 5.688a.831.831 0 001.178 0 .832.832 0 000-1.178zm-11.84-4.411a6.257 6.257 0 01-6.25-6.25 6.257 6.257 0 016.25-6.25 6.257 6.257 0 016.25 6.25 6.257 6.257 0 01-6.25 6.25z"/></symbol><symbol viewBox="0 0 50 50" id="shield" xmlns="http://www.w3.org/2000/svg"><g clip-path="url(#cdclip0)"><path d="M25 15.474c-5.253 0-9.526 4.274-9.526 9.527 0 5.253 4.273 9.527 9.526 9.527s9.527-4.274 9.527-9.527c0-5.253-4.274-9.527-9.527-9.527zm5.657 7.733l-6.825 6.825a1.463 1.463 0 01-2.075 0l-2.608-2.609a1.467 1.467 0 112.074-2.074l1.571 1.57 5.788-5.787a1.467 1.467 0 112.075 2.075z"/><path d="M46.24 13.566l-.002-.039c-.021-.48-.036-.988-.045-1.553-.04-2.757-2.232-5.038-4.99-5.192-5.748-.32-10.195-2.195-13.995-5.899l-.032-.03a3.2 3.2 0 00-4.35 0l-.032.03c-3.8 3.704-8.247 5.578-13.995 5.9-2.757.153-4.949 2.434-4.99 5.19-.008.562-.023 1.07-.045 1.554l-.002.09c-.112 5.863-.25 13.158 2.19 19.78 1.342 3.642 3.374 6.807 6.04 9.41 3.037 2.962 7.014 5.315 11.821 6.991a3.648 3.648 0 001.188.202 3.586 3.586 0 001.19-.203c4.802-1.679 8.775-4.033 11.808-6.995 2.665-2.603 4.698-5.77 6.041-9.412 2.45-6.641 2.311-13.95 2.2-19.824zM25 37.461c-6.87 0-12.46-5.59-12.46-12.46 0-6.871 5.59-12.461 12.46-12.461 6.871 0 12.461 5.59 12.461 12.46 0 6.872-5.59 12.461-12.46 12.461z"/></g><defs><clipPath id="cdclip0"><path d="M0 0h50v50H0z"/></clipPath></defs></symbol><symbol viewBox="0 0 45 45" id="shop" xmlns="http://www.w3.org/2000/svg"><path d="M22.5 0C10.072 0 0 10.074 0 22.5 0 34.925 10.073 45 22.5 45 34.925 45 45 34.925 45 22.5 45 10.074 34.925 0 22.5 0zm12.325 33.396h-.001c0 1.22-.99 2.21-2.212 2.21h-1.367v-9.563h-6.458v9.563H12.162a2.21 2.21 0 01-2.21-2.21V21.924a4.307 4.307 0 002.813-1.351 4.307 4.307 0 003.152 1.369 4.308 4.308 0 003.152-1.37 4.308 4.308 0 003.152 1.37 4.308 4.308 0 003.152-1.37 4.307 4.307 0 003.152 1.37 4.308 4.308 0 003.152-1.37 4.308 4.308 0 003.148 1.37v11.453zm.003-13.787a1.987 1.987 0 01-1.985-1.985 1.167 1.167 0 10-2.334 0c0 1.094-.89 1.985-1.985 1.985a1.987 1.987 0 01-1.985-1.985 1.167 1.167 0 10-2.334 0c0 1.094-.89 1.985-1.985 1.985a1.988 1.988 0 01-1.985-1.985 1.167 1.167 0 10-2.334 0c0 1.094-.89 1.985-1.985 1.985a1.987 1.987 0 01-1.985-1.985 1.167 1.167 0 10-2.334 0c0 1.094-.89 1.985-1.986 1.985-.977 0-1.791-.71-1.955-1.641l6.026-8.166h17.477l5.638 8.065a1.986 1.986 0 01-1.969 1.742z"/><path d="M20.498 26.123h-7.143v4.99h7.143v-4.99z"/></symbol><symbol viewBox="0 0 25 25" id="special" xmlns="http://www.w3.org/2000/svg"><path fill-rule="evenodd" clip-rule="evenodd" d="M2.76 12.5A2.76 2.76 0 000 15.26v6.98A2.76 2.76 0 002.76 25h6.98a2.76 2.76 0 002.76-2.76v-6.98a2.76 2.76 0 00-2.76-2.76H2.76zm2.557 2.679a.852.852 0 000 1.704h1.866a.852.852 0 000-1.704H5.317zM15.26 12.5a2.76 2.76 0 00-2.76 2.76v6.98A2.76 2.76 0 0015.26 25h6.98A2.76 2.76 0 0025 22.24v-6.98a2.76 2.76 0 00-2.76-2.76h-6.98zm2.557 2.679a.852.852 0 100 1.704h1.866a.852.852 0 000-1.704h-1.866z"/><path fill-rule="evenodd" clip-rule="evenodd" d="M10.714 0a2.76 2.76 0 00-2.76 2.76v6.98a2.76 2.76 0 002.76 2.76h6.98a2.76 2.76 0 002.76-2.76V2.76A2.76 2.76 0 0017.694 0h-6.98zm2.557 2.679a.852.852 0 100 1.704h1.867a.852.852 0 100-1.704h-1.867z"/></symbol><symbol viewBox="0 0 17 17" id="star" xmlns="http://www.w3.org/2000/svg"><g opacity=".9" clip-path="url(#cgclip0)"><path d="M16.956 6.52a.902.902 0 00-.777-.62l-4.908-.445-1.94-4.54a.904.904 0 00-1.662 0l-1.94 4.54L.823 5.9a.905.905 0 00-.514 1.581l3.71 3.253-1.094 4.817a.903.903 0 001.344.977l4.232-2.53 4.23 2.53a.903.903 0 001.346-.977l-1.094-4.817 3.71-3.253a.904.904 0 00.264-.96z"/></g><defs><clipPath id="cgclip0"><path d="M0 0h17v17H0z"/></clipPath></defs></symbol><symbol viewBox="0 0 30 30" id="store" xmlns="http://www.w3.org/2000/svg"><path d="M29.972 10.086l-1.697-6.792a1.874 1.874 0 00-1.819-1.419H3.546c-.861 0-1.611.585-1.821 1.42l-1.697 6.79a.918.918 0 00-.028.227C0 12.896 1.997 15 4.453 15c1.427 0 2.7-.71 3.516-1.813C8.784 14.289 10.057 15 11.484 15s2.7-.71 3.516-1.813C15.816 14.289 17.087 15 18.516 15c1.428 0 2.7-.71 3.515-1.813.816 1.102 2.087 1.813 3.516 1.813C28.003 15 30 12.896 30 10.312a.92.92 0 00-.028-.226zm-4.425 6.79c-1.277 0-2.49-.39-3.516-1.103-2.051 1.427-4.98 1.427-7.031 0-2.051 1.427-4.98 1.427-7.031 0a6.083 6.083 0 01-6.094.52v9.958c0 1.035.84 1.875 1.875 1.875h7.5v-7.5h7.5v7.5h7.5c1.035 0 1.875-.84 1.875-1.875v-9.958a6.083 6.083 0 01-2.578.583z"/></symbol><symbol viewBox="0 0 50 50" id="truck" xmlns="http://www.w3.org/2000/svg"><g clip-path="url(#ciclip0)"><path d="M46.804 24.533c-.157-.033-.305-.064-.437-.098-1.494-.386-2.176-.598-2.68-1.566l-1.91-3.846c-.614-1.178-2.199-2.137-3.533-2.137h-3.4v-4.44c0-.797-.652-1.446-1.454-1.446l-23.682.024c-.78 0-1.37.616-1.37 1.434v1.313H2.273A2.269 2.269 0 000 16.03a2.269 2.269 0 002.272 2.259H8.34v2.165H4.367a2.269 2.269 0 00-2.272 2.26 2.269 2.269 0 002.272 2.26h3.972v2.165H6.46A2.268 2.268 0 004.19 29.4a2.27 2.27 0 002.272 2.26H8.34v2.264c0 .798.652 1.446 1.454 1.446h2.463C12.64 37.985 14.91 40 17.644 40c2.734 0 5.004-2.015 5.388-4.63h9.97c.051 0 .104-.003.157-.006.38 2.618 2.652 4.636 5.389 4.636 2.734 0 5.004-2.015 5.387-4.63h3.539A2.522 2.522 0 0050 32.858v-4.262c0-3.397-1.923-3.798-3.196-4.063zm-8.256 8.084c1.091 0 1.98.883 1.98 1.968a1.977 1.977 0 01-1.98 1.969 1.976 1.976 0 01-1.98-1.969c0-1.085.888-1.968 1.98-1.968zm-3.704-8.39v-5.244h2.598c.999 0 2.23.746 2.688 1.623l1.7 3.422c.036.07.073.135.112.198h-7.098zm-15.22 10.358a1.977 1.977 0 01-1.98 1.969 1.976 1.976 0 01-1.98-1.969c0-1.085.888-1.968 1.98-1.968 1.091 0 1.98.883 1.98 1.968z"/></g><defs><clipPath id="ciclip0"><path d="M0 0h50v50H0z"/></clipPath></defs></symbol><symbol viewBox="0 0 20 20" id="user" xmlns="http://www.w3.org/2000/svg"><g clip-path="url(#cjclip0)"><path d="M9.857 9.634c1.324 0 2.47-.475 3.407-1.411.936-.937 1.41-2.082 1.41-3.406 0-1.323-.474-2.47-1.41-3.406C12.326.475 11.18 0 9.856 0 8.534 0 7.388.475 6.452 1.411c-.937.937-1.412 2.082-1.412 3.406 0 1.324.475 2.47 1.412 3.406.936.936 2.082 1.411 3.405 1.411zm8.429 5.745c-.027-.39-.081-.815-.162-1.264a9.968 9.968 0 00-.31-1.27 6.281 6.281 0 00-.523-1.186 4.473 4.473 0 00-.788-1.026 3.473 3.473 0 00-1.131-.71 3.91 3.91 0 00-1.444-.262c-.205 0-.402.084-.783.332-.235.153-.51.33-.816.526-.262.167-.617.323-1.055.465a4.19 4.19 0 01-1.29.208c-.43 0-.864-.07-1.292-.208-.438-.142-.793-.298-1.054-.465-.304-.194-.578-.371-.817-.526-.38-.249-.578-.332-.782-.332-.52 0-1.006.088-1.444.261a3.47 3.47 0 00-1.132.711c-.297.285-.562.63-.787 1.027a6.29 6.29 0 00-.523 1.185c-.125.39-.23.818-.31 1.27-.08.448-.135.874-.162 1.264-.027.383-.04.78-.04 1.181 0 1.044.331 1.89.986 2.513.646.615 1.502.927 2.542.927h9.63c1.04 0 1.895-.312 2.541-.927.655-.623.987-1.468.987-2.513 0-.403-.014-.8-.04-1.181z"/></g><defs><clipPath id="cjclip0"><path d="M0 0h20v20H0z"/></clipPath></defs></symbol><symbol viewBox="0 0 20 20" id="vk" xmlns="http://www.w3.org/2000/svg"><g clip-path="url(#ckclip0)"><path fill-rule="evenodd" clip-rule="evenodd" d="M17.213 11.538c.663.647 1.363 1.257 1.958 1.97.263.317.512.644.703 1.011.27.523.025 1.098-.444 1.13l-2.913-.002c-.752.063-1.351-.24-1.855-.754-.404-.41-.778-.848-1.165-1.273a2.762 2.762 0 00-.525-.466c-.397-.258-.743-.179-.97.236-.232.422-.284.89-.307 1.36-.031.685-.238.866-.928.897-1.472.07-2.87-.153-4.169-.896-1.145-.655-2.032-1.58-2.805-2.627-1.505-2.038-2.657-4.278-3.692-6.58-.233-.52-.063-.798.51-.808.95-.018 1.9-.017 2.852-.001.387.005.642.227.791.592.515 1.264 1.144 2.468 1.934 3.583.21.297.425.593.73.802.338.232.595.155.754-.221.101-.239.145-.496.168-.752.075-.88.085-1.757-.047-2.633-.081-.547-.39-.901-.935-1.005-.278-.053-.237-.156-.102-.315.234-.274.454-.445.894-.445h3.293c.518.102.633.335.704.857l.003 3.658c-.006.202.1.8.464.934.291.096.483-.137.658-.322.788-.837 1.351-1.826 1.854-2.85.223-.45.415-.917.6-1.385.138-.346.354-.517.745-.51l3.17.003c.093 0 .188.002.28.017.533.091.68.321.515.843-.26.818-.766 1.5-1.26 2.185-.529.73-1.094 1.437-1.618 2.173-.482.672-.443 1.01.155 1.594z"/></g><defs><clipPath id="ckclip0"><path d="M0 0h20v20H0z"/></clipPath></defs></symbol><symbol viewBox="0 0 30 30" id="wallet" xmlns="http://www.w3.org/2000/svg"><path d="M7.01 6.082l11.96-3.264-.633-1.28a1.685 1.685 0 00-2.258-.762L5.373 6.082H7.01zm15.673-3.169c-.149 0-.297.02-.445.06l-2.81.769-8.58 2.341h13.984l-.526-1.927a1.682 1.682 0 00-1.623-1.243zm3.904 4.349H1.688A1.682 1.682 0 00.06 8.505c-.037.141-.061.29-.061.441v18.768c0 .93.755 1.685 1.684 1.685h24.9c.93 0 1.684-.755 1.684-1.685v-4.7h-9.995a2.866 2.866 0 01-2.864-2.863v-3.747c0-.774.31-1.478.812-1.993a2.835 2.835 0 012.049-.866h9.998V8.946a1.68 1.68 0 00-1.68-1.684z"/><path d="M29.45 15.154a1.682 1.682 0 00-1.135-.441H18.272c-.93 0-1.684.755-1.684 1.684v3.75c0 .93.755 1.684 1.684 1.684h10.043a1.666 1.666 0 001.136-.441c.336-.307.548-.751.548-1.243v-3.75c0-.492-.212-.936-.549-1.243zm-7.66 3.453a.843.843 0 01-.843.843h-.559a.843.843 0 01-.842-.843v-.559a.851.851 0 01.842-.842h.559c.465 0 .843.377.843.842v.56z"/></symbol><symbol viewBox="0 0 25 25" id="warning" xmlns="http://www.w3.org/2000/svg"><path d="M24.48 17.492L15.653 2.785A3.64 3.64 0 0012.5 1a3.64 3.64 0 00-3.153 1.785L.521 17.492a3.59 3.59 0 00-.035 3.665A3.63 3.63 0 003.673 23h17.654a3.63 3.63 0 003.187-1.843 3.592 3.592 0 00-.034-3.665zM12.5 5.496c.81 0 1.466.653 1.466 1.459v5.835c0 .805-.656 1.458-1.466 1.458-.81 0-1.466-.653-1.466-1.458V6.955c0-.806.656-1.459 1.466-1.459zm0 14.587c-1.213 0-2.2-.982-2.2-2.188 0-1.207.987-2.188 2.2-2.188s2.2.981 2.2 2.188a2.196 2.196 0 01-2.2 2.188z"/></symbol></svg>