<svg width="304" height="249" viewBox="0 0 304 249" fill="none" xmlns="http://www.w3.org/2000/svg"><g clip-path="url(#clip0)"><path d="M151.299 58.38l-83.68 72.517 1.56 32.814c0 3.91 4.681 59.403 9.134 59.403l78.135-52.746 70.401 47.332c4.453 0 13.051-51.563 13.051-55.483l5.208-31.4-83.75-72.437c-2.952-2.055-7.127-2.055-10.059 0z" fill="#14474B"/><path d="M223.658 236.208H88.65c-3.598 0-6.51-2.938-6.51-6.567V90.924c0-3.629 2.912-6.567 6.51-6.567h135.008c3.599 0 6.511 2.938 6.511 6.567v138.717c.01 3.629-2.912 6.567-6.511 6.567z" fill="#fff"/><path d="M126.858 172.815h-31.38a2.207 2.207 0 01-2.196-2.216v-31.651c0-1.223.984-2.216 2.197-2.216h31.379c1.213 0 2.197.993 2.197 2.216v31.651a2.2 2.2 0 01-2.197 2.216zm-29.173-4.441h26.976v-27.21H97.685v27.21z" fill="#B5E0E3"/><path d="M222.874 164.153H144.56a2.207 2.207 0 01-2.196-2.216c0-1.223.984-2.215 2.196-2.215h78.314c1.212 0 2.196.992 2.196 2.215a2.207 2.207 0 01-2.196 2.216z" fill="#95BAB9"/><path d="M109.027 165.637h-.05a2.205 2.205 0 01-1.908-1.203l-3.837-7.55a2.224 2.224 0 01.954-2.987 2.187 2.187 0 012.962.962l1.988 3.92 7.862-13.765a2.184 2.184 0 013.002-.812 2.225 2.225 0 01.805 3.028l-9.88 17.304a2.184 2.184 0 01-1.898 1.103z" fill="#51BCC3"/><path d="M183.921 149.786H144.54a2.196 2.196 0 01-2.186-2.205c0-1.213.974-2.206 2.186-2.206h39.381c1.202 0 2.186.983 2.186 2.206-.01 1.213-.984 2.205-2.186 2.205zm-57.063-18.116h-31.38a2.207 2.207 0 01-2.196-2.216V97.803c0-1.224.984-2.216 2.197-2.216h31.379c1.213 0 2.197.992 2.197 2.216v31.651a2.201 2.201 0 01-2.197 2.216zm-29.173-4.442h26.976v-27.21H97.685v27.21zm106.462-18.548h-59.875c-1.064 0-1.929-.992-1.929-2.215 0-1.223.865-2.216 1.929-2.216h59.875c1.064 0 1.928.993 1.928 2.216.01 1.223-.854 2.215-1.928 2.215z" fill="#B5E0E3"/><path d="M218.162 123.017h-73.741c-1.143 0-2.078-.992-2.078-2.215 0-1.224.925-2.216 2.078-2.216h73.741c1.143 0 2.077.992 2.077 2.216-.01 1.223-.934 2.215-2.077 2.215z" fill="#95BAB9"/><path d="M109.027 124.502h-.05a2.205 2.205 0 01-1.908-1.203l-3.837-7.549a2.225 2.225 0 01.954-2.988 2.188 2.188 0 012.962.962l1.988 3.92 7.862-13.765a2.184 2.184 0 013.002-.812 2.225 2.225 0 01.805 3.028l-9.88 17.304a2.184 2.184 0 01-1.898 1.103z" fill="#51BCC3"/><path d="M158.157 185.737l40.375-40.073c10.605-10.527 25.743-16.532 41.626-16.532 3.728 0 6.759 2.386 6.759 5.344v107.115c0 2.947-5.039 7.429-8.776 7.429H215.2l-57.043-56.626c-1.908-1.894-1.908-4.762 0-6.657z" fill="#245E63"/><path d="M154.728 185.667l-40.374-40.073c-10.606-10.527-25.743-16.532-41.627-16.532-3.727 0-6.759 2.386-6.759 5.343v107.757c0 2.948 4.334 6.858 8.061 6.858l23.656-.07 57.043-56.616c1.908-1.905 1.908-4.772 0-6.667z" fill="#245E63"/><path d="M246.917 219.655v23.099c0 3.449-3.608 6.246-8.061 6.246H74.029c-4.453 0-8.06-2.797-8.06-6.246v-23.099l85.449-52.786c1.392-.862 3.052-1.313 4.741-1.354 1.869-.05 3.758.402 5.308 1.354l85.45 52.786zm-74.476-48.175l74.477 38.349v9.825l-75.809-46.84 1.332-1.334zm-32.006 0l-74.467 38.349v9.825l75.809-46.84-1.342-1.334zM113.887 43.662L96.423 100.88l-2.793 9.164-7.981-6.788L64.794 85.51l49.092-41.848z" fill="#14474B"/><path d="M113.887 43.662L53.206 79.013l-27.592-9.234 88.273-26.117z" fill="#245E63"/><path d="M113.887 43.662L64.796 85.51l-9.433 19.029-2.157-25.526 60.681-35.35z" fill="#14474B"/><path d="M132.225 237.29a.994.994 0 01-.288-.04 81.264 81.264 0 01-6.044-2.075 1.012 1.012 0 01-.576-1.294.997.997 0 011.282-.581 78.606 78.606 0 005.904 2.025c.527.16.825.712.666 1.243a.977.977 0 01-.944.722zm-13.667-5.484a.897.897 0 01-.447-.11 87.135 87.135 0 01-5.586-3.108 1.003 1.003 0 01-.338-1.374.985.985 0 011.362-.341 78.578 78.578 0 005.456 3.038c.487.251.686.852.438 1.344a.976.976 0 01-.885.551zm-12.494-7.81a.947.947 0 01-.596-.201 83.731 83.731 0 01-4.96-4.05 1.004 1.004 0 01-.318-.561 30.37 30.37 0 01-2.843.852.995.995 0 01-1.203-.742 1.003 1.003 0 01.736-1.213 26.583 26.583 0 005.705-2.096.989.989 0 011.332.441c.249.492.05 1.093-.437 1.344-.467.231-.934.461-1.412.672a79.532 79.532 0 004.612 3.739 1.011 1.011 0 01-.616 1.815zm-17.305-3.138h-.05a34.94 34.94 0 01-6.41-.913 1.002 1.002 0 01-.746-1.203.994.994 0 011.193-.752c2.038.472 4.075.762 6.063.863.547.03.974.491.944 1.052a.998.998 0 01-.994.953zm-14.193-3.609a.968.968 0 01-.408-.091 53.648 53.648 0 01-5.695-2.997 1.015 1.015 0 01-.348-1.374.996.996 0 011.362-.351 55.814 55.814 0 005.486 2.888c.497.23.726.822.497 1.323a.966.966 0 01-.894.602zM95.11 214.1c-.269 0-.537-.11-.736-.32a43.64 43.64 0 01-3.995-5.124 1.009 1.009 0 01.278-1.393.99.99 0 011.382.281 39.428 39.428 0 003.796 4.872 1.006 1.006 0 01-.06 1.414.945.945 0 01-.665.27zm14.621-1.253a1.006 1.006 0 01-.736-1.684 21.733 21.733 0 001.71-2.146 17.622 17.622 0 001.59-2.857 1.003 1.003 0 011.312-.511c.497.23.726.822.507 1.323a19.641 19.641 0 01-1.769 3.178 23.632 23.632 0 01-1.879 2.366 1.016 1.016 0 01-.735.331zm-47.69-3.338a1.02 1.02 0 01-.616-.211 68.855 68.855 0 01-4.85-4.211 1.004 1.004 0 01-.04-1.413.984.984 0 011.401-.04 67.446 67.446 0 004.711 4.09c.428.341.507.973.17 1.404-.19.24-.488.381-.776.381zm25.485-8.011a1.01 1.01 0 01-.954-.712c-.597-1.955-.905-3.87-.905-5.674 0-.321.01-.642.03-.953.03-.551.507-.972 1.054-.942.546.03.964.511.934 1.063-.02.27-.03.551-.03.832 0 1.604.278 3.318.815 5.083a1.001 1.001 0 01-.656 1.253.702.702 0 01-.288.05zm27.393-2.165c-.546 0-.994-.452-.994-1.003-.01-2.075-.348-4.06-1.014-5.905a1.004 1.004 0 01.597-1.284.99.99 0 011.272.602 19.768 19.768 0 011.133 6.577.998.998 0 01-.994 1.013zm-63.404-.171a.98.98 0 01-.765-.361 75.323 75.323 0 01-3.867-5.143 1.014 1.014 0 01.249-1.394.995.995 0 011.381.251 71.01 71.01 0 003.758 4.993 1.008 1.008 0 01-.13 1.413.895.895 0 01-.626.241zm38.277-11.65a1.005 1.005 0 01-.736-1.674c1.472-1.644 3.43-2.918 5.666-3.68a.994.994 0 011.262.622 1.005 1.005 0 01-.616 1.273c-1.918.662-3.588 1.745-4.83 3.128a.99.99 0 01-.746.331zm-46.457-.662a.98.98 0 01-.875-.531 75.626 75.626 0 01-2.743-5.825c-.209-.511.02-1.103.527-1.313a.99.99 0 011.302.531c.795 1.915 1.7 3.82 2.664 5.665.258.491.07 1.092-.418 1.353a.976.976 0 01-.457.12zm65.71-.591a.986.986 0 01-.606-.211c-1.491-1.153-3.33-1.995-5.308-2.426a1.012 1.012 0 01-.765-1.193 1.004 1.004 0 011.182-.772c2.267.491 4.374 1.454 6.093 2.797a1 1 0 01.179 1.404.927.927 0 01-.775.401zm-71.207-13.164a.989.989 0 01-.954-.732 69.303 69.303 0 01-1.461-6.286 1.01 1.01 0 01.795-1.173c.537-.1 1.064.261 1.163.802a69.567 69.567 0 001.421 6.106 1.016 1.016 0 01-.685 1.243c-.1.03-.19.04-.279.04zm-2.455-14.607a.997.997 0 01-.994-.943 69.986 69.986 0 01-.08-6.457c.02-.551.478-.982 1.024-.972.547.02.975.481.965 1.033a65.963 65.963 0 00.08 6.266 1.01 1.01 0 01-.935 1.062.127.127 0 01-.06.011zm.706-14.809c-.05 0-.1 0-.15-.01a.999.999 0 01-.834-1.143c.318-2.115.745-4.24 1.252-6.326a.989.989 0 011.203-.732.998.998 0 01.726 1.213 68.106 68.106 0 00-1.213 6.156c-.08.492-.507.842-.984.842zm3.717-14.336a.996.996 0 01-.348-.061 1.008 1.008 0 01-.586-1.293 69.34 69.34 0 012.515-5.935.986.986 0 011.322-.471c.497.24.705.842.467 1.333a72.224 72.224 0 00-2.445 5.775.994.994 0 01-.925.652zm6.56-13.265a1 1 0 01-.835-1.543 67.969 67.969 0 013.698-5.264.989.989 0 011.392-.17 1 1 0 01.169 1.403 66.15 66.15 0 00-3.589 5.113.966.966 0 01-.835.461zm137.465 120.17c-.06 0-.119 0-.169-.02a1.002 1.002 0 01-.805-1.163c.368-2.106 1.014-4.221 1.908-6.297a.992.992 0 011.312-.521c.507.221.736.812.517 1.323a26.057 26.057 0 00-1.769 5.845c-.109.492-.527.833-.994.833zm43.893-8.031h-.089c-2.217-.201-4.463-1.073-6.322-2.466a1.014 1.014 0 01-.209-1.404.995.995 0 011.392-.211c1.56 1.174 3.449 1.905 5.308 2.076.546.05.954.531.904 1.083a.99.99 0 01-.984.922zm7.405-3.138c-.209 0-.417-.07-.596-.201a1.01 1.01 0 01-.199-1.403c1.024-1.374 1.56-3.128 1.56-5.083v-.271a1.01 1.01 0 01.964-1.033 1.001 1.001 0 011.024.973v.331c0 2.396-.676 4.571-1.958 6.286a.976.976 0 01-.795.401zm-45.125-2.146a.973.973 0 01-.607-.21 1 1 0 01-.169-1.404 41.8 41.8 0 014.364-4.802.984.984 0 011.401.04 1.005 1.005 0 01-.04 1.414 41.253 41.253 0 00-4.154 4.571 1.022 1.022 0 01-.795.391zm27.81-4.1a.993.993 0 01-.984-.892 12.783 12.783 0 01-.069-1.374c0-1.775.358-3.579 1.073-5.344a.988.988 0 011.292-.551c.507.21.756.792.547 1.303-.616 1.524-.924 3.068-.924 4.582 0 .391.02.772.059 1.153a1 1 0 01-.874 1.103c-.04.01-.08.02-.12.02zm-16.927-5.805a.981.981 0 01-.835-.461 1 1 0 01.299-1.384 47.192 47.192 0 015.635-3.148.992.992 0 011.322.481c.229.502.02 1.103-.477 1.334a45.463 45.463 0 00-5.397 3.017 1.036 1.036 0 01-.547.161zm33.039-1.715a1 1 0 01-.755-.35 9.83 9.83 0 00-1.113-1.113 13.667 13.667 0 00-3.648-2.216 1.01 1.01 0 01-.537-1.313.995.995 0 011.302-.542 15.645 15.645 0 014.165 2.537c.477.401.924.852 1.332 1.343a1.007 1.007 0 01-.11 1.414.916.916 0 01-.636.24zm-19.6-4.19a.998.998 0 01-.965-.772.989.989 0 01.736-1.203c.378-.091.755-.171 1.123-.251a28.931 28.931 0 015.328-.612 1.004 1.004 0 01.039 2.006c-1.62.03-3.29.23-4.969.571-.348.07-.706.15-1.064.241a1.92 1.92 0 01-.228.02zm9.502-1.163c-.298 0-.597-.141-.795-.391a1.001 1.001 0 01.188-1.404 16.782 16.782 0 012.654-1.664 20.511 20.511 0 013.3-1.283.987.987 0 011.233.681.997.997 0 01-.676 1.243 19.47 19.47 0 00-2.982 1.163c-.805.402-1.59.893-2.326 1.454a.991.991 0 01-.596.201zm13.935-4.041a.997.997 0 01-.994-.952.995.995 0 01.934-1.053c1.163-.06 2.336-.1 3.479-.14l.497-.02c.934-.03 1.66-.06 2.336-.1a.994.994 0 011.044.952.998.998 0 01-.945 1.053c-.686.04-1.421.07-2.375.1l-.497.02c-1.123.04-2.296.08-3.439.14h-.04zm14.611-1.473a.989.989 0 01-.954-.732 1.017 1.017 0 01.686-1.244c1.62-.471 3.041-1.072 4.323-1.854.299-.181.627-.421.974-.702a.99.99 0 011.402.15 1.011 1.011 0 01-.149 1.414c-.418.341-.825.632-1.203.862-1.431.872-3.002 1.544-4.801 2.065a.864.864 0 01-.278.041zm10.914-9.304a1.005 1.005 0 01-.865-1.494 28.268 28.268 0 002.395-5.635.996.996 0 011.243-.671c.527.16.825.721.666 1.253a30.167 30.167 0 01-2.565 6.045 1.015 1.015 0 01-.874.502zm3.637-14.217a.996.996 0 01-.993-.982 26.848 26.848 0 00-.835-6.056 1.003 1.003 0 01.715-1.223.993.993 0 011.213.722 28.74 28.74 0 01.904 6.516 1.001 1.001 0 01-.974 1.023h-.03z" fill="#95BAB9"/><path d="M253.139 164.383c11.506 0 20.833-9.409 20.833-21.014 0-11.606-9.327-21.015-20.833-21.015-11.506 0-20.833 9.409-20.833 21.015 0 11.605 9.327 21.014 20.833 21.014z" fill="#EFBC59"/><path d="M261.15 146.075v-4.752c0-4.462-3.588-8.081-8.011-8.081-4.423 0-8.011 3.619-8.011 8.081v4.752c0 2.587-.706 3.569-2.028 5.775h20.088c-1.342-2.206-2.038-3.198-2.038-5.775zm-8.011 9.896c-1.67 0-3.022-1.364-3.022-3.048h6.053c-.01 1.684-1.361 3.048-3.031 3.048z" fill="#fff"/><path d="M253.139 130.766c-1.352 0-2.455 1.112-2.455 2.476 0 1.363 1.103 2.476 2.455 2.476s2.455-1.113 2.455-2.476c0-1.364-1.103-2.476-2.455-2.476zm0 3.96a1.474 1.474 0 01-1.471-1.484c0-.822.656-1.484 1.471-1.484.815 0 1.471.662 1.471 1.484s-.656 1.484-1.471 1.484z" fill="#fff"/><path d="M253.139 169.065c-6.809 0-13.2-2.677-18.01-7.529-4.811-4.853-7.465-11.309-7.465-18.167 0-6.868 2.654-13.314 7.465-18.167 4.81-4.852 11.211-7.529 18.01-7.529 6.809 0 13.2 2.677 18.01 7.529 4.811 4.853 7.465 11.309 7.465 18.167 0 6.868-2.654 13.314-7.465 18.167-4.81 4.862-11.211 7.529-18.01 7.529zm0-49.387c-6.272 0-12.176 2.466-16.609 6.938-4.433 4.471-6.878 10.427-6.878 16.753 0 6.326 2.445 12.281 6.878 16.753 4.433 4.471 10.337 6.938 16.609 6.938 6.272 0 12.176-2.467 16.609-6.938 4.433-4.472 6.878-10.427 6.878-16.753 0-6.326-2.445-12.282-6.878-16.753-4.443-4.472-10.337-6.938-16.609-6.938z" fill="#EFBC59"/><path d="M234.374 80.346c-.259 0-.507-.1-.706-.291a1.006 1.006 0 010-1.414l6.511-6.567a.983.983 0 011.401 0 1.004 1.004 0 010 1.414l-6.51 6.567a.958.958 0 01-.696.29z" fill="#245E63"/><path d="M234.373 80.596c-.328 0-.646-.13-.874-.37a1.24 1.24 0 010-1.765l6.51-6.567a1.234 1.234 0 011.759 0 1.241 1.241 0 010 1.764l-6.51 6.567c-.239.24-.547.371-.885.371zm6.521-8.572a.734.734 0 00-.527.22l-6.511 6.568a.755.755 0 00.527 1.283c.199 0 .388-.08.527-.22l6.51-6.567a.751.751 0 000-1.063.734.734 0 00-.526-.22zm7.414 17.726c-.05 0-.099 0-.149-.01l-10.844-1.644a1 1 0 01-.835-1.143.993.993 0 011.133-.843l10.844 1.645c.547.08.915.591.835 1.143a1.012 1.012 0 01-.984.852z" fill="#245E63"/><path d="M248.308 90c-.06 0-.129 0-.189-.01l-10.844-1.644a1.253 1.253 0 01.368-2.476l10.844 1.644c.676.1 1.143.742 1.044 1.424A1.253 1.253 0 01248.308 90zm-10.844-3.649a.748.748 0 00-.735.642.747.747 0 00.626.852l10.844 1.644a.742.742 0 00.845-.632.748.748 0 00-.627-.852l-10.844-1.644c-.039-.01-.069-.01-.109-.01zm-10.784-9.113c-.487 0-.904-.36-.984-.852l-1.63-10.938a.999.999 0 01.835-1.143.993.993 0 011.133.842l1.63 10.938a.999.999 0 01-.835 1.143c-.05 0-.099.01-.149.01z" fill="#245E63"/><path d="M226.68 77.489a1.253 1.253 0 01-1.223-1.063l-1.63-10.938c-.049-.33.03-.662.229-.932a1.23 1.23 0 01.815-.492 1.238 1.238 0 011.411 1.053l1.631 10.938c.049.331-.03.662-.229.933a1.23 1.23 0 01-.815.49c-.06 0-.119.01-.189.01zm-1.62-12.943c-.04 0-.08 0-.109.01a.707.707 0 00-.487.3.752.752 0 00-.14.562l1.63 10.938a.75.75 0 00.736.642c.04 0 .08 0 .109-.01a.707.707 0 00.487-.301.753.753 0 00.14-.562l-1.631-10.938a.712.712 0 00-.298-.491.7.7 0 00-.437-.15z" fill="#245E63"/></g><defs><clipPath id="clip0"><path fill="#fff" d="M0 0h304v249H0z"/></clipPath></defs></svg>